<svg width="48" height="24" viewBox="0 0 48 24" xmlns="http://www.w3.org/2000/svg" xmlns:theme="http://19wintersp.github.io/custom-euroscope/theme">
	<path fill="#4b4b4b" theme:fill="bg4" stroke="none" d="M0 0 L1 0 L1 22 L0 22 Z" />
	<path fill="#6d6d6d" theme:fill="bg5" stroke="none" d="M1 0 L47 0 L47 1 L1 1 Z" />
	<path fill="#262626" theme:fill="bg3" stroke="none" d="M1 1 L47 1 L47 2 L1 2 ZM1 2 L47 2 L47 22 L1 22 Z" />
	<path fill="#ffffff" theme:fill="fg1" stroke="none" d="M10.3395 10.5923 L9.23153 10.5923 C9.18892 10.3556 9.10961 10.1473 8.99361 9.96733 C8.8776 9.78741 8.73556 9.63471 8.56747 9.50923 C8.39938 9.38376 8.21117 9.28906 8.00284 9.22514 C7.79688 9.16122 7.57789 9.12926 7.34588 9.12926 C6.92685 9.12926 6.55161 9.23461 6.22017 9.44531 C5.8911 9.65601 5.63068 9.96496 5.43892 10.3722 C5.24953 10.7794 5.15483 11.2765 5.15483 11.8636 C5.15483 12.4555 5.24953 12.955 5.43892 13.3622 C5.63068 13.7694 5.89228 14.0772 6.22372 14.2855 C6.55516 14.4938 6.92803 14.598 7.34233 14.598 C7.57197 14.598 7.78977 14.5672 7.99574 14.5057 C8.20407 14.4418 8.39228 14.3482 8.56037 14.2251 C8.72846 14.102 8.8705 13.9517 8.98651 13.7741 C9.10488 13.5942 9.18655 13.3883 9.23153 13.1562 L10.3395 13.1598 C10.2803 13.5173 10.1655 13.8464 9.99503 14.147 C9.82694 14.4453 9.61032 14.7034 9.34517 14.9212 C9.08239 15.1366 8.78172 15.3035 8.44318 15.4219 C8.10464 15.5402 7.73532 15.5994 7.33523 15.5994 C6.70549 15.5994 6.14441 15.4503 5.65199 15.152 C5.15956 14.8513 4.77131 14.4216 4.48722 13.8629 C4.20549 13.3042 4.06463 12.6378 4.06463 11.8636 C4.06463 11.0871 4.20668 10.4207 4.49077 9.86435 C4.77486 9.30563 5.16312 8.87713 5.65554 8.57884 C6.14796 8.27817 6.70786 8.12784 7.33523 8.12784 C7.72112 8.12784 8.08097 8.18348 8.41477 8.29474 C8.75095 8.40365 9.05279 8.56463 9.32031 8.7777 C9.58783 8.9884 9.80919 9.24645 9.98438 9.55185 C10.1596 9.85488 10.2779 10.2017 10.3395 10.5923 ZM13.8649 15.6101 C13.3535 15.6101 12.9073 15.4929 12.5261 15.2585 C12.1449 15.0241 11.849 14.6963 11.6383 14.2749 C11.4276 13.8535 11.3223 13.361 11.3223 12.7976 C11.3223 12.2318 11.4276 11.737 11.6383 11.3132 C11.849 10.8894 12.1449 10.5604 12.5261 10.326 C12.9073 10.0916 13.3535 9.97443 13.8649 9.97443 C14.3762 9.97443 14.8225 10.0916 15.2037 10.326 C15.5848 10.5604 15.8807 10.8894 16.0914 11.3132 C16.3021 11.737 16.4075 12.2318 16.4075 12.7976 C16.4075 13.361 16.3021 13.8535 16.0914 14.2749 C15.8807 14.6963 15.5848 15.0241 15.2037 15.2585 C14.8225 15.4929 14.3762 15.6101 13.8649 15.6101 ZM13.8684 14.7188 C14.1999 14.7188 14.4745 14.6312 14.6923 14.456 C14.9101 14.2808 15.0711 14.0476 15.1752 13.7564 C15.2818 13.4652 15.335 13.1444 15.335 12.794 C15.335 12.446 15.2818 12.1264 15.1752 11.8352 C15.0711 11.5417 14.9101 11.3061 14.6923 11.1286 C14.4745 10.951 14.1999 10.8622 13.8684 10.8622 C13.5346 10.8622 13.2576 10.951 13.0375 11.1286 C12.8197 11.3061 12.6575 11.5417 12.551 11.8352 C12.4468 12.1264 12.3947 12.446 12.3947 12.794 C12.3947 13.1444 12.4468 13.4652 12.551 13.7564 C12.6575 14.0476 12.8197 14.2808 13.0375 14.456 C13.2576 14.6312 13.5346 14.7188 13.8684 14.7188 ZM18.6545 12.2614 L18.6545 15.5 L17.5927 15.5 L17.5927 10.0455 L18.6119 10.0455 L18.6119 10.9332 L18.6793 10.9332 C18.8048 10.6444 19.0013 10.4124 19.2688 10.2372 C19.5387 10.062 19.8784 9.97443 20.288 9.97443 C20.6597 9.97443 20.9852 10.0526 21.2646 10.2088 C21.5439 10.3627 21.7605 10.5923 21.9144 10.8977 C22.0683 11.2031 22.1452 11.5807 22.1452 12.0305 L22.1452 15.5 L21.0835 15.5 L21.0835 12.1584 C21.0835 11.763 20.9805 11.4541 20.7745 11.2315 C20.5685 11.0066 20.2856 10.8942 19.9258 10.8942 C19.6796 10.8942 19.4606 10.9474 19.2688 11.054 C19.0794 11.1605 18.9291 11.3168 18.8178 11.5227 C18.7089 11.7263 18.6545 11.9725 18.6545 12.2614 ZM24.631 12.2614 L24.631 15.5 L23.5692 15.5 L23.5692 10.0455 L24.5884 10.0455 L24.5884 10.9332 L24.6559 10.9332 C24.7814 10.6444 24.9779 10.4124 25.2454 10.2372 C25.5153 10.062 25.855 9.97443 26.2646 9.97443 C26.6362 9.97443 26.9618 10.0526 27.2411 10.2088 C27.5205 10.3627 27.7371 10.5923 27.891 10.8977 C28.0449 11.2031 28.1218 11.5807 28.1218 12.0305 L28.1218 15.5 L27.06 15.5 L27.06 12.1584 C27.06 11.763 26.957 11.4541 26.7511 11.2315 C26.5451 11.0066 26.2622 10.8942 25.9023 10.8942 C25.6561 10.8942 25.4371 10.9474 25.2454 11.054 C25.056 11.1605 24.9057 11.3168 24.7944 11.5227 C24.6855 11.7263 24.631 11.9725 24.631 12.2614 ZM31.8967 15.6101 C31.3593 15.6101 30.8964 15.4953 30.5082 15.2656 C30.1223 15.0336 29.824 14.7081 29.6133 14.2891 C29.4049 13.8677 29.3008 13.3741 29.3008 12.8082 C29.3008 12.2495 29.4049 11.7571 29.6133 11.331 C29.824 10.9048 30.1175 10.5722 30.494 10.3331 C30.8728 10.094 31.3155 9.97443 31.8221 9.97443 C32.1299 9.97443 32.4281 10.0253 32.717 10.1271 C33.0058 10.2289 33.265 10.3887 33.4947 10.6065 C33.7243 10.8243 33.9054 11.1072 34.038 11.4553 C34.1706 11.8009 34.2369 12.2211 34.2369 12.7159 L34.2369 13.0923 L29.9009 13.0923 L29.9009 12.2969 L33.1964 12.2969 C33.1964 12.0175 33.1396 11.7701 33.0259 11.5547 C32.9123 11.3369 32.7525 11.1652 32.5465 11.0398 C32.3429 10.9143 32.1038 10.8516 31.8292 10.8516 C31.5309 10.8516 31.2705 10.925 31.0479 11.0717 C30.8278 11.2161 30.6573 11.4055 30.5366 11.6399 C30.4182 11.8719 30.359 12.1241 30.359 12.3963 L30.359 13.0178 C30.359 13.3823 30.4229 13.6925 30.5508 13.9482 C30.681 14.2038 30.8621 14.3991 31.0941 14.5341 C31.3261 14.6667 31.5972 14.733 31.9073 14.733 C32.1085 14.733 32.292 14.7045 32.4577 14.6477 C32.6235 14.5885 32.7667 14.5009 32.8874 14.3849 C33.0082 14.2689 33.1005 14.1257 33.1644 13.9553 L34.1694 14.1364 C34.0889 14.4323 33.9445 14.6915 33.7362 14.9141 C33.5302 15.1342 33.271 15.3059 32.9585 15.429 C32.6483 15.5497 32.2944 15.6101 31.8967 15.6101 ZM37.7125 15.6101 C37.1846 15.6101 36.7301 15.4905 36.3489 15.2514 C35.9701 15.0099 35.6789 14.6773 35.4753 14.2536 C35.2717 13.8298 35.1699 13.3445 35.1699 12.7976 C35.1699 12.2436 35.2741 11.7547 35.4824 11.331 C35.6908 10.9048 35.9843 10.5722 36.3631 10.3331 C36.7419 10.094 37.1882 9.97443 37.7019 9.97443 C38.1162 9.97443 38.4855 10.0514 38.8098 10.2053 C39.1342 10.3568 39.3958 10.5698 39.5946 10.8445 C39.7959 11.1191 39.9154 11.4399 39.9533 11.8068 L38.9199 11.8068 C38.8631 11.5511 38.7329 11.331 38.5293 11.1463 C38.3281 10.9616 38.0582 10.8693 37.7196 10.8693 C37.4237 10.8693 37.1645 10.9474 36.9419 11.1037 C36.7218 11.2576 36.5501 11.4777 36.427 11.7642 C36.3039 12.0483 36.2424 12.3845 36.2424 12.7727 C36.2424 13.1705 36.3027 13.5137 36.4235 13.8026 C36.5442 14.0914 36.7147 14.3151 36.9348 14.4737 C37.1574 14.6323 37.419 14.7116 37.7196 14.7116 C37.9209 14.7116 38.1032 14.675 38.2665 14.6016 C38.4322 14.5258 38.5707 14.4181 38.682 14.2784 C38.7956 14.1387 38.8749 13.9706 38.9199 13.7741 L39.9533 13.7741 C39.9154 14.1269 39.8006 14.4418 39.6088 14.7188 C39.4171 14.9957 39.1602 15.2135 38.8382 15.3722 C38.5186 15.5308 38.1434 15.6101 37.7125 15.6101 ZM43.6349 10.0455 L43.6349 10.8977 L40.6555 10.8977 L40.6555 10.0455 L43.6349 10.0455 ZM41.4545 8.73864 L42.5163 8.73864 L42.5163 13.8984 C42.5163 14.1044 42.5471 14.2595 42.6087 14.3636 C42.6702 14.4654 42.7495 14.5353 42.8466 14.5732 C42.946 14.6087 43.0537 14.6264 43.1697 14.6264 C43.255 14.6264 43.3295 14.6205 43.3935 14.6087 C43.4574 14.5968 43.5071 14.5874 43.5426 14.5803 L43.7344 15.4574 C43.6728 15.4811 43.5852 15.5047 43.4716 15.5284 C43.358 15.5545 43.2159 15.5687 43.0455 15.571 C42.7661 15.5758 42.5057 15.526 42.2642 15.4219 C42.0227 15.3177 41.8274 15.1567 41.6783 14.9389 C41.5291 14.7211 41.4545 14.4477 41.4545 14.1186 L41.4545 8.73864 Z" />
	<path fill="#131313" theme:fill="bg2" stroke="none" d="M47 0 L48 0 L48 22 L47 22 ZM0 22 L48 22 L48 23 L0 23 Z" />
	<path fill="#000000" theme:fill="bg1" stroke="none" d="M0 23 L48 23 L48 24 L0 24 Z" />
</svg>
