<svg width="48" height="24" viewBox="0 0 48 24" xmlns="http://www.w3.org/2000/svg" xmlns:theme="http://19wintersp.github.io/custom-euroscope/theme">
	<path fill="#ff8040" theme:fill="fg2" stroke="none" d="M0 0 L1 0 L1 22 L0 22 ZM1 0 L47 0 L47 1 L1 1 Z" />
	<path fill="#4b4b4b" theme:fill="bg4" stroke="none" d="M1 1 L47 1 L47 2 L1 2 ZM1 2 L47 2 L47 22 L1 22 Z" />
	<path fill="#ffffff" theme:fill="fg1" stroke="none" d="M14.2945 8.00433 C14.2826 7.97286 14.261 7.946 14.2328 7.92766 C14.2046 7.90932 14.1713 7.90045 14.1377 7.90235 L13.4863 7.90235 C13.4545 7.90231 13.4235 7.91208 13.3975 7.93034 C13.3715 7.94859 13.3517 7.97444 13.341 8.00433 L10.052 15.6148 C10.0396 15.6399 10.0337 15.6678 10.0349 15.6958 C10.0361 15.7238 10.0443 15.7511 10.0587 15.7751 C10.0732 15.7991 10.0935 15.819 10.1177 15.8331 C10.1419 15.8472 10.1693 15.855 10.1974 15.8558 L11.5779 15.8558 C11.61 15.8569 11.6415 15.8478 11.6679 15.8296 C11.6943 15.8115 11.7142 15.7854 11.7245 15.755 L12.1172 14.8359 L15.5183 14.8359 L15.911 15.7448 C15.9186 15.7776 15.9374 15.8067 15.9642 15.8272 C15.9909 15.8477 16.0239 15.8582 16.0576 15.857 L17.4381 15.857 C17.4651 15.8573 17.4918 15.851 17.5157 15.8387 C17.5397 15.8264 17.5603 15.8084 17.5758 15.7862 C17.5912 15.7641 17.6011 15.7386 17.6044 15.7118 C17.6077 15.6851 17.6045 15.6579 17.5949 15.6327 L14.2945 8.00433 ZM15.5132 12.5133 L15.4138 12.4648 L14.3736 11.9677 C14.3098 11.934 14.2358 11.9249 14.1658 11.9422 C14.1329 11.9495 14.1025 11.965 14.0773 11.9873 C14.0521 12.0096 14.033 12.0379 14.0217 12.0696 C13.9866 12.1576 13.9651 12.2505 13.958 12.345 C13.9516 12.4291 13.958 12.5133 13.9516 12.5999 L13.944 12.9722 C13.9435 12.9772 13.9443 12.9823 13.9463 12.987 C13.9483 12.9917 13.9514 12.9958 13.9554 12.999 C14.0102 13.0436 14.0638 13.0882 14.1199 13.1264 L14.3238 13.282 C14.343 13.296 14.3608 13.3113 14.3812 13.324 C14.3865 13.3274 14.3911 13.3319 14.3946 13.3372 C14.3981 13.3425 14.4005 13.3484 14.4016 13.3546 C14.4118 13.4209 14.4233 13.4821 14.4335 13.5535 L14.4335 13.5815 L13.8726 13.4209 C13.8547 13.4668 13.8381 13.5114 13.8216 13.5573 L13.7719 13.4209 L13.2071 13.5803 C13.2062 13.5709 13.2062 13.5615 13.2071 13.5522 C13.2173 13.4859 13.2288 13.4247 13.239 13.3533 C13.2399 13.347 13.2421 13.341 13.2457 13.3357 C13.2492 13.3304 13.2539 13.326 13.2594 13.3228 C13.2785 13.31 13.2976 13.2947 13.3168 13.2807 L13.5207 13.1252 L13.6852 12.9977 C13.6889 12.9944 13.6918 12.9902 13.6936 12.9856 C13.6954 12.9809 13.696 12.9759 13.6954 12.9709 L13.6979 12.5936 L13.6979 12.3386 C13.6904 12.2441 13.6684 12.1512 13.6329 12.0633 C13.6216 12.0318 13.6027 12.0036 13.5777 11.9813 C13.5528 11.9591 13.5227 11.9434 13.4901 11.9358 C13.4201 11.9185 13.3461 11.9276 13.2823 11.9613 L12.2421 12.4584 L12.1414 12.5069 C12.1414 12.4584 12.1414 12.4138 12.1325 12.3679 C12.1284 12.3341 12.1339 12.2998 12.1483 12.2689 C12.1627 12.2381 12.1855 12.2119 12.2141 12.1933 C12.2638 12.1538 13.406 11.2882 13.406 11.2882 L13.6253 11.1225 C13.6307 11.1189 13.6351 11.1139 13.638 11.1081 C13.6409 11.1023 13.6422 11.0958 13.6418 11.0893 C13.6418 10.9516 13.6418 10.814 13.6508 10.6763 C13.6515 10.5747 13.6601 10.4732 13.6762 10.3729 C13.6818 10.3215 13.6974 10.2717 13.7221 10.2263 C13.7332 10.207 13.7495 10.1912 13.7691 10.1806 C13.7887 10.17 13.8108 10.1651 13.833 10.1664 C13.8554 10.1657 13.8775 10.1708 13.8971 10.1813 C13.9168 10.1919 13.9334 10.2074 13.9452 10.2263 C13.9656 10.2731 13.9773 10.3232 13.9796 10.3742 C13.9946 10.4747 14.0031 10.576 14.0051 10.6776 C14.0051 10.8152 14.0051 10.9529 14.0141 11.0906 C14.0134 11.0971 14.0146 11.1037 14.0175 11.1096 C14.0204 11.1155 14.025 11.1204 14.0306 11.1237 L14.2486 11.2895 L15.4418 12.1946 C15.47 12.2136 15.4924 12.2398 15.5068 12.2706 C15.5212 12.3014 15.5269 12.3354 15.5234 12.3692 C15.5183 12.4202 15.517 12.4648 15.5132 12.5133 ZM23.2435 7.99292 L17.4063 7.99292 C17.3608 7.99642 17.3184 8.01682 17.2872 8.05009 C17.2561 8.08336 17.2385 8.12709 17.238 8.17267 L17.238 9.35439 C17.239 9.39872 17.257 9.44095 17.2884 9.4723 C17.3197 9.50365 17.362 9.52169 17.4063 9.52267 L19.46 9.52267 L19.46 15.6824 C19.4586 15.7043 19.4616 15.7262 19.4689 15.7468 C19.4761 15.7675 19.4875 15.7865 19.5022 15.8026 C19.517 15.8188 19.5348 15.8319 19.5547 15.841 C19.5746 15.8501 19.5962 15.8552 19.618 15.8558 L21.0203 15.8558 C21.0645 15.8545 21.1066 15.8364 21.1379 15.8051 C21.1692 15.7738 21.1873 15.7318 21.1886 15.6875 L21.1886 9.51884 L23.2423 9.51884 C23.285 9.51784 23.3256 9.49999 23.3552 9.46918 C23.3848 9.43838 23.401 9.39712 23.4003 9.35439 L23.4003 8.17267 C23.4025 8.12825 23.3874 8.08473 23.3581 8.05122 C23.3289 8.01771 23.2878 7.99682 23.2435 7.99292 ZM43.3418 8.1497 L41.9727 8.1497 C41.921 8.15569 41.8714 8.17412 41.8284 8.20343 C41.7853 8.23273 41.75 8.27204 41.7254 8.31797 L39.4805 13.0513 L37.2241 8.31415 C37.1999 8.26793 37.1647 8.2284 37.1215 8.19905 C37.0784 8.1697 37.0287 8.15144 36.9768 8.14587 L35.5962 8.14587 C35.5532 8.14754 35.5125 8.16616 35.4831 8.19769 C35.4538 8.22921 35.438 8.27108 35.4394 8.31415 L35.4394 15.8558 C35.4389 15.8765 35.4426 15.8972 35.4503 15.9164 C35.458 15.9357 35.4695 15.9532 35.4842 15.9678 C35.4988 15.9825 35.5163 15.994 35.5356 16.0017 C35.5549 16.0094 35.5755 16.0131 35.5962 16.0126 L36.9985 16.0126 C37.0199 16.0134 37.0413 16.0101 37.0614 16.0026 C37.0816 15.9952 37.1 15.9839 37.1158 15.9693 C37.1315 15.9548 37.1442 15.9373 37.1532 15.9178 C37.1622 15.8983 37.1672 15.8772 37.168 15.8558 L37.168 12.0569 L39.1554 15.9297 C39.1787 15.9744 39.2121 16.013 39.2531 16.0422 C39.2941 16.0715 39.3415 16.0906 39.3913 16.098 L39.5595 16.098 C39.6107 16.0907 39.6595 16.0718 39.7022 16.0426 C39.7449 16.0134 39.7802 15.9748 39.8056 15.9297 L41.7713 12.0786 L41.7713 15.8558 C41.772 15.8772 41.7768 15.8982 41.7857 15.9177 C41.7945 15.9372 41.8071 15.9547 41.8227 15.9693 C41.8384 15.9838 41.8568 15.9952 41.8768 16.0026 C41.8969 16.0101 41.9182 16.0134 41.9396 16.0126 L43.3418 16.0126 C43.3627 16.0133 43.3834 16.0097 43.4028 16.0021 C43.4223 15.9945 43.4399 15.983 43.4547 15.9683 C43.4695 15.9536 43.4812 15.9361 43.4889 15.9167 C43.4967 15.8974 43.5004 15.8766 43.4999 15.8558 L43.4999 8.31797 C43.5006 8.29654 43.497 8.27518 43.4895 8.25513 C43.4819 8.23507 43.4704 8.2167 43.4557 8.20107 C43.4411 8.18545 43.4234 8.17286 43.4039 8.16405 C43.3844 8.15523 43.3633 8.15036 43.3418 8.1497 ZM10.9061 7.99287 L9.54721 7.99287 C9.49688 7.99868 9.44884 8.01717 9.4076 8.0466 C9.36635 8.07603 9.33324 8.11544 9.31137 8.16114 L7.29083 12.9097 L5.25117 8.16114 C5.23078 8.11436 5.19808 8.074 5.15654 8.04437 C5.115 8.01473 5.0662 7.99693 5.01534 7.99287 L3.66533 7.99287 C3.63724 7.99204 3.60942 7.9986 3.58466 8.0119 C3.55989 8.02519 3.53905 8.04475 3.52421 8.06862 C3.50937 8.09249 3.50105 8.11984 3.50009 8.14793 C3.49913 8.17602 3.50556 8.20387 3.51873 8.2287 L6.79749 15.7283 C6.83063 15.8188 6.86378 15.8558 6.95429 15.8558 L7.6159 15.8558 C7.65026 15.8543 7.68345 15.8429 7.7115 15.823 C7.73954 15.8031 7.76124 15.7755 7.77398 15.7436 L11.0515 8.2287 C11.0628 8.20379 11.0678 8.17648 11.066 8.14917 C11.0643 8.12187 11.0559 8.09541 11.0415 8.07212 C11.0272 8.04883 11.0073 8.02942 10.9837 8.0156 C10.9601 8.00178 10.9335 7.99397 10.9061 7.99287 ZM33.4189 8.14966 L32.0166 8.14966 C31.9724 8.15094 31.9303 8.16908 31.899 8.20036 C31.8678 8.23165 31.8496 8.27371 31.8483 8.31793 L31.8483 15.8392 C31.8493 15.8835 31.8674 15.9257 31.8987 15.9571 C31.9301 15.9884 31.9723 16.0065 32.0166 16.0075 L33.4189 16.0075 C33.4619 16.0058 33.5026 15.9872 33.532 15.9556 C33.5613 15.9241 33.5771 15.8822 33.5757 15.8392 L33.5757 8.31793 C33.5771 8.27486 33.5613 8.233 33.532 8.20147 C33.5026 8.16995 33.4619 8.15132 33.4189 8.14966 ZM27.5051 11.2665 C26.4394 11.0523 26.0009 10.8165 26.0009 10.3563 C26.0009 9.91906 26.5172 9.67175 27.3254 9.67175 C27.977 9.65322 28.6165 9.8504 29.1445 10.2327 C29.1772 10.2538 29.2161 10.2632 29.2548 10.2593 C29.2935 10.2553 29.3297 10.2383 29.3574 10.211 L30.2332 9.29059 C30.2497 9.27415 30.2627 9.25443 30.2711 9.23269 C30.2796 9.21096 30.2834 9.18769 30.2823 9.16439 C30.2812 9.14109 30.2753 9.11828 30.2648 9.09742 C30.2544 9.07656 30.2397 9.05812 30.2217 9.04328 C29.6391 8.58308 28.7736 8.06679 27.2591 8.06679 C25.0805 8.06042 24.2787 9.49711 24.2787 10.4736 C24.2787 11.5623 24.9632 12.4266 27.1979 12.8651 C28.2981 13.078 28.6678 13.2475 28.6678 13.695 C28.6678 14.3018 27.8034 14.493 27.3318 14.493 C26.2316 14.493 25.6478 14.0659 25.4349 13.8977 C25.4014 13.8747 25.3613 13.8633 25.3208 13.8654 C25.2802 13.8675 25.2415 13.8829 25.2105 13.9091 L24.3347 14.8015 C24.3077 14.8326 24.2927 14.8724 24.2927 14.9137 C24.2927 14.9549 24.3077 14.9948 24.3347 15.0259 C25.1315 15.8239 26.1424 16.0929 27.3216 16.0929 C29.6162 16.098 30.3976 14.6829 30.3976 13.695 C30.3976 12.359 29.5372 11.6298 27.5051 11.2665 Z" />
	<path fill="#ff8040" theme:fill="fg2" stroke="none" d="M47 0 L48 0 L48 22 L47 22 ZM0 22 L48 22 L48 23 L0 23 Z" />
	<path fill="#000000" theme:fill="bg1" stroke="none" d="M0 23 L48 23 L48 24 L0 24 Z" />
</svg>
