<svg width="24" height="24" viewBox="0 0 24 24" xmlns="http://www.w3.org/2000/svg" xmlns:theme="http://19wintersp.github.io/custom-euroscope/theme">
	<path fill="#4b4b4b" theme:fill="bg4" stroke="none" d="M0 0 L1 0 L1 22 L0 22 Z" />
	<path fill="#6d6d6d" theme:fill="bg5" stroke="none" d="M1 0 L23 0 L23 1 L1 1 Z" />
	<path fill="#262626" theme:fill="bg3" stroke="none" d="M1 1 L23 1 L23 2 L1 2 ZM1 2 L23 2 L23 22 L1 22 Z" />
	<path fill="#ffffff" theme:fill="fg1" stroke="none" d="M6.51562 9.63778 C6.47775 9.30161 6.3215 9.04119 6.04688 8.85653 C5.77225 8.66951 5.42661 8.57599 5.00994 8.57599 C4.71165 8.57599 4.4536 8.62334 4.2358 8.71804 C4.01799 8.81037 3.84872 8.93821 3.72798 9.10156 C3.60961 9.26255 3.55043 9.44602 3.55043 9.65199 C3.55043 9.82481 3.59067 9.97396 3.67116 10.0994 C3.75402 10.2249 3.86174 10.3303 3.99432 10.4155 C4.12926 10.4983 4.27367 10.5682 4.42756 10.625 C4.58144 10.6795 4.7294 10.7244 4.87145 10.7599 L5.58168 10.9446 C5.81368 11.0014 6.05161 11.0784 6.29545 11.1754 C6.5393 11.2725 6.76539 11.4003 6.97372 11.5589 C7.18206 11.7176 7.35014 11.9141 7.47798 12.1484 C7.60819 12.3828 7.6733 12.6634 7.6733 12.9901 C7.6733 13.402 7.56676 13.7678 7.35369 14.0874 C7.14299 14.407 6.83641 14.6591 6.43395 14.8438 C6.03385 15.0284 5.54972 15.1207 4.98153 15.1207 C4.43703 15.1207 3.96591 15.0343 3.56818 14.8615 C3.17045 14.6887 2.85914 14.4437 2.63423 14.1264 C2.40933 13.8068 2.28504 13.428 2.26136 12.9901 L3.36222 12.9901 C3.38352 13.2528 3.46875 13.4718 3.6179 13.647 C3.76941 13.8198 3.96236 13.9489 4.19673 14.0341 C4.43348 14.117 4.69271 14.1584 4.97443 14.1584 C5.28456 14.1584 5.56037 14.1098 5.80185 14.0128 C6.04569 13.9134 6.23745 13.776 6.37713 13.6009 C6.51681 13.4233 6.58665 13.2161 6.58665 12.9794 C6.58665 12.764 6.52509 12.5876 6.40199 12.4503 C6.28125 12.313 6.11671 12.1993 5.90838 12.1094 C5.70241 12.0194 5.46922 11.9401 5.20881 11.8714 L4.34943 11.6371 C3.76705 11.4785 3.3054 11.2453 2.96449 10.9375 C2.62595 10.6297 2.45668 10.2225 2.45668 9.71591 C2.45668 9.29687 2.57031 8.93111 2.79759 8.61861 C3.02486 8.30611 3.33262 8.06345 3.72088 7.89062 C4.10914 7.71544 4.54711 7.62784 5.0348 7.62784 C5.52723 7.62784 5.96165 7.71425 6.33807 7.88707 C6.71686 8.0599 7.01515 8.29782 7.23295 8.60085 C7.45076 8.90151 7.56439 9.24716 7.57386 9.63778 L6.51562 9.63778 ZM15.025 10.0923 L13.9171 10.0923 C13.8745 9.85559 13.7952 9.64725 13.6792 9.46733 C13.5632 9.28741 13.4211 9.13471 13.253 9.00923 C13.0849 8.88376 12.8967 8.78906 12.6884 8.72514 C12.4824 8.66122 12.2634 8.62926 12.0314 8.62926 C11.6124 8.62926 11.2372 8.73461 10.9057 8.94531 C10.5766 9.15601 10.3162 9.46496 10.1245 9.87216 C9.93507 10.2794 9.84038 10.7765 9.84038 11.3636 C9.84038 11.9555 9.93507 12.455 10.1245 12.8622 C10.3162 13.2694 10.5778 13.5772 10.9093 13.7855 C11.2407 13.9938 11.6136 14.098 12.0279 14.098 C12.2575 14.098 12.4753 14.0672 12.6813 14.0057 C12.8896 13.9418 13.0778 13.8482 13.2459 13.7251 C13.414 13.602 13.556 13.4517 13.6721 13.2741 C13.7904 13.0942 13.8721 12.8883 13.9171 12.6562 L15.025 12.6598 C14.9659 13.0173 14.851 13.3464 14.6806 13.647 C14.5125 13.9453 14.2959 14.2034 14.0307 14.4212 C13.7679 14.6366 13.4673 14.8035 13.1287 14.9219 C12.7902 15.0402 12.4209 15.0994 12.0208 15.0994 C11.391 15.0994 10.83 14.9503 10.3375 14.652 C9.84511 14.3513 9.45685 13.9216 9.17276 13.3629 C8.89104 12.8042 8.75018 12.1378 8.75018 11.3636 C8.75018 10.5871 8.89222 9.92069 9.17631 9.36435 C9.4604 8.80563 9.84866 8.37713 10.3411 8.07884 C10.8335 7.77817 11.3934 7.62784 12.0208 7.62784 C12.4067 7.62784 12.7665 7.68348 13.1003 7.79474 C13.4365 7.90365 13.7383 8.06463 14.0059 8.2777 C14.2734 8.4884 14.4947 8.74645 14.6699 9.05185 C14.8451 9.35488 14.9635 9.7017 15.025 10.0923 ZM15.9794 8.67188 L15.9794 7.72727 L21.608 7.72727 L21.608 8.67188 L19.3388 8.67188 L19.3388 15 L18.245 15 L18.245 8.67188 L15.9794 8.67188 Z" />
	<path fill="#131313" theme:fill="bg2" stroke="none" d="M23 0 L24 0 L24 22 L23 22 ZM0 22 L24 22 L24 23 L0 23 Z" />
	<path fill="#000000" theme:fill="bg1" stroke="none" d="M0 23 L24 23 L24 24 L0 24 Z" />
</svg>
