<svg width="24" height="24" viewBox="0 0 24 24" xmlns="http://www.w3.org/2000/svg" xmlns:theme="http://19wintersp.github.io/custom-euroscope/theme">
	<path fill="#4b4b4b" theme:fill="bg4" stroke="none" d="M0 0 L1 0 L1 22 L0 22 Z" />
	<path fill="#6d6d6d" theme:fill="bg5" stroke="none" d="M1 0 L23 0 L23 1 L1 1 Z" />
	<path fill="#262626" theme:fill="bg3" stroke="none" d="M1 1 L23 1 L23 2 L1 2 ZM1 2 L23 2 L23 22 L1 22 Z" />
	<path fill="#ffffff" theme:fill="fg1" fill-rule="evenodd" stroke="none" d="M12 8.09546 L16.4673 19.822 L15.5328 20.178 L14.3221 17 L9.67793 17 L8.46726 20.178 L7.53278 19.822 L12 8.09546 ZM10.0589 16 L13.9412 16 L12 10.9045 L10.0589 16 Z" />
	<path fill="#ffffff" theme:fill="fg1" opacity="0.5" fill-rule="evenodd" stroke="none" d="M16.7631 11.75 C18.2819 9.1194 17.3806 5.75566 14.75 4.23687 L15.25 3.37085 C18.3589 5.16578 19.4241 9.14111 17.6292 12.25 L16.7631 11.75 ZM9.24999 4.23689 C6.61938 5.75567 5.71806 9.11942 7.23685 11.75 L6.37082 12.25 C4.5759 9.14113 5.64108 5.16579 8.74999 3.37087 L9.24999 4.23689 ZM15.0311 10.75 C15.9976 9.07599 15.424 6.93542 13.75 5.96893 L14.25 5.1029 C16.4023 6.34554 17.1398 9.0977 15.8971 11.25 L15.0311 10.75 ZM10.25 5.96894 C8.57596 6.93544 8.0024 9.07601 8.9689 10.75 L8.10287 11.25 C6.86023 9.09771 7.59767 6.34556 9.74999 5.10292 L10.25 5.96894 ZM13.299 9.75001 C13.7133 9.03258 13.4674 8.11519 12.75 7.70098 L13.25 6.83495 C14.4457 7.52531 14.8554 9.05428 14.1651 10.25 L13.299 9.75001 ZM11.25 7.70099 C10.5325 8.11521 10.2867 9.03259 10.7009 9.75003 L9.83492 10.25 C9.14457 9.0543 9.55426 7.52532 10.75 6.83497 L11.25 7.70099 Z" />
	<path fill="#131313" theme:fill="bg2" stroke="none" d="M23 0 L24 0 L24 22 L23 22 ZM0 22 L24 22 L24 23 L0 23 Z" />
	<path fill="#000000" theme:fill="bg1" stroke="none" d="M0 23 L24 23 L24 24 L0 24 Z" />
</svg>
