<svg width="24" height="24" viewBox="0 0 24 24" xmlns="http://www.w3.org/2000/svg" xmlns:theme="http://19wintersp.github.io/custom-euroscope/theme">
	<path fill="#4b4b4b" theme:fill="bg4" stroke="none" d="M0 0 L1 0 L1 22 L0 22 Z" />
	<path fill="#6d6d6d" theme:fill="bg5" stroke="none" d="M1 0 L23 0 L23 1 L1 1 Z" />
	<path fill="#262626" theme:fill="bg3" stroke="none" d="M1 1 L23 1 L23 2 L1 2 ZM1 2 L23 2 L23 22 L1 22 Z" />
	<path fill="#ffffff" theme:fill="fg1" stroke="none" d="M7.2358 5.28125 C7.20928 5.03314 7.09754 4.83996 6.90057 4.7017 C6.70549 4.56345 6.4517 4.49432 6.1392 4.49432 C5.91951 4.49432 5.73106 4.52746 5.57386 4.59375 C5.41667 4.66004 5.2964 4.75 5.21307 4.86364 C5.12973 4.97727 5.08712 5.10701 5.08523 5.25284 C5.08523 5.37405 5.11269 5.47917 5.16761 5.56818 C5.22443 5.6572 5.30114 5.73295 5.39773 5.79545 C5.49432 5.85606 5.60133 5.9072 5.71875 5.94886 C5.83617 5.99053 5.95455 6.02557 6.07386 6.05398 L6.61932 6.19034 C6.83902 6.24148 7.05019 6.31061 7.25284 6.39773 C7.45739 6.48485 7.64015 6.5947 7.80114 6.72727 C7.96402 6.85985 8.0928 7.01989 8.1875 7.20739 C8.2822 7.39489 8.32955 7.61458 8.32955 7.86648 C8.32955 8.20739 8.24242 8.50758 8.06818 8.76705 C7.89394 9.02462 7.64205 9.22633 7.3125 9.37216 C6.98485 9.5161 6.58807 9.58807 6.12216 9.58807 C5.66951 9.58807 5.27652 9.51799 4.94318 9.37784 C4.61174 9.23769 4.35227 9.03314 4.16477 8.7642 C3.97917 8.49527 3.87879 8.16761 3.86364 7.78125 L4.90057 7.78125 C4.91572 7.9839 4.97822 8.15246 5.08807 8.28693 C5.19792 8.4214 5.34091 8.52178 5.51705 8.58807 C5.69508 8.65436 5.89394 8.6875 6.11364 8.6875 C6.3428 8.6875 6.54356 8.65341 6.71591 8.58523 C6.89015 8.51515 7.02652 8.41856 7.125 8.29545 C7.22348 8.17045 7.27367 8.02462 7.27557 7.85795 C7.27367 7.70644 7.22917 7.58144 7.14205 7.48295 C7.05492 7.38258 6.93277 7.29924 6.77557 7.23295 C6.62027 7.16477 6.43845 7.10417 6.23011 7.05114 L5.56818 6.88068 C5.08902 6.75758 4.71023 6.57102 4.43182 6.32102 C4.1553 6.06913 4.01705 5.73485 4.01705 5.31818 C4.01705 4.97538 4.10985 4.67519 4.29545 4.41761 C4.48295 4.16004 4.73769 3.96023 5.05966 3.81818 C5.38163 3.67424 5.74621 3.60227 6.15341 3.60227 C6.56629 3.60227 6.92803 3.67424 7.23864 3.81818 C7.55114 3.96023 7.7964 4.15814 7.97443 4.41193 C8.15246 4.66383 8.24432 4.9536 8.25 5.28125 L7.2358 5.28125 ZM9.26918 9.5 L9.26918 3.68182 L11.4964 3.68182 C11.9169 3.68182 12.2663 3.74811 12.5447 3.88068 C12.825 4.01136 13.0343 4.19034 13.1726 4.41761 C13.3127 4.64489 13.3828 4.90246 13.3828 5.19034 C13.3828 5.42708 13.3374 5.62973 13.2464 5.7983 C13.1555 5.96496 13.0334 6.10038 12.88 6.20455 C12.7266 6.30871 12.5552 6.38352 12.3658 6.42898 L12.3658 6.4858 C12.5722 6.49716 12.7701 6.56061 12.9595 6.67614 C13.1508 6.78977 13.3071 6.95076 13.4283 7.15909 C13.5495 7.36742 13.6101 7.61932 13.6101 7.91477 C13.6101 8.21591 13.5372 8.48674 13.3913 8.72727 C13.2455 8.96591 13.0258 9.15436 12.7322 9.29261 C12.4387 9.43087 12.0694 9.5 11.6243 9.5 L9.26918 9.5 ZM10.3232 8.61932 L11.4567 8.61932 C11.8393 8.61932 12.1148 8.5464 12.2834 8.40057 C12.4538 8.25284 12.5391 8.06345 12.5391 7.83239 C12.5391 7.66004 12.4964 7.50473 12.4112 7.36648 C12.326 7.22633 12.2048 7.11648 12.0476 7.03693 C11.8904 6.95549 11.7029 6.91477 11.4851 6.91477 L10.3232 6.91477 L10.3232 8.61932 ZM10.3232 6.15625 L11.3658 6.15625 C11.5476 6.15625 11.7114 6.12311 11.8572 6.05682 C12.0031 5.98864 12.1177 5.89299 12.201 5.76989 C12.2862 5.64489 12.3288 5.49716 12.3288 5.3267 C12.3288 5.10133 12.2493 4.91572 12.0902 4.76989 C11.933 4.62405 11.6991 4.55114 11.3885 4.55114 L10.3232 4.55114 L10.3232 6.15625 ZM14.1293 3.68182 L15.3196 3.68182 L16.7429 6.25568 L16.7997 6.25568 L18.223 3.68182 L19.4134 3.68182 L17.2969 7.32955 L17.2969 9.5 L16.2457 9.5 L16.2457 7.32955 L14.1293 3.68182 ZM13.5 16 C13.5 16.828426 12.828427 17.5 12 17.5 C11.171573 17.5 10.5 16.828426 10.5 16 C10.5 15.171573 11.171573 14.5 12 14.5 C12.828427 14.5 13.5 15.171573 13.5 16 Z" />
	<path fill="#131313" theme:fill="bg2" stroke="none" d="M23 0 L24 0 L24 22 L23 22 ZM0 22 L24 22 L24 23 L0 23 Z" />
	<path fill="#000000" theme:fill="bg1" stroke="none" d="M0 23 L24 23 L24 24 L0 24 Z" />
</svg>
