<svg width="24" height="24" viewBox="0 0 24 24" xmlns="http://www.w3.org/2000/svg" xmlns:theme="http://19wintersp.github.io/custom-euroscope/theme">
	<path fill="#4b4b4b" theme:fill="bg4" stroke="none" d="M0 0 L1 0 L1 22 L0 22 Z" />
	<path fill="#6d6d6d" theme:fill="bg5" stroke="none" d="M1 0 L23 0 L23 1 L1 1 Z" />
	<path fill="#262626" theme:fill="bg3" stroke="none" d="M1 1 L23 1 L23 2 L1 2 ZM1 2 L23 2 L23 22 L1 22 Z" />
	<path fill="#ffffff" theme:fill="fg1" stroke="none" d="M8.7358 5.28125 C8.70928 5.03314 8.59754 4.83996 8.40057 4.7017 C8.20549 4.56345 7.9517 4.49432 7.6392 4.49432 C7.41951 4.49432 7.23106 4.52746 7.07386 4.59375 C6.91667 4.66004 6.7964 4.75 6.71307 4.86364 C6.62973 4.97727 6.58712 5.10701 6.58523 5.25284 C6.58523 5.37405 6.61269 5.47917 6.66761 5.56818 C6.72443 5.6572 6.80114 5.73295 6.89773 5.79545 C6.99432 5.85606 7.10133 5.9072 7.21875 5.94886 C7.33617 5.99053 7.45455 6.02557 7.57386 6.05398 L8.11932 6.19034 C8.33902 6.24148 8.55019 6.31061 8.75284 6.39773 C8.95739 6.48485 9.14015 6.5947 9.30114 6.72727 C9.46402 6.85985 9.5928 7.01989 9.6875 7.20739 C9.7822 7.39489 9.82955 7.61458 9.82955 7.86648 C9.82955 8.20739 9.74242 8.50758 9.56818 8.76705 C9.39394 9.02462 9.14205 9.22633 8.8125 9.37216 C8.48485 9.5161 8.08807 9.58807 7.62216 9.58807 C7.16951 9.58807 6.77652 9.51799 6.44318 9.37784 C6.11174 9.23769 5.85227 9.03314 5.66477 8.7642 C5.47917 8.49527 5.37879 8.16761 5.36364 7.78125 L6.40057 7.78125 C6.41572 7.9839 6.47822 8.15246 6.58807 8.28693 C6.69792 8.4214 6.84091 8.52178 7.01705 8.58807 C7.19508 8.65436 7.39394 8.6875 7.61364 8.6875 C7.8428 8.6875 8.04356 8.65341 8.21591 8.58523 C8.39015 8.51515 8.52652 8.41856 8.625 8.29545 C8.72348 8.17045 8.77367 8.02462 8.77557 7.85795 C8.77367 7.70644 8.72917 7.58144 8.64205 7.48295 C8.55492 7.38258 8.43277 7.29924 8.27557 7.23295 C8.12027 7.16477 7.93845 7.10417 7.73011 7.05114 L7.06818 6.88068 C6.58902 6.75758 6.21023 6.57102 5.93182 6.32102 C5.6553 6.06913 5.51705 5.73485 5.51705 5.31818 C5.51705 4.97538 5.60985 4.67519 5.79545 4.41761 C5.98295 4.16004 6.23769 3.96023 6.55966 3.81818 C6.88163 3.67424 7.24621 3.60227 7.65341 3.60227 C8.06629 3.60227 8.42803 3.67424 8.73864 3.81818 C9.05114 3.96023 9.2964 4.15814 9.47443 4.41193 C9.65246 4.66383 9.74432 4.9536 9.75 5.28125 L8.7358 5.28125 ZM11.2492 9.5 L11.2492 3.68182 L13.431 3.68182 C13.878 3.68182 14.253 3.76515 14.556 3.93182 C14.8609 4.09848 15.091 4.32765 15.2463 4.61932 C15.4035 4.90909 15.4821 5.23864 15.4821 5.60795 C15.4821 5.98106 15.4035 6.3125 15.2463 6.60227 C15.0891 6.89205 14.8571 7.12027 14.5503 7.28693 C14.2435 7.4517 13.8657 7.53409 13.4168 7.53409 L11.9708 7.53409 L11.9708 6.66761 L13.2747 6.66761 C13.5361 6.66761 13.7501 6.62216 13.9168 6.53125 C14.0835 6.44034 14.2066 6.31534 14.2861 6.15625 C14.3675 5.99716 14.4083 5.81439 14.4083 5.60795 C14.4083 5.40152 14.3675 5.2197 14.2861 5.0625 C14.2066 4.9053 14.0825 4.78314 13.9139 4.69602 C13.7473 4.60701 13.5323 4.5625 13.2691 4.5625 L12.3032 4.5625 L12.3032 9.5 L11.2492 9.5 ZM17.9316 3.68182 L17.9316 9.5 L16.8776 9.5 L16.8776 3.68182 L17.9316 3.68182 Z" />
	<path fill="#ffffff" theme:fill="fg1" fill-rule="evenodd" stroke="none" d="M12 14 L10 14 L10 16 L8 16 L8 17 L10 17 L10 19 L12 19 L12 21 L13 21 L13 19 L15 19 L15 17 L17 17 L17 16 L15 16 L15 14 L13 14 L13 12 L12 12 L12 14 ZM11 15 L11 18 L14 18 L14 15 L11 15 Z" />
	<path fill="#131313" theme:fill="bg2" stroke="none" d="M23 0 L24 0 L24 22 L23 22 ZM0 22 L24 22 L24 23 L0 23 Z" />
	<path fill="#000000" theme:fill="bg1" stroke="none" d="M0 23 L24 23 L24 24 L0 24 Z" />
</svg>
