<svg width="24" height="24" viewBox="0 0 24 24" xmlns="http://www.w3.org/2000/svg" xmlns:theme="http://19wintersp.github.io/custom-euroscope/theme">
	<path fill="#4b4b4b" theme:fill="bg4" stroke="none" d="M0 0 L1 0 L1 22 L0 22 Z" />
	<path fill="#6d6d6d" theme:fill="bg5" stroke="none" d="M1 0 L23 0 L23 1 L1 1 Z" />
	<path fill="#262626" theme:fill="bg3" stroke="none" d="M1 1 L23 1 L23 2 L1 2 ZM1 2 L23 2 L23 22 L1 22 Z" />
	<path fill="#ffffff" theme:fill="fg1" fill-rule="evenodd" stroke="none" d="M15 4 C10.8579 4 7.5 7.35786 7.5 11.5 C7.5 15.6421 10.8579 19 15 19 L17 19 L17 20 L15 20 C10.3056 20 6.5 16.1944 6.5 11.5 C6.5 6.80558 10.3056 3 15 3 L17 3 L17 4 L15 4 Z" />
	<path fill="#262626" theme:fill="bg3" fill-rule="evenodd" stroke="none" d="M13.5228 11.7605 L11.7863 1.91242 L14.7407 1.39148 L16.4772 11.2396 L13.5228 11.7605 Z" />
	<path fill="#ff8040" theme:fill="fg2" fill-rule="evenodd" stroke="none" d="M14.5076 11.5868 L12.7711 1.73871 L13.7559 1.56506 L15.4924 11.4131 L14.5076 11.5868 Z" />
	<path fill="#131313" theme:fill="bg2" stroke="none" d="M23 0 L24 0 L24 22 L23 22 ZM0 22 L24 22 L24 23 L0 23 Z" />
	<path fill="#000000" theme:fill="bg1" stroke="none" d="M0 23 L24 23 L24 24 L0 24 Z" />
</svg>
