<svg width="48" height="24" viewBox="0 0 48 24" xmlns="http://www.w3.org/2000/svg" xmlns:theme="http://19wintersp.github.io/custom-euroscope/theme">
	<path fill="#ff8040" theme:fill="fg2" stroke="none" d="M0 0 L1 0 L1 22 L0 22 ZM1 0 L47 0 L47 1 L1 1 Z" />
	<path fill="#4b4b4b" theme:fill="bg4" stroke="none" d="M1 1 L47 1 L47 2 L1 2 ZM1 2 L47 2 L47 22 L1 22 Z" />
	<path fill="#ffffff" theme:fill="fg1" stroke="none" d="M8.05398 11.1449 L6.99148 11.1449 C6.96117 10.9706 6.9053 10.8163 6.82386 10.6818 C6.74242 10.5455 6.6411 10.4299 6.51989 10.3352 C6.39867 10.2405 6.26042 10.1695 6.10511 10.1222 C5.9517 10.0729 5.78598 10.0483 5.60795 10.0483 C5.29167 10.0483 5.01136 10.1278 4.76705 10.2869 C4.52273 10.4441 4.33144 10.6752 4.19318 10.9801 C4.05492 11.2831 3.9858 11.6534 3.9858 12.0909 C3.9858 12.536 4.05492 12.911 4.19318 13.2159 C4.33333 13.5189 4.52462 13.7481 4.76705 13.9034 C5.01136 14.0568 5.29072 14.1335 5.60511 14.1335 C5.77936 14.1335 5.94223 14.1108 6.09375 14.0653 C6.24716 14.018 6.38447 13.9489 6.50568 13.858 C6.62879 13.767 6.73201 13.6553 6.81534 13.5227 C6.90057 13.3902 6.95928 13.2386 6.99148 13.0682 L8.05398 13.0739 C8.0142 13.3504 7.92803 13.6098 7.79545 13.8523 C7.66477 14.0947 7.49337 14.3087 7.28125 14.4943 C7.06913 14.678 6.82102 14.822 6.53693 14.9261 C6.25284 15.0284 5.9375 15.0795 5.59091 15.0795 C5.07955 15.0795 4.62311 14.9612 4.22159 14.7244 C3.82008 14.4877 3.50379 14.1458 3.27273 13.6989 C3.04167 13.2519 2.92614 12.7159 2.92614 12.0909 C2.92614 11.464 3.04261 10.928 3.27557 10.483 C3.50852 10.036 3.82576 9.69413 4.22727 9.45739 C4.62879 9.22064 5.08333 9.10227 5.59091 9.10227 C5.91477 9.10227 6.21591 9.14773 6.49432 9.23864 C6.77273 9.32955 7.02083 9.46307 7.23864 9.6392 C7.45644 9.81345 7.63542 10.0275 7.77557 10.2812 C7.91761 10.5331 8.01042 10.821 8.05398 11.1449 ZM10.8771 15.0852 C10.451 15.0852 10.0817 14.9915 9.76918 14.804 C9.45668 14.6165 9.21425 14.3542 9.0419 14.017 C8.87145 13.6799 8.78622 13.286 8.78622 12.8352 C8.78622 12.3845 8.87145 11.9896 9.0419 11.6506 C9.21425 11.3116 9.45668 11.0483 9.76918 10.8608 C10.0817 10.6733 10.451 10.5795 10.8771 10.5795 C11.3033 10.5795 11.6726 10.6733 11.9851 10.8608 C12.2976 11.0483 12.5391 11.3116 12.7095 11.6506 C12.8819 11.9896 12.968 12.3845 12.968 12.8352 C12.968 13.286 12.8819 13.6799 12.7095 14.017 C12.5391 14.3542 12.2976 14.6165 11.9851 14.804 C11.6726 14.9915 11.3033 15.0852 10.8771 15.0852 ZM10.8828 14.2614 C11.1139 14.2614 11.3071 14.1979 11.4624 14.071 C11.6177 13.9422 11.7332 13.7699 11.8089 13.554 C11.8866 13.3381 11.9254 13.0975 11.9254 12.8324 C11.9254 12.5653 11.8866 12.3239 11.8089 12.108 C11.7332 11.8902 11.6177 11.7169 11.4624 11.5881 C11.3071 11.4593 11.1139 11.3949 10.8828 11.3949 C10.6461 11.3949 10.4491 11.4593 10.2919 11.5881 C10.1366 11.7169 10.0201 11.8902 9.94247 12.108 C9.86671 12.3239 9.82884 12.5653 9.82884 12.8324 C9.82884 13.0975 9.86671 13.3381 9.94247 13.554 C10.0201 13.7699 10.1366 13.9422 10.2919 14.071 C10.4491 14.1979 10.6461 14.2614 10.8828 14.2614 ZM14.8693 12.4432 L14.8693 15 L13.8409 15 L13.8409 10.6364 L14.8239 10.6364 L14.8239 11.3778 L14.875 11.3778 C14.9754 11.1335 15.1354 10.9394 15.3551 10.7955 C15.5767 10.6515 15.8504 10.5795 16.1761 10.5795 C16.4773 10.5795 16.7396 10.6439 16.9631 10.7727 C17.1884 10.9015 17.3627 11.0881 17.4858 11.3324 C17.6108 11.5767 17.6723 11.8731 17.6705 12.2216 L17.6705 15 L16.642 15 L16.642 12.3807 C16.642 12.089 16.5663 11.8608 16.4148 11.696 C16.2652 11.5312 16.0578 11.4489 15.7926 11.4489 C15.6127 11.4489 15.4527 11.4886 15.3125 11.5682 C15.1742 11.6458 15.0653 11.7585 14.9858 11.9062 C14.9081 12.054 14.8693 12.233 14.8693 12.4432 ZM19.7443 12.4432 L19.7443 15 L18.7159 15 L18.7159 10.6364 L19.6989 10.6364 L19.6989 11.3778 L19.75 11.3778 C19.8504 11.1335 20.0104 10.9394 20.2301 10.7955 C20.4517 10.6515 20.7254 10.5795 21.0511 10.5795 C21.3523 10.5795 21.6146 10.6439 21.8381 10.7727 C22.0634 10.9015 22.2377 11.0881 22.3608 11.3324 C22.4858 11.5767 22.5473 11.8731 22.5455 12.2216 L22.5455 15 L21.517 15 L21.517 12.3807 C21.517 12.089 21.4413 11.8608 21.2898 11.696 C21.1402 11.5312 20.9328 11.4489 20.6676 11.4489 C20.4877 11.4489 20.3277 11.4886 20.1875 11.5682 C20.0492 11.6458 19.9403 11.7585 19.8608 11.9062 C19.7831 12.054 19.7443 12.233 19.7443 12.4432 ZM25.5227 15.0852 C25.0852 15.0852 24.7074 14.9943 24.3892 14.8125 C24.0729 14.6288 23.8295 14.3693 23.6591 14.0341 C23.4886 13.697 23.4034 13.3002 23.4034 12.8438 C23.4034 12.3949 23.4886 12.0009 23.6591 11.6619 C23.8314 11.321 24.072 11.0559 24.3807 10.8665 C24.6894 10.6752 25.0521 10.5795 25.4688 10.5795 C25.7377 10.5795 25.9915 10.6231 26.2301 10.7102 C26.4706 10.7955 26.6828 10.928 26.8665 11.108 C27.0521 11.2879 27.1979 11.517 27.304 11.7955 C27.41 12.072 27.4631 12.4015 27.4631 12.7841 L27.4631 13.0994 L23.8864 13.0994 L23.8864 12.4062 L26.4773 12.4062 C26.4754 12.2093 26.4328 12.0341 26.3494 11.8807 C26.2661 11.7254 26.1496 11.6032 26 11.5142 C25.8523 11.4252 25.6799 11.3807 25.483 11.3807 C25.2727 11.3807 25.0881 11.4318 24.929 11.5341 C24.7699 11.6345 24.6458 11.767 24.5568 11.9318 C24.4697 12.0947 24.4252 12.2737 24.4233 12.4688 L24.4233 13.0739 C24.4233 13.3277 24.4697 13.5455 24.5625 13.7273 C24.6553 13.9072 24.785 14.0455 24.9517 14.142 C25.1184 14.2367 25.3134 14.2841 25.5369 14.2841 C25.6866 14.2841 25.822 14.2633 25.9432 14.2216 C26.0644 14.178 26.1695 14.1146 26.2585 14.0312 C26.3475 13.9479 26.4148 13.8447 26.4602 13.7216 L27.4205 13.8295 C27.3598 14.0833 27.2443 14.3049 27.0739 14.4943 C26.9053 14.6818 26.6894 14.8277 26.4261 14.9318 C26.1629 15.0341 25.8617 15.0852 25.5227 15.0852 ZM30.2365 15.0852 C29.8009 15.0852 29.4268 14.9896 29.1143 14.7983 C28.8037 14.607 28.5642 14.3428 28.3956 14.0057 C28.2289 13.6667 28.1456 13.2765 28.1456 12.8352 C28.1456 12.392 28.2308 12.0009 28.4013 11.6619 C28.5717 11.321 28.8123 11.0559 29.1229 10.8665 C29.4354 10.6752 29.8047 10.5795 30.2308 10.5795 C30.585 10.5795 30.8984 10.6449 31.1712 10.7756 C31.4458 10.9044 31.6645 11.0871 31.8274 11.3239 C31.9903 11.5587 32.0831 11.8333 32.1058 12.1477 L31.1229 12.1477 C31.0831 11.9375 30.9884 11.7623 30.8388 11.6222 C30.6911 11.4801 30.4931 11.4091 30.245 11.4091 C30.0348 11.4091 29.8501 11.4659 29.6911 11.5795 C29.532 11.6913 29.4079 11.8523 29.3189 12.0625 C29.2318 12.2727 29.1882 12.5246 29.1882 12.8182 C29.1882 13.1155 29.2318 13.3712 29.3189 13.5852 C29.406 13.7973 29.5282 13.9612 29.6854 14.0767 C29.8445 14.1903 30.031 14.2472 30.245 14.2472 C30.3965 14.2472 30.532 14.2187 30.6513 14.1619 C30.7725 14.1032 30.8738 14.0189 30.9553 13.9091 C31.0367 13.7992 31.0926 13.6657 31.1229 13.5085 L32.1058 13.5085 C32.0812 13.8172 31.9903 14.0909 31.8331 14.3295 C31.6759 14.5663 31.4619 14.7519 31.1911 14.8864 C30.9202 15.0189 30.602 15.0852 30.2365 15.0852 ZM35.1293 10.6364 L35.1293 11.4318 L32.6207 11.4318 L32.6207 10.6364 L35.1293 10.6364 ZM33.2401 9.59091 L34.2685 9.59091 L34.2685 13.6875 C34.2685 13.8258 34.2893 13.9318 34.331 14.0057 C34.3745 14.0777 34.4313 14.1269 34.5014 14.1534 C34.5715 14.1799 34.6491 14.1932 34.7344 14.1932 C34.7988 14.1932 34.8575 14.1884 34.9105 14.179 C34.9654 14.1695 35.0071 14.161 35.0355 14.1534 L35.2088 14.9574 C35.1539 14.9763 35.0753 14.9972 34.973 15.0199 C34.8726 15.0426 34.7495 15.0559 34.6037 15.0597 C34.3461 15.0672 34.1141 15.0284 33.9077 14.9432 C33.7012 14.8561 33.5374 14.7216 33.4162 14.5398 C33.2969 14.358 33.2382 14.1307 33.2401 13.858 L33.2401 9.59091 ZM37.8743 15.0852 C37.4368 15.0852 37.0589 14.9943 36.7408 14.8125 C36.4245 14.6288 36.1811 14.3693 36.0107 14.0341 C35.8402 13.697 35.755 13.3002 35.755 12.8438 C35.755 12.3949 35.8402 12.0009 36.0107 11.6619 C36.183 11.321 36.4235 11.0559 36.7322 10.8665 C37.041 10.6752 37.4036 10.5795 37.8203 10.5795 C38.0893 10.5795 38.343 10.6231 38.5817 10.7102 C38.8222 10.7955 39.0343 10.928 39.218 11.108 C39.4036 11.2879 39.5495 11.517 39.6555 11.7955 C39.7616 12.072 39.8146 12.4015 39.8146 12.7841 L39.8146 13.0994 L36.2379 13.0994 L36.2379 12.4062 L38.8288 12.4062 C38.8269 12.2093 38.7843 12.0341 38.701 11.8807 C38.6177 11.7254 38.5012 11.6032 38.3516 11.5142 C38.2038 11.4252 38.0315 11.3807 37.8345 11.3807 C37.6243 11.3807 37.4396 11.4318 37.2805 11.5341 C37.1214 11.6345 36.9974 11.767 36.9084 11.9318 C36.8213 12.0947 36.7768 12.2737 36.7749 12.4688 L36.7749 13.0739 C36.7749 13.3277 36.8213 13.5455 36.9141 13.7273 C37.0069 13.9072 37.1366 14.0455 37.3033 14.142 C37.4699 14.2367 37.665 14.2841 37.8885 14.2841 C38.0381 14.2841 38.1735 14.2633 38.2947 14.2216 C38.416 14.178 38.5211 14.1146 38.6101 14.0312 C38.6991 13.9479 38.7663 13.8447 38.8118 13.7216 L39.772 13.8295 C39.7114 14.0833 39.5959 14.3049 39.4254 14.4943 C39.2569 14.6818 39.041 14.8277 38.7777 14.9318 C38.5144 15.0341 38.2133 15.0852 37.8743 15.0852 ZM42.304 15.0767 C41.9612 15.0767 41.6544 14.9886 41.3835 14.8125 C41.1127 14.6364 40.8987 14.3807 40.7415 14.0455 C40.5843 13.7102 40.5057 13.303 40.5057 12.8239 C40.5057 12.339 40.5852 11.9299 40.7443 11.5966 C40.9053 11.2614 41.1222 11.0085 41.3949 10.8381 C41.6676 10.6657 41.9716 10.5795 42.3068 10.5795 C42.5625 10.5795 42.7727 10.6231 42.9375 10.7102 C43.1023 10.7955 43.233 10.8987 43.3295 11.0199 C43.4261 11.1392 43.5009 11.2519 43.554 11.358 L43.5966 11.358 L43.5966 9.18182 L44.6278 9.18182 L44.6278 15 L43.6165 15 L43.6165 14.3125 L43.554 14.3125 C43.5009 14.4186 43.4242 14.5312 43.3239 14.6506 C43.2235 14.768 43.0909 14.8684 42.9261 14.9517 C42.7614 15.035 42.554 15.0767 42.304 15.0767 ZM42.5909 14.233 C42.8087 14.233 42.9943 14.1742 43.1477 14.0568 C43.3011 13.9375 43.4176 13.7718 43.4972 13.5597 C43.5767 13.3475 43.6165 13.1004 43.6165 12.8182 C43.6165 12.536 43.5767 12.2907 43.4972 12.0824 C43.4195 11.8741 43.304 11.7121 43.1506 11.5966 C42.9991 11.4811 42.8125 11.4233 42.5909 11.4233 C42.3617 11.4233 42.1705 11.483 42.017 11.6023 C41.8636 11.7216 41.7481 11.8864 41.6705 12.0966 C41.5928 12.3068 41.554 12.5473 41.554 12.8182 C41.554 13.0909 41.5928 13.3343 41.6705 13.5483 C41.75 13.7604 41.8665 13.928 42.0199 14.0511 C42.1752 14.1723 42.3655 14.233 42.5909 14.233 Z" />
	<path fill="#ff8040" theme:fill="fg2" stroke="none" d="M47 0 L48 0 L48 22 L47 22 ZM0 22 L48 22 L48 23 L0 23 Z" />
	<path fill="#000000" theme:fill="bg1" stroke="none" d="M0 23 L48 23 L48 24 L0 24 Z" />
</svg>
