<svg width="24" height="24" viewBox="0 0 24 24" xmlns="http://www.w3.org/2000/svg" xmlns:theme="http://19wintersp.github.io/custom-euroscope/theme">
	<path fill="#4b4b4b" theme:fill="bg4" stroke="none" d="M0 0 L1 0 L1 22 L0 22 Z" />
	<path fill="#6d6d6d" theme:fill="bg5" stroke="none" d="M1 0 L23 0 L23 1 L1 1 Z" />
	<path fill="#262626" theme:fill="bg3" stroke="none" d="M1 1 L23 1 L23 2 L1 2 ZM1 2 L23 2 L23 22 L1 22 Z" />
	<path fill="#ff8040" theme:fill="fg2" fill-rule="evenodd" stroke="none" d="M17 2 L22 2 L22 7 L21 7 L21 3.70711 L17.1967 7.51041 C15.6026 9.10447 13.4406 10 11.1863 10 L10.8137 10 C8.55938 10 6.39737 9.10447 4.80331 7.51041 L2.14645 4.85355 L2.85356 4.14645 L5.51041 6.8033 C6.91694 8.20982 8.82459 9 10.8137 9 L11.1863 9 C13.1754 9 15.0831 8.20982 16.4896 6.8033 L20.2929 3 L17 3 L17 2 Z" />
	<path fill="#ffffff" theme:fill="fg1" stroke="none" d="M3.99796 14.1719 L3.99796 13.2273 L9.62651 13.2273 L9.62651 14.1719 L7.35733 14.1719 L7.35733 20.5 L6.26358 20.5 L6.26358 14.1719 L3.99796 14.1719 ZM12.7639 12.8864 L10.4202 21.5938 L9.47203 21.5938 L11.8158 12.8864 L12.7639 12.8864 ZM18.673 15.5249 C18.6044 15.3094 18.512 15.1165 18.396 14.946 C18.2824 14.7732 18.1463 14.6264 17.9877 14.5057 C17.829 14.3826 17.6479 14.2891 17.4443 14.2251 C17.2431 14.1612 17.0218 14.1293 16.7803 14.1293 C16.3707 14.1293 16.0014 14.2346 15.6723 14.4453 C15.3432 14.656 15.0828 14.965 14.8911 15.3722 C14.7017 15.777 14.607 16.273 14.607 16.8601 C14.607 17.4496 14.7029 17.9479 14.8946 18.3551 C15.0864 18.7623 15.3492 19.0713 15.683 19.282 C16.0168 19.4927 16.3968 19.598 16.8229 19.598 C17.2182 19.598 17.5627 19.5175 17.8563 19.3565 C18.1522 19.1955 18.3807 18.9683 18.5416 18.6747 C18.705 18.3788 18.7867 18.0308 18.7867 17.6307 L19.0708 17.6839 L16.9898 17.6839 L16.9898 16.7784 L19.8485 16.7784 L19.8485 17.6058 C19.8485 18.2166 19.7182 18.7469 19.4578 19.1967 C19.1998 19.6442 18.8423 19.9898 18.3854 20.2337 C17.9308 20.4775 17.41 20.5994 16.8229 20.5994 C16.1647 20.5994 15.5871 20.4479 15.0899 20.1449 C14.5951 19.8419 14.2093 19.4122 13.9323 18.8558 C13.6553 18.2971 13.5168 17.6342 13.5168 16.8672 C13.5168 16.2872 13.5973 15.7663 13.7583 15.3047 C13.9192 14.843 14.1453 14.4512 14.4365 14.1293 C14.7301 13.8049 15.0745 13.5575 15.4699 13.3871 C15.8676 13.2143 16.3021 13.1278 16.7732 13.1278 C17.1662 13.1278 17.5319 13.1858 17.8705 13.3018 C18.2114 13.4179 18.5144 13.5824 18.7796 13.7955 C19.0471 14.0085 19.2684 14.2618 19.4436 14.5554 C19.6188 14.8466 19.7372 15.1697 19.7987 15.5249 L18.673 15.5249 Z" />
	<path fill="#131313" theme:fill="bg2" stroke="none" d="M23 0 L24 0 L24 22 L23 22 ZM0 22 L24 22 L24 23 L0 23 Z" />
	<path fill="#000000" theme:fill="bg1" stroke="none" d="M0 23 L24 23 L24 24 L0 24 Z" />
</svg>
