<svg width="24" height="24" viewBox="0 0 24 24" xmlns="http://www.w3.org/2000/svg" xmlns:theme="http://19wintersp.github.io/custom-euroscope/theme">
	<path fill="#131313" theme:fill="bg2" stroke="none" d="M0 0 L1 0 L1 22 L0 22 ZM1 0 L23 0 L23 1 L1 1 Z" />
	<path fill="#4b4b4b" theme:fill="bg4" stroke="none" d="M1 1 L23 1 L23 2 L1 2 ZM1 2 L23 2 L23 22 L1 22 Z" />
	<path fill="#ff8040" theme:fill="fg2" fill-rule="evenodd" stroke="none" d="M17 2 L22 2 L22 7 L21 7 L21 3.70711 L17.1967 7.51041 C15.6026 9.10447 13.4406 10 11.1863 10 L10.8137 10 C8.55935 10 6.39734 9.10447 4.80328 7.51041 L2.14642 4.85355 L2.85353 4.14645 L5.51038 6.8033 C6.91691 8.20982 8.82456 9 10.8137 9 L11.1863 9 C13.1754 9 15.083 8.20982 16.4896 6.8033 L20.2929 3 L17 3 L17 2 Z" />
	<path fill="#ffffff" theme:fill="fg1" stroke="none" d="M5.67587 20.6207 C5.11479 20.6184 4.63539 20.4704 4.23766 20.1768 C3.83993 19.8833 3.53572 19.456 3.32502 18.8949 C3.11432 18.3338 3.00897 17.6579 3.00897 16.8672 C3.00897 16.0788 3.11432 15.4053 3.32502 14.8466 C3.53809 14.2879 3.84348 13.8617 4.24121 13.5682 C4.64131 13.2746 5.11953 13.1278 5.67587 13.1278 C6.23221 13.1278 6.70925 13.2758 7.10698 13.5717 C7.50471 13.8653 7.80892 14.2914 8.01962 14.8501 C8.23269 15.4065 8.33922 16.0788 8.33922 16.8672 C8.33922 17.6603 8.23387 18.3374 8.02317 18.8984 C7.81247 19.4571 7.50826 19.8845 7.11053 20.1804 C6.7128 20.474 6.23458 20.6207 5.67587 20.6207 ZM5.67587 19.6726 C6.16829 19.6726 6.553 19.4323 6.82999 18.9517 C7.10935 18.4711 7.24902 17.7763 7.24902 16.8672 C7.24902 16.2635 7.1851 15.7533 7.05726 15.3366 C6.93179 14.9176 6.75068 14.6004 6.51394 14.3849 C6.27956 14.1671 6.00021 14.0582 5.67587 14.0582 C5.18581 14.0582 4.80111 14.2997 4.52175 14.7827 C4.24239 15.2656 4.10153 15.9605 4.09917 16.8672 C4.09917 17.4732 4.1619 17.9858 4.28738 18.4048 C4.41522 18.8215 4.59632 19.1375 4.8307 19.353 C5.06507 19.5661 5.3468 19.6726 5.67587 19.6726 ZM11.9996 20.5994 C11.5545 20.5994 11.1544 20.5142 10.7993 20.3438 C10.4465 20.1709 10.1648 19.9342 9.9541 19.6335 C9.7434 19.3329 9.63095 18.9896 9.61674 18.6037 L10.6821 18.6037 C10.7081 18.9162 10.8466 19.1731 11.0976 19.3743 C11.3485 19.5755 11.6492 19.6761 11.9996 19.6761 C12.2789 19.6761 12.5263 19.6122 12.7417 19.4844 C12.9595 19.3542 13.13 19.1754 13.2531 18.9482 C13.3786 18.7209 13.4413 18.4616 13.4413 18.1705 C13.4413 17.8745 13.3774 17.6106 13.2496 17.3786 C13.1217 17.1465 12.9453 16.9643 12.7204 16.8317 C12.4979 16.6991 12.2422 16.6316 11.9534 16.6293 C11.7332 16.6293 11.5119 16.6671 11.2893 16.7429 C11.0668 16.8187 10.8869 16.9181 10.7496 17.0412 L9.74458 16.892 L10.153 13.2273 L14.1515 13.2273 L14.1515 14.1683 L11.0656 14.1683 L10.8348 16.2031 L10.8774 16.2031 C11.0194 16.0658 11.2077 15.951 11.442 15.8587 C11.6788 15.7663 11.9321 15.7202 12.202 15.7202 C12.6447 15.7202 13.0389 15.8255 13.3845 16.0362 C13.7325 16.2469 14.0059 16.5346 14.2048 16.8991 C14.406 17.2614 14.5055 17.678 14.5031 18.1491 C14.5055 18.6203 14.3989 19.0405 14.1835 19.4098 C13.9704 19.7791 13.6745 20.0703 13.2957 20.2834 C12.9193 20.4941 12.4872 20.5994 11.9996 20.5994 ZM18.3321 20.6207 C17.771 20.6184 17.2916 20.4704 16.8939 20.1768 C16.4962 19.8833 16.192 19.456 15.9813 18.8949 C15.7706 18.3338 15.6652 17.6579 15.6652 16.8672 C15.6652 16.0788 15.7706 15.4053 15.9813 14.8466 C16.1943 14.2879 16.4997 13.8617 16.8975 13.5682 C17.2976 13.2746 17.7758 13.1278 18.3321 13.1278 C18.8885 13.1278 19.3655 13.2758 19.7632 13.5717 C20.161 13.8653 20.4652 14.2914 20.6759 14.8501 C20.8889 15.4065 20.9955 16.0788 20.9955 16.8672 C20.9955 17.6603 20.8901 18.3374 20.6794 18.8984 C20.4687 19.4571 20.1645 19.8845 19.7668 20.1804 C19.3691 20.474 18.8908 20.6207 18.3321 20.6207 ZM18.3321 19.6726 C18.8245 19.6726 19.2093 19.4323 19.4862 18.9517 C19.7656 18.4711 19.9053 17.7763 19.9053 16.8672 C19.9053 16.2635 19.8414 15.7533 19.7135 15.3366 C19.588 14.9176 19.4069 14.6004 19.1702 14.3849 C18.9358 14.1671 18.6565 14.0582 18.3321 14.0582 C17.8421 14.0582 17.4574 14.2997 17.178 14.7827 C16.8986 15.2656 16.7578 15.9605 16.7554 16.8672 C16.7554 17.4732 16.8182 17.9858 16.9436 18.4048 C17.0715 18.8215 17.2526 19.1375 17.4869 19.353 C17.7213 19.5661 18.003 19.6726 18.3321 19.6726 Z" />
	<path fill="#131313" theme:fill="bg2" stroke="none" d="M23 0 L24 0 L24 22 L23 22 ZM0 22 L24 22 L24 23 L0 23 Z" />
	<path fill="#000000" theme:fill="bg1" stroke="none" d="M0 23 L24 23 L24 24 L0 24 Z" />
</svg>
