<svg width="24" height="24" viewBox="0 0 24 24" xmlns="http://www.w3.org/2000/svg" xmlns:theme="http://19wintersp.github.io/custom-euroscope/theme">
	<path fill="#4b4b4b" theme:fill="bg4" stroke="none" d="M0 0 L1 0 L1 22 L0 22 Z" />
	<path fill="#6d6d6d" theme:fill="bg5" stroke="none" d="M1 0 L23 0 L23 1 L1 1 Z" />
	<path fill="#262626" theme:fill="bg3" stroke="none" d="M1 1 L23 1 L23 2 L1 2 ZM1 2 L23 2 L23 22 L1 22 Z" />
	<path fill="#ffffff" theme:fill="fg1" stroke="none" d="M3.29901 15 L3.29901 7.72727 L4.39631 7.72727 L4.39631 14.0554 L7.69176 14.0554 L7.69176 15 L3.29901 15 ZM7.63761 8.67188 L7.63761 7.72727 L13.2662 7.72727 L13.2662 8.67188 L10.997 8.67188 L10.997 15 L9.90323 15 L9.90323 8.67188 L7.63761 8.67188 ZM19.1193 10.0249 C19.0507 9.80942 18.9583 9.61648 18.8423 9.44602 C18.7287 9.2732 18.5926 9.12642 18.4339 9.00568 C18.2753 8.88258 18.0942 8.78906 17.8906 8.72514 C17.6894 8.66122 17.468 8.62926 17.2266 8.62926 C16.817 8.62926 16.4477 8.73461 16.1186 8.94531 C15.7895 9.15601 15.5291 9.46496 15.3374 9.87216 C15.148 10.277 15.0533 10.773 15.0533 11.3601 C15.0533 11.9496 15.1491 12.4479 15.3409 12.8551 C15.5327 13.2623 15.7955 13.5713 16.1293 13.782 C16.4631 13.9927 16.843 14.098 17.2692 14.098 C17.6645 14.098 18.009 14.0175 18.3026 13.8565 C18.5985 13.6955 18.8269 13.4683 18.9879 13.1747 C19.1513 12.8788 19.233 12.5308 19.233 12.1307 L19.517 12.1839 L17.4361 12.1839 L17.4361 11.2784 L20.2947 11.2784 L20.2947 12.1058 C20.2947 12.7166 20.1645 13.2469 19.9041 13.6967 C19.6461 14.1442 19.2886 14.4898 18.8317 14.7337 C18.3771 14.9775 17.8563 15.0994 17.2692 15.0994 C16.611 15.0994 16.0334 14.9479 15.5362 14.6449 C15.0414 14.3419 14.6555 13.9122 14.3786 13.3558 C14.1016 12.7971 13.9631 12.1342 13.9631 11.3672 C13.9631 10.7872 14.0436 10.2663 14.2045 9.80469 C14.3655 9.34304 14.5916 8.95123 14.8828 8.62926 C15.1764 8.30492 15.5208 8.05753 15.9162 7.88707 C16.3139 7.71425 16.7483 7.62784 17.2195 7.62784 C17.6125 7.62784 17.9782 7.68584 18.3168 7.80185 C18.6577 7.91785 18.9607 8.08239 19.2259 8.29545 C19.4934 8.50852 19.7147 8.76184 19.8899 9.0554 C20.0651 9.34659 20.1835 9.66974 20.245 10.0249 L19.1193 10.0249 Z" />
	<path fill="#131313" theme:fill="bg2" stroke="none" d="M23 0 L24 0 L24 22 L23 22 ZM0 22 L24 22 L24 23 L0 23 Z" />
	<path fill="#000000" theme:fill="bg1" stroke="none" d="M0 23 L24 23 L24 24 L0 24 Z" />
</svg>
