<svg width="48" height="24" viewBox="0 0 48 24" xmlns="http://www.w3.org/2000/svg" xmlns:theme="http://19wintersp.github.io/custom-euroscope/theme">
	<path fill="#ff8040" theme:fill="fg2" stroke="none" d="M0 0 L1 0 L1 22 L0 22 ZM1 0 L47 0 L47 1 L1 1 Z" />
	<path fill="#4b4b4b" theme:fill="bg4" stroke="none" d="M1 1 L47 1 L47 2 L1 2 ZM1 2 L47 2 L47 22 L1 22 Z" />
	<path fill="#ffffff" theme:fill="fg1" stroke="none" d="M10.799 15.5 L10.799 8.22727 L13.3913 8.22727 C13.9571 8.22727 14.4259 8.33026 14.7976 8.53622 C15.1693 8.74219 15.4474 9.02391 15.6321 9.38139 C15.8168 9.73651 15.9091 10.1366 15.9091 10.5817 C15.9091 11.0291 15.8156 11.4316 15.6286 11.7891 C15.4439 12.1442 15.1645 12.4259 14.7905 12.6342 C14.4188 12.8402 13.9512 12.9432 13.3878 12.9432 L11.6051 12.9432 L11.6051 12.0128 L13.2884 12.0128 C13.6458 12.0128 13.9358 11.9512 14.1584 11.8281 C14.3809 11.7027 14.5443 11.5322 14.6484 11.3168 C14.7526 11.1013 14.8047 10.8563 14.8047 10.5817 C14.8047 10.3071 14.7526 10.0632 14.6484 9.85014 C14.5443 9.63707 14.3797 9.47017 14.1548 9.34943 C13.9323 9.22869 13.6387 9.16832 13.2741 9.16832 L11.8963 9.16832 L11.8963 15.5 L10.799 15.5 ZM17.1103 15.5 L17.1103 10.0455 L18.1365 10.0455 L18.1365 10.9119 L18.1934 10.9119 C18.2928 10.6184 18.468 10.3875 18.7189 10.2195 C18.9722 10.049 19.2587 9.96378 19.5783 9.96378 C19.6446 9.96378 19.7227 9.96615 19.8127 9.97088 C19.905 9.97562 19.9772 9.98153 20.0293 9.98864 L20.0293 11.0043 C19.9867 10.9924 19.9109 10.9794 19.802 10.9652 C19.6931 10.9486 19.5842 10.9403 19.4753 10.9403 C19.2244 10.9403 19.0007 10.9936 18.8042 11.1001 C18.61 11.2043 18.4561 11.3499 18.3425 11.5369 C18.2289 11.7216 18.1721 11.9323 18.1721 12.169 L18.1721 15.5 L17.1103 15.5 ZM23.0504 15.6101 C22.5391 15.6101 22.0928 15.4929 21.7116 15.2585 C21.3305 15.0241 21.0346 14.6963 20.8239 14.2749 C20.6132 13.8535 20.5078 13.361 20.5078 12.7976 C20.5078 12.2318 20.6132 11.737 20.8239 11.3132 C21.0346 10.8894 21.3305 10.5604 21.7116 10.326 C22.0928 10.0916 22.5391 9.97443 23.0504 9.97443 C23.5618 9.97443 24.008 10.0916 24.3892 10.326 C24.7704 10.5604 25.0663 10.8894 25.277 11.3132 C25.4877 11.737 25.593 12.2318 25.593 12.7976 C25.593 13.361 25.4877 13.8535 25.277 14.2749 C25.0663 14.6963 24.7704 15.0241 24.3892 15.2585 C24.008 15.4929 23.5618 15.6101 23.0504 15.6101 ZM23.054 14.7188 C23.3854 14.7188 23.66 14.6312 23.8778 14.456 C24.0956 14.2808 24.2566 14.0476 24.3608 13.7564 C24.4673 13.4652 24.5206 13.1444 24.5206 12.794 C24.5206 12.446 24.4673 12.1264 24.3608 11.8352 C24.2566 11.5417 24.0956 11.3061 23.8778 11.1286 C23.66 10.951 23.3854 10.8622 23.054 10.8622 C22.7202 10.8622 22.4432 10.951 22.223 11.1286 C22.0052 11.3061 21.843 11.5417 21.7365 11.8352 C21.6323 12.1264 21.5803 12.446 21.5803 12.794 C21.5803 13.1444 21.6323 13.4652 21.7365 13.7564 C21.843 14.0476 22.0052 14.2808 22.223 14.456 C22.4432 14.6312 22.7202 14.7188 23.054 14.7188 ZM27.4015 10.0455 L28.6053 12.169 L29.8198 10.0455 L30.981 10.0455 L29.28 12.7727 L30.9952 15.5 L29.834 15.5 L28.6053 13.4616 L27.3801 15.5 L26.2154 15.5 L27.9128 12.7727 L26.2367 10.0455 L27.4015 10.0455 ZM32.7424 17.5455 C32.5837 17.5455 32.4393 17.5324 32.3091 17.5064 C32.1789 17.4827 32.0819 17.4567 32.0179 17.4283 L32.2736 16.5582 C32.4677 16.6103 32.6406 16.6328 32.7921 16.6257 C32.9436 16.6186 33.0774 16.5618 33.1934 16.4553 C33.3117 16.3487 33.4159 16.1747 33.5059 15.9332 L33.6373 15.571 L31.6415 10.0455 L32.7779 10.0455 L34.1593 14.2784 L34.2161 14.2784 L35.5975 10.0455 L36.7374 10.0455 L34.4895 16.228 C34.3854 16.5121 34.2528 16.7524 34.0918 16.9489 C33.9308 17.1477 33.7391 17.2969 33.5165 17.3963 C33.294 17.4957 33.0359 17.5455 32.7424 17.5455 Z" />
	<path fill="#ff8040" theme:fill="fg2" stroke="none" d="M47 0 L48 0 L48 22 L47 22 ZM0 22 L48 22 L48 23 L0 23 Z" />
	<path fill="#000000" theme:fill="bg1" stroke="none" d="M0 23 L48 23 L48 24 L0 24 Z" />
</svg>
