<svg width="48" height="24" viewBox="0 0 48 24" xmlns="http://www.w3.org/2000/svg" xmlns:theme="http://19wintersp.github.io/custom-euroscope/theme">
	<path fill="#ff8040" theme:fill="fg2" stroke="none" d="M0 0 L1 0 L1 22 L0 22 ZM1 0 L47 0 L47 1 L1 1 Z" />
	<path fill="#4b4b4b" theme:fill="bg4" stroke="none" d="M1 1 L47 1 L47 2 L1 2 ZM1 2 L47 2 L47 22 L1 22 Z" />
	<path fill="#ffffff" theme:fill="fg1" stroke="none" d="M5.76562 10.1378 C5.72775 9.80161 5.5715 9.54119 5.29688 9.35653 C5.02225 9.16951 4.67661 9.07599 4.25994 9.07599 C3.96165 9.07599 3.7036 9.12334 3.4858 9.21804 C3.26799 9.31037 3.09872 9.43821 2.97798 9.60156 C2.85961 9.76255 2.80043 9.94602 2.80043 10.152 C2.80043 10.3248 2.84067 10.474 2.92116 10.5994 C3.00402 10.7249 3.11174 10.8303 3.24432 10.9155 C3.37926 10.9983 3.52367 11.0682 3.67756 11.125 C3.83144 11.1795 3.9794 11.2244 4.12145 11.2599 L4.83168 11.4446 C5.06368 11.5014 5.30161 11.5784 5.54545 11.6754 C5.7893 11.7725 6.01539 11.9003 6.22372 12.0589 C6.43206 12.2176 6.60014 12.4141 6.72798 12.6484 C6.85819 12.8828 6.9233 13.1634 6.9233 13.4901 C6.9233 13.902 6.81676 14.2678 6.60369 14.5874 C6.39299 14.907 6.08641 15.1591 5.68395 15.3438 C5.28385 15.5284 4.79972 15.6207 4.23153 15.6207 C3.68703 15.6207 3.21591 15.5343 2.81818 15.3615 C2.42045 15.1887 2.10914 14.9437 1.88423 14.6264 C1.65933 14.3068 1.53504 13.928 1.51136 13.4901 L2.61222 13.4901 C2.63352 13.7528 2.71875 13.9718 2.8679 14.147 C3.01941 14.3198 3.21236 14.4489 3.44673 14.5341 C3.68348 14.617 3.94271 14.6584 4.22443 14.6584 C4.53456 14.6584 4.81037 14.6098 5.05185 14.5128 C5.29569 14.4134 5.48745 14.276 5.62713 14.1009 C5.76681 13.9233 5.83665 13.7161 5.83665 13.4794 C5.83665 13.264 5.77509 13.0876 5.65199 12.9503 C5.53125 12.813 5.36671 12.6993 5.15838 12.6094 C4.95241 12.5194 4.71922 12.4401 4.45881 12.3714 L3.59943 12.1371 C3.01705 11.9785 2.5554 11.7453 2.21449 11.4375 C1.87595 11.1297 1.70668 10.7225 1.70668 10.2159 C1.70668 9.79687 1.82031 9.43111 2.04759 9.11861 C2.27486 8.80611 2.58262 8.56345 2.97088 8.39062 C3.35914 8.21544 3.79711 8.12784 4.2848 8.12784 C4.77723 8.12784 5.21165 8.21425 5.58807 8.38707 C5.96686 8.5599 6.26515 8.79782 6.48295 9.10085 C6.70076 9.40151 6.81439 9.74716 6.82386 10.1378 L5.76562 10.1378 ZM8.14933 15.5 L8.14933 10.0455 L9.21112 10.0455 L9.21112 15.5 L8.14933 15.5 ZM8.68555 9.20384 C8.50089 9.20384 8.34227 9.14228 8.20969 9.01918 C8.07949 8.8937 8.01438 8.74455 8.01438 8.57173 C8.01438 8.39654 8.07949 8.2474 8.20969 8.12429 C8.34227 7.99882 8.50089 7.93608 8.68555 7.93608 C8.87021 7.93608 9.02764 7.99882 9.15785 8.12429 C9.29042 8.2474 9.35671 8.39654 9.35671 8.57173 C9.35671 8.74455 9.29042 8.8937 9.15785 9.01918 C9.02764 9.14228 8.87021 9.20384 8.68555 9.20384 ZM10.6396 15.5 L10.6396 10.0455 L11.6587 10.0455 L11.6587 10.9332 L11.7262 10.9332 C11.8398 10.6326 12.0257 10.3982 12.2837 10.2301 C12.5418 10.0597 12.8507 9.97443 13.2106 9.97443 C13.5752 9.97443 13.8806 10.0597 14.1268 10.2301 C14.3754 10.4006 14.5588 10.6349 14.6772 10.9332 L14.734 10.9332 C14.8642 10.642 15.0714 10.41 15.3555 10.2372 C15.6396 10.062 15.9781 9.97443 16.3711 9.97443 C16.8659 9.97443 17.2695 10.1295 17.582 10.4396 C17.8969 10.7498 18.0543 11.2173 18.0543 11.8423 L18.0543 15.5 L16.9925 15.5 L16.9925 11.9418 C16.9925 11.5724 16.8919 11.3049 16.6907 11.1392 C16.4895 10.9735 16.2492 10.8906 15.9698 10.8906 C15.6242 10.8906 15.3555 10.9972 15.1637 11.2102 C14.9719 11.4209 14.8761 11.692 14.8761 12.0234 L14.8761 15.5 L13.8178 15.5 L13.8178 11.8743 C13.8178 11.5784 13.7255 11.3404 13.5408 11.1605 C13.3562 10.9806 13.1159 10.8906 12.82 10.8906 C12.6187 10.8906 12.4329 10.9439 12.2624 11.0504 C12.0943 11.1546 11.9582 11.3002 11.854 11.4872 C11.7522 11.6742 11.7013 11.8909 11.7013 12.1371 L11.7013 15.5 L10.6396 15.5 ZM22.9327 13.2379 L22.9327 10.0455 L23.998 10.0455 L23.998 15.5 L22.954 15.5 L22.954 14.5554 L22.8972 14.5554 C22.7717 14.8466 22.5705 15.0893 22.2935 15.2834 C22.0189 15.4751 21.6768 15.571 21.2672 15.571 C20.9168 15.571 20.6067 15.4941 20.3368 15.3402 C20.0693 15.1839 19.8586 14.9531 19.7047 14.6477 C19.5532 14.3423 19.4775 13.9647 19.4775 13.5149 L19.4775 10.0455 L20.5392 10.0455 L20.5392 13.3871 C20.5392 13.7588 20.6422 14.0547 20.8482 14.2749 C21.0542 14.495 21.3217 14.6051 21.6507 14.6051 C21.8496 14.6051 22.0473 14.5554 22.2438 14.456 C22.4426 14.3565 22.6072 14.2062 22.7374 14.005 C22.87 13.8037 22.9351 13.5481 22.9327 13.2379 ZM26.4865 8.22727 L26.4865 15.5 L25.4247 15.5 L25.4247 8.22727 L26.4865 8.22727 ZM29.5023 15.6207 C29.1567 15.6207 28.8442 15.5568 28.5648 15.429 C28.2855 15.2988 28.0641 15.1106 27.9007 14.8643 C27.7398 14.6181 27.6593 14.3163 27.6593 13.9588 C27.6593 13.651 27.7185 13.3977 27.8368 13.1989 C27.9552 13 28.115 12.8426 28.3162 12.7266 C28.5175 12.6106 28.7424 12.523 28.9909 12.4638 C29.2395 12.4046 29.4928 12.3596 29.7509 12.3288 C30.0776 12.291 30.3427 12.2602 30.5463 12.2365 C30.7499 12.2105 30.8979 12.169 30.9902 12.1122 C31.0826 12.0554 31.1287 11.9631 31.1287 11.8352 L31.1287 11.8104 C31.1287 11.5002 31.0411 11.2599 30.8659 11.0895 C30.6931 10.919 30.4351 10.8338 30.0918 10.8338 C29.7343 10.8338 29.4526 10.9131 29.2466 11.0717 C29.043 11.228 28.9022 11.402 28.824 11.5938 L27.8262 11.3665 C27.9445 11.035 28.1174 10.7675 28.3446 10.5639 C28.5743 10.358 28.8382 10.2088 29.1365 10.1165 C29.4348 10.0218 29.7485 9.97443 30.0776 9.97443 C30.2954 9.97443 30.5262 10.0005 30.7701 10.0526 C31.0163 10.1023 31.2459 10.1946 31.459 10.3295 C31.6744 10.4645 31.8508 10.6574 31.9881 10.9084 C32.1254 11.157 32.1941 11.4801 32.1941 11.8778 L32.1941 15.5 L31.1571 15.5 L31.1571 14.7543 L31.1145 14.7543 C31.0459 14.8916 30.9429 15.0265 30.8056 15.1591 C30.6683 15.2917 30.4919 15.4018 30.2765 15.4893 C30.061 15.5769 29.803 15.6207 29.5023 15.6207 ZM29.7331 14.7685 C30.0267 14.7685 30.2776 14.7105 30.486 14.5945 C30.6967 14.4785 30.8565 14.3269 30.9654 14.1399 C31.0766 13.9505 31.1323 13.7481 31.1323 13.5327 L31.1323 12.8295 C31.0944 12.8674 31.021 12.9029 30.9121 12.9361 C30.8056 12.9669 30.6837 12.9941 30.5463 13.0178 C30.409 13.0391 30.2753 13.0592 30.1451 13.0781 C30.0149 13.0947 29.906 13.1089 29.8184 13.1207 C29.6124 13.1468 29.4242 13.1906 29.2537 13.2521 C29.0856 13.3137 28.9507 13.4025 28.8489 13.5185 C28.7495 13.6321 28.6998 13.7836 28.6998 13.973 C28.6998 14.2358 28.7968 14.4347 28.9909 14.5696 C29.1851 14.7022 29.4325 14.7685 29.7331 14.7685 ZM36.1545 10.0455 L36.1545 10.8977 L33.1751 10.8977 L33.1751 10.0455 L36.1545 10.0455 ZM33.9741 8.73864 L35.0359 8.73864 L35.0359 13.8984 C35.0359 14.1044 35.0666 14.2595 35.1282 14.3636 C35.1897 14.4654 35.2691 14.5353 35.3661 14.5732 C35.4656 14.6087 35.5733 14.6264 35.6893 14.6264 C35.7745 14.6264 35.8491 14.6205 35.913 14.6087 C35.9769 14.5968 36.0266 14.5874 36.0621 14.5803 L36.2539 15.4574 C36.1924 15.4811 36.1048 15.5047 35.9911 15.5284 C35.8775 15.5545 35.7354 15.5687 35.565 15.571 C35.2856 15.5758 35.0252 15.526 34.7837 15.4219 C34.5423 15.3177 34.3469 15.1567 34.1978 14.9389 C34.0487 14.7211 33.9741 14.4477 33.9741 14.1186 L33.9741 8.73864 ZM39.568 15.6101 C39.0566 15.6101 38.6104 15.4929 38.2292 15.2585 C37.8481 15.0241 37.5521 14.6963 37.3414 14.2749 C37.1307 13.8535 37.0254 13.361 37.0254 12.7976 C37.0254 12.2318 37.1307 11.737 37.3414 11.3132 C37.5521 10.8894 37.8481 10.5604 38.2292 10.326 C38.6104 10.0916 39.0566 9.97443 39.568 9.97443 C40.0794 9.97443 40.5256 10.0916 40.9068 10.326 C41.2879 10.5604 41.5839 10.8894 41.7946 11.3132 C42.0053 11.737 42.1106 12.2318 42.1106 12.7976 C42.1106 13.361 42.0053 13.8535 41.7946 14.2749 C41.5839 14.6963 41.2879 15.0241 40.9068 15.2585 C40.5256 15.4929 40.0794 15.6101 39.568 15.6101 ZM39.5716 14.7188 C39.903 14.7188 40.1776 14.6312 40.3954 14.456 C40.6132 14.2808 40.7742 14.0476 40.8784 13.7564 C40.9849 13.4652 41.0382 13.1444 41.0382 12.794 C41.0382 12.446 40.9849 12.1264 40.8784 11.8352 C40.7742 11.5417 40.6132 11.3061 40.3954 11.1286 C40.1776 10.951 39.903 10.8622 39.5716 10.8622 C39.2377 10.8622 38.9608 10.951 38.7406 11.1286 C38.5228 11.3061 38.3606 11.5417 38.2541 11.8352 C38.1499 12.1264 38.0978 12.446 38.0978 12.794 C38.0978 13.1444 38.1499 13.4652 38.2541 13.7564 C38.3606 14.0476 38.5228 14.2808 38.7406 14.456 C38.9608 14.6312 39.2377 14.7188 39.5716 14.7188 ZM43.2958 15.5 L43.2958 10.0455 L44.3221 10.0455 L44.3221 10.9119 L44.3789 10.9119 C44.4783 10.6184 44.6535 10.3875 44.9045 10.2195 C45.1578 10.049 45.4442 9.96378 45.7638 9.96378 C45.8301 9.96378 45.9083 9.96615 45.9982 9.97088 C46.0906 9.97562 46.1628 9.98153 46.2148 9.98864 L46.2148 11.0043 C46.1722 10.9924 46.0965 10.9794 45.9876 10.9652 C45.8787 10.9486 45.7698 10.9403 45.6609 10.9403 C45.4099 10.9403 45.1862 10.9936 44.9897 11.1001 C44.7956 11.2043 44.6417 11.3499 44.5281 11.5369 C44.4144 11.7216 44.3576 11.9323 44.3576 12.169 L44.3576 15.5 L43.2958 15.5 Z" />
	<path fill="#ff8040" theme:fill="fg2" stroke="none" d="M47 0 L48 0 L48 22 L47 22 ZM0 22 L48 22 L48 23 L0 23 Z" />
	<path fill="#000000" theme:fill="bg1" stroke="none" d="M0 23 L48 23 L48 24 L0 24 Z" />
</svg>
