<svg width="48" height="24" viewBox="0 0 48 24" xmlns="http://www.w3.org/2000/svg" xmlns:theme="http://19wintersp.github.io/custom-euroscope/theme">
	<path fill="#ff8040" theme:fill="fg2" stroke="none" d="M0 0 L1 0 L1 22 L0 22 ZM1 0 L47 0 L47 1 L1 1 Z" />
	<path fill="#4b4b4b" theme:fill="bg4" stroke="none" d="M1 1 L47 1 L47 2 L1 2 ZM1 2 L47 2 L47 22 L1 22 Z" />
	<path fill="#ffffff" theme:fill="fg1" stroke="none" d="M2.79901 15.5 L2.79901 8.22727 L5.39134 8.22727 C5.95715 8.22727 6.4259 8.33026 6.79759 8.53622 C7.16927 8.74219 7.44744 9.02391 7.6321 9.38139 C7.81676 9.73651 7.90909 10.1366 7.90909 10.5817 C7.90909 11.0291 7.81558 11.4316 7.62855 11.7891 C7.44389 12.1442 7.16454 12.4259 6.79048 12.6342 C6.4188 12.8402 5.95123 12.9432 5.38778 12.9432 L3.60511 12.9432 L3.60511 12.0128 L5.28835 12.0128 C5.64583 12.0128 5.93584 11.9512 6.15838 11.8281 C6.38092 11.7027 6.54427 11.5322 6.64844 11.3168 C6.7526 11.1013 6.80469 10.8563 6.80469 10.5817 C6.80469 10.3071 6.7526 10.0632 6.64844 9.85014 C6.54427 9.63707 6.37973 9.47017 6.15483 9.34943 C5.93229 9.22869 5.63873 9.16832 5.27415 9.16832 L3.89631 9.16832 L3.89631 15.5 L2.79901 15.5 ZM10.1721 8.22727 L10.1721 15.5 L9.11026 15.5 L9.11026 8.22727 L10.1721 8.22727 ZM13.1879 15.6207 C12.8422 15.6207 12.5297 15.5568 12.2504 15.429 C11.971 15.2988 11.7496 15.1106 11.5863 14.8643 C11.4253 14.6181 11.3448 14.3163 11.3448 13.9588 C11.3448 13.651 11.404 13.3977 11.5224 13.1989 C11.6407 13 11.8005 12.8426 12.0018 12.7266 C12.203 12.6106 12.4279 12.523 12.6765 12.4638 C12.9251 12.4046 13.1784 12.3596 13.4364 12.3288 C13.7631 12.291 14.0283 12.2602 14.2319 12.2365 C14.4355 12.2105 14.5835 12.169 14.6758 12.1122 C14.7681 12.0554 14.8143 11.9631 14.8143 11.8352 L14.8143 11.8104 C14.8143 11.5002 14.7267 11.2599 14.5515 11.0895 C14.3787 10.919 14.1206 10.8338 13.7773 10.8338 C13.4199 10.8338 13.1381 10.9131 12.9322 11.0717 C12.7286 11.228 12.5877 11.402 12.5096 11.5938 L11.5117 11.3665 C11.6301 11.035 11.8029 10.7675 12.0302 10.5639 C12.2598 10.358 12.5238 10.2088 12.8221 10.1165 C13.1204 10.0218 13.4341 9.97443 13.7631 9.97443 C13.9809 9.97443 14.2118 10.0005 14.4556 10.0526 C14.7018 10.1023 14.9315 10.1946 15.1445 10.3295 C15.36 10.4645 15.5363 10.6574 15.6737 10.9084 C15.811 11.157 15.8796 11.4801 15.8796 11.8778 L15.8796 15.5 L14.8427 15.5 L14.8427 14.7543 L14.8001 14.7543 C14.7314 14.8916 14.6284 15.0265 14.4911 15.1591 C14.3538 15.2917 14.1774 15.4018 13.962 15.4893 C13.7466 15.5769 13.4885 15.6207 13.1879 15.6207 ZM13.4187 14.7685 C13.7122 14.7685 13.9632 14.7105 14.1715 14.5945 C14.3822 14.4785 14.542 14.3269 14.6509 14.1399 C14.7622 13.9505 14.8178 13.7481 14.8178 13.5327 L14.8178 12.8295 C14.7799 12.8674 14.7066 12.9029 14.5977 12.9361 C14.4911 12.9669 14.3692 12.9941 14.2319 13.0178 C14.0946 13.0391 13.9608 13.0592 13.8306 13.0781 C13.7004 13.0947 13.5915 13.1089 13.5039 13.1207 C13.2979 13.1468 13.1097 13.1906 12.9393 13.2521 C12.7712 13.3137 12.6362 13.4025 12.5344 13.5185 C12.435 13.6321 12.3853 13.7836 12.3853 13.973 C12.3853 14.2358 12.4824 14.4347 12.6765 14.5696 C12.8706 14.7022 13.118 14.7685 13.4187 14.7685 ZM17.7697 17.5455 C17.6111 17.5455 17.4667 17.5324 17.3365 17.5064 C17.2063 17.4827 17.1092 17.4567 17.0453 17.4283 L17.301 16.5582 C17.4951 16.6103 17.6679 16.6328 17.8194 16.6257 C17.9709 16.6186 18.1047 16.5618 18.2207 16.4553 C18.3391 16.3487 18.4432 16.1747 18.5332 15.9332 L18.6646 15.571 L16.6689 10.0455 L17.8052 10.0455 L19.1866 14.2784 L19.2434 14.2784 L20.6248 10.0455 L21.7647 10.0455 L19.5169 16.228 C19.4127 16.5121 19.2801 16.7524 19.1191 16.9489 C18.9582 17.1477 18.7664 17.2969 18.5439 17.3963 C18.3213 17.4957 18.0633 17.5455 17.7697 17.5455 ZM22.8478 15.5 L22.8478 8.22727 L23.9096 8.22727 L23.9096 10.9297 L23.9735 10.9297 C24.0351 10.8161 24.1239 10.6847 24.2399 10.5355 C24.3559 10.3864 24.5169 10.2562 24.7228 10.1449 C24.9288 10.0312 25.2011 9.97443 25.5396 9.97443 C25.9799 9.97443 26.3729 10.0857 26.7186 10.3082 C27.0642 10.5308 27.3353 10.8516 27.5318 11.2706 C27.7306 11.6896 27.8301 12.1939 27.8301 12.7834 C27.8301 13.3729 27.7318 13.8783 27.5353 14.2997 C27.3388 14.7187 27.069 15.0419 26.7257 15.2692 C26.3824 15.4941 25.9906 15.6065 25.5502 15.6065 C25.2188 15.6065 24.9477 15.5509 24.737 15.4396 C24.5287 15.3284 24.3654 15.1982 24.247 15.049 C24.1286 14.8999 24.0375 14.7673 23.9735 14.6513 L23.8848 14.6513 L23.8848 15.5 L22.8478 15.5 ZM23.8883 12.7727 C23.8883 13.1562 23.944 13.4924 24.0552 13.7812 C24.1665 14.0701 24.3275 14.2962 24.5382 14.4595 C24.7489 14.6205 25.0069 14.701 25.3123 14.701 C25.6296 14.701 25.8947 14.617 26.1078 14.4489 C26.3208 14.2784 26.4818 14.0476 26.5907 13.7564 C26.702 13.4652 26.7576 13.1373 26.7576 12.7727 C26.7576 12.4129 26.7032 12.0897 26.5943 11.8033 C26.4877 11.5168 26.3268 11.2907 26.1113 11.125 C25.8983 10.9593 25.6319 10.8764 25.3123 10.8764 C25.0046 10.8764 24.7441 10.9557 24.5311 11.1143 C24.3204 11.273 24.1606 11.4943 24.0517 11.7784 C23.9428 12.0625 23.8883 12.3939 23.8883 12.7727 ZM30.6097 15.6207 C30.2641 15.6207 29.9516 15.5568 29.6722 15.429 C29.3929 15.2988 29.1715 15.1106 29.0082 14.8643 C28.8472 14.6181 28.7667 14.3163 28.7667 13.9588 C28.7667 13.651 28.8259 13.3977 28.9442 13.1989 C29.0626 13 29.2224 12.8426 29.4237 12.7266 C29.6249 12.6106 29.8498 12.523 30.0984 12.4638 C30.3469 12.4046 30.6003 12.3596 30.8583 12.3288 C31.185 12.291 31.4502 12.2602 31.6538 12.2365 C31.8574 12.2105 32.0053 12.169 32.0977 12.1122 C32.19 12.0554 32.2362 11.9631 32.2362 11.8352 L32.2362 11.8104 C32.2362 11.5002 32.1486 11.2599 31.9734 11.0895 C31.8005 10.919 31.5425 10.8338 31.1992 10.8338 C30.8417 10.8338 30.56 10.9131 30.354 11.0717 C30.1504 11.228 30.0096 11.402 29.9315 11.5938 L28.9336 11.3665 C29.052 11.035 29.2248 10.7675 29.4521 10.5639 C29.6817 10.358 29.9457 10.2088 30.244 10.1165 C30.5423 10.0218 30.8559 9.97443 31.185 9.97443 C31.4028 9.97443 31.6336 10.0005 31.8775 10.0526 C32.1237 10.1023 32.3533 10.1946 32.5664 10.3295 C32.7818 10.4645 32.9582 10.6574 33.0955 10.9084 C33.2328 11.157 33.3015 11.4801 33.3015 11.8778 L33.3015 15.5 L32.2646 15.5 L32.2646 14.7543 L32.2219 14.7543 C32.1533 14.8916 32.0503 15.0265 31.913 15.1591 C31.7757 15.2917 31.5993 15.4018 31.3839 15.4893 C31.1684 15.5769 30.9104 15.6207 30.6097 15.6207 ZM30.8406 14.7685 C31.1341 14.7685 31.3851 14.7105 31.5934 14.5945 C31.8041 14.4785 31.9639 14.3269 32.0728 14.1399 C32.1841 13.9505 32.2397 13.7481 32.2397 13.5327 L32.2397 12.8295 C32.2018 12.8674 32.1284 12.9029 32.0195 12.9361 C31.913 12.9669 31.7911 12.9941 31.6538 13.0178 C31.5165 13.0391 31.3827 13.0592 31.2525 13.0781 C31.1223 13.0947 31.0134 13.1089 30.9258 13.1207 C30.7198 13.1468 30.5316 13.1906 30.3612 13.2521 C30.1931 13.3137 30.0581 13.4025 29.9563 13.5185 C29.8569 13.6321 29.8072 13.7836 29.8072 13.973 C29.8072 14.2358 29.9042 14.4347 30.0984 14.5696 C30.2925 14.7022 30.5399 14.7685 30.8406 14.7685 ZM37.0133 15.6101 C36.4854 15.6101 36.0308 15.4905 35.6497 15.2514 C35.2709 15.0099 34.9797 14.6773 34.7761 14.2536 C34.5725 13.8298 34.4707 13.3445 34.4707 12.7976 C34.4707 12.2436 34.5749 11.7547 34.7832 11.331 C34.9915 10.9048 35.2851 10.5722 35.6639 10.3331 C36.0427 10.094 36.4889 9.97443 37.0027 9.97443 C37.417 9.97443 37.7863 10.0514 38.1106 10.2053 C38.435 10.3568 38.6966 10.5698 38.8954 10.8445 C39.0967 11.1191 39.2162 11.4399 39.2541 11.8068 L38.2207 11.8068 C38.1639 11.5511 38.0337 11.331 37.8301 11.1463 C37.6288 10.9616 37.359 10.8693 37.0204 10.8693 C36.7245 10.8693 36.4653 10.9474 36.2427 11.1037 C36.0225 11.2576 35.8509 11.4777 35.7278 11.7642 C35.6047 12.0483 35.5431 12.3845 35.5431 12.7727 C35.5431 13.1705 35.6035 13.5137 35.7243 13.8026 C35.845 14.0914 36.0154 14.3151 36.2356 14.4737 C36.4582 14.6323 36.7198 14.7116 37.0204 14.7116 C37.2217 14.7116 37.4039 14.675 37.5673 14.6016 C37.733 14.5258 37.8715 14.4181 37.9828 14.2784 C38.0964 14.1387 38.1757 13.9706 38.2207 13.7741 L39.2541 13.7741 C39.2162 14.1269 39.1014 14.4418 38.9096 14.7188 C38.7179 14.9957 38.461 15.2135 38.139 15.3722 C37.8194 15.5308 37.4442 15.6101 37.0133 15.6101 ZM41.3661 13.6499 L41.359 12.3537 L41.5437 12.3537 L43.717 10.0455 L44.9883 10.0455 L42.5096 12.6733 L42.3427 12.6733 L41.3661 13.6499 ZM40.3896 15.5 L40.3896 8.22727 L41.4513 8.22727 L41.4513 15.5 L40.3896 15.5 ZM43.8342 15.5 L41.881 12.9077 L42.6126 12.1655 L45.1374 15.5 L43.8342 15.5 Z" />
	<path fill="#ff8040" theme:fill="fg2" stroke="none" d="M47 0 L48 0 L48 22 L47 22 ZM0 22 L48 22 L48 23 L0 23 Z" />
	<path fill="#000000" theme:fill="bg1" stroke="none" d="M0 23 L48 23 L48 24 L0 24 Z" />
</svg>
