<svg width="24" height="24" viewBox="0 0 24 24" xmlns="http://www.w3.org/2000/svg" xmlns:theme="http://19wintersp.github.io/custom-euroscope/theme">
	<path fill="#4b4b4b" theme:fill="bg4" stroke="none" d="M0 0 L1 0 L1 22 L0 22 Z" />
	<path fill="#6d6d6d" theme:fill="bg5" stroke="none" d="M1 0 L23 0 L23 1 L1 1 Z" />
	<path fill="#262626" theme:fill="bg3" stroke="none" d="M1 1 L23 1 L23 2 L1 2 ZM1 2 L23 2 L23 22 L1 22 Z" />
	<path fill="#ffffff" theme:fill="fg1" stroke="none" d="M11.6222 11.2727 C11.6222 12.2699 11.4421 13.1316 11.082 13.858 C10.7219 14.5843 10.228 15.1444 9.60014 15.5384 C8.9723 15.9323 8.25521 16.1293 7.44886 16.1293 C6.64252 16.1293 5.92543 15.9323 5.29759 15.5384 C4.66974 15.1444 4.17578 14.5843 3.8157 13.858 C3.45561 13.1316 3.27557 12.2699 3.27557 11.2727 C3.27557 10.2756 3.45561 9.41383 3.8157 8.6875 C4.17578 7.96117 4.66974 7.40104 5.29759 7.0071 C5.92543 6.61316 6.64252 6.41619 7.44886 6.41619 C8.25521 6.41619 8.9723 6.61316 9.60014 7.0071 C10.228 7.40104 10.7219 7.96117 11.082 8.6875 C11.4421 9.41383 11.6222 10.2756 11.6222 11.2727 ZM10.5142 11.2727 C10.5142 10.4541 10.3772 9.76314 10.1033 9.19993 C9.83251 8.63672 9.46473 8.21046 9 7.92116 C8.53835 7.63187 8.02131 7.48722 7.44886 7.48722 C6.87642 7.48722 6.35784 7.63187 5.89311 7.92116 C5.43146 8.21046 5.06368 8.63672 4.78977 9.19993 C4.51894 9.76314 4.38352 10.4541 4.38352 11.2727 C4.38352 12.0914 4.51894 12.7823 4.78977 13.3455 C5.06368 13.9087 5.43146 14.335 5.89311 14.6243 C6.35784 14.9136 6.87642 15.0582 7.44886 15.0582 C8.02131 15.0582 8.53835 14.9136 9 14.6243 C9.46473 14.335 9.83251 13.9087 10.1033 13.3455 C10.3772 12.7823 10.5142 12.0914 10.5142 11.2727 ZM18.7177 8.90909 C18.6623 8.44129 18.4376 8.07812 18.0437 7.8196 C17.6497 7.56108 17.1665 7.43182 16.5941 7.43182 C16.1755 7.43182 15.8093 7.49953 15.4954 7.63494 C15.1845 7.77036 14.9414 7.95656 14.766 8.19354 C14.5936 8.43052 14.5075 8.69981 14.5075 9.00142 C14.5075 9.25379 14.5675 9.47076 14.6875 9.65234 C14.8106 9.83085 14.9676 9.98011 15.1584 10.1001 C15.3492 10.2171 15.5492 10.314 15.7585 10.391 C15.9678 10.4648 16.1602 10.5249 16.3356 10.571 L17.2958 10.8295 C17.542 10.8942 17.8159 10.9834 18.1175 11.0973 C18.4222 11.2112 18.7131 11.3666 18.9901 11.5636 C19.2701 11.7575 19.5009 12.0067 19.6825 12.3114 C19.8641 12.6161 19.9549 12.9901 19.9549 13.4332 C19.9549 13.9441 19.821 14.4058 19.5533 14.8182 C19.2886 15.2306 18.9008 15.5584 18.3899 15.8015 C17.8821 16.0446 17.265 16.1662 16.5387 16.1662 C15.8616 16.1662 15.2753 16.0569 14.7798 15.8384 C14.2874 15.6199 13.8996 15.3152 13.6165 14.9244 C13.3364 14.5335 13.1779 14.0795 13.141 13.5625 L14.3228 13.5625 C14.3536 13.9195 14.4736 14.215 14.6829 14.4489 C14.8952 14.6797 15.163 14.852 15.4862 14.9659 C15.8124 15.0767 16.1632 15.1321 16.5387 15.1321 C16.9757 15.1321 17.3681 15.0613 17.7159 14.9197 C18.0637 14.7751 18.3391 14.575 18.5423 14.3196 C18.7454 14.0611 18.8469 13.7595 18.8469 13.4148 C18.8469 13.1009 18.7592 12.8454 18.5838 12.6484 C18.4084 12.4515 18.1776 12.2914 17.8913 12.1683 C17.6051 12.0452 17.2958 11.9375 16.9634 11.8452 L15.8001 11.5128 C15.0614 11.3004 14.4767 10.9973 14.0458 10.6033 C13.6149 10.2094 13.3995 9.69389 13.3995 9.05682 C13.3995 8.52746 13.5426 8.06581 13.8288 7.67188 C14.1181 7.27486 14.5059 6.96709 14.9922 6.74858 C15.4815 6.52699 16.0278 6.41619 16.631 6.41619 C17.2404 6.41619 17.7821 6.52545 18.256 6.74396 C18.73 6.9594 19.1055 7.25485 19.3825 7.63033 C19.6625 8.0058 19.8103 8.43205 19.8256 8.90909 L18.7177 8.90909 Z" />
	<path fill="#131313" theme:fill="bg2" stroke="none" d="M23 0 L24 0 L24 22 L23 22 ZM0 22 L24 22 L24 23 L0 23 Z" />
	<path fill="#000000" theme:fill="bg1" stroke="none" d="M0 23 L24 23 L24 24 L0 24 Z" />
</svg>
