<svg width="24" height="24" viewBox="0 0 24 24" xmlns="http://www.w3.org/2000/svg" xmlns:theme="http://19wintersp.github.io/custom-euroscope/theme">
	<path fill="#4b4b4b" theme:fill="bg4" stroke="none" d="M0 0 L1 0 L1 22 L0 22 Z" />
	<path fill="#6d6d6d" theme:fill="bg5" stroke="none" d="M1 0 L23 0 L23 1 L1 1 Z" />
	<path fill="#262626" theme:fill="bg3" stroke="none" d="M1 1 L23 1 L23 2 L1 2 ZM1 2 L23 2 L23 22 L1 22 Z" />
	<path fill="#ffffff" theme:fill="fg1" stroke="none" d="M2.79901 7.72727 L4.13068 7.72727 L6.44602 13.3807 L6.53125 13.3807 L8.84659 7.72727 L10.1783 7.72727 L10.1783 15 L9.13423 15 L9.13423 9.73722 L9.06676 9.73722 L6.92188 14.9893 L6.0554 14.9893 L3.91051 9.73366 L3.84304 9.73366 L3.84304 15 L2.79901 15 L2.79901 7.72727 ZM12.8709 7.72727 L12.8709 15 L11.7736 15 L11.7736 7.72727 L12.8709 7.72727 ZM20.339 7.72727 L20.339 15 L19.3304 15 L15.6337 9.66619 L15.5662 9.66619 L15.5662 15 L14.4689 15 L14.4689 7.72727 L15.4846 7.72727 L19.1848 13.0682 L19.2523 13.0682 L19.2523 7.72727 L20.339 7.72727 Z" />
	<path fill="#131313" theme:fill="bg2" stroke="none" d="M23 0 L24 0 L24 22 L23 22 ZM0 22 L24 22 L24 23 L0 23 Z" />
	<path fill="#000000" theme:fill="bg1" stroke="none" d="M0 23 L24 23 L24 24 L0 24 Z" />
</svg>
