<svg width="24" height="24" viewBox="0 0 24 24" xmlns="http://www.w3.org/2000/svg" xmlns:theme="http://19wintersp.github.io/custom-euroscope/theme">
	<path fill="#4b4b4b" theme:fill="bg4" stroke="none" d="M0 0 L1 0 L1 22 L0 22 Z" />
	<path fill="#6d6d6d" theme:fill="bg5" stroke="none" d="M1 0 L23 0 L23 1 L1 1 Z" />
	<path fill="#262626" theme:fill="bg3" stroke="none" d="M1 1 L23 1 L23 2 L1 2 ZM1 2 L23 2 L23 22 L1 22 Z" />
	<path fill="#ffffff" theme:fill="fg1" stroke="none" d="M6.76562 9.63778 C6.72775 9.30161 6.5715 9.04119 6.29688 8.85653 C6.02225 8.66951 5.67661 8.57599 5.25994 8.57599 C4.96165 8.57599 4.7036 8.62334 4.4858 8.71804 C4.26799 8.81037 4.09872 8.93821 3.97798 9.10156 C3.85961 9.26255 3.80043 9.44602 3.80043 9.65199 C3.80043 9.82481 3.84067 9.97396 3.92116 10.0994 C4.00402 10.2249 4.11174 10.3303 4.24432 10.4155 C4.37926 10.4983 4.52367 10.5682 4.67756 10.625 C4.83144 10.6795 4.9794 10.7244 5.12145 10.7599 L5.83168 10.9446 C6.06368 11.0014 6.30161 11.0784 6.54545 11.1754 C6.7893 11.2725 7.01539 11.4003 7.22372 11.5589 C7.43206 11.7176 7.60014 11.9141 7.72798 12.1484 C7.85819 12.3828 7.9233 12.6634 7.9233 12.9901 C7.9233 13.402 7.81676 13.7678 7.60369 14.0874 C7.39299 14.407 7.08641 14.6591 6.68395 14.8438 C6.28385 15.0284 5.79972 15.1207 5.23153 15.1207 C4.68703 15.1207 4.21591 15.0343 3.81818 14.8615 C3.42045 14.6887 3.10914 14.4437 2.88423 14.1264 C2.65933 13.8068 2.53504 13.428 2.51136 12.9901 L3.61222 12.9901 C3.63352 13.2528 3.71875 13.4718 3.8679 13.647 C4.01941 13.8198 4.21236 13.9489 4.44673 14.0341 C4.68348 14.117 4.94271 14.1584 5.22443 14.1584 C5.53456 14.1584 5.81037 14.1098 6.05185 14.0128 C6.29569 13.9134 6.48745 13.776 6.62713 13.6009 C6.76681 13.4233 6.83665 13.2161 6.83665 12.9794 C6.83665 12.764 6.77509 12.5876 6.65199 12.4503 C6.53125 12.313 6.36671 12.1993 6.15838 12.1094 C5.95241 12.0194 5.71922 11.9401 5.45881 11.8714 L4.59943 11.6371 C4.01705 11.4785 3.5554 11.2453 3.21449 10.9375 C2.87595 10.6297 2.70668 10.2225 2.70668 9.71591 C2.70668 9.29687 2.82031 8.93111 3.04759 8.61861 C3.27486 8.30611 3.58262 8.06345 3.97088 7.89062 C4.35914 7.71544 4.79711 7.62784 5.2848 7.62784 C5.77723 7.62784 6.21165 7.71425 6.58807 7.88707 C6.96686 8.0599 7.26515 8.29782 7.48295 8.60085 C7.70076 8.90151 7.81439 9.24716 7.82386 9.63778 L6.76562 9.63778 ZM9.23455 15 L9.23455 7.72727 L11.8979 7.72727 C12.414 7.72727 12.8413 7.8125 13.1799 7.98295 C13.5184 8.15104 13.7717 8.3795 13.9398 8.66832 C14.1079 8.95478 14.1919 9.27794 14.1919 9.63778 C14.1919 9.94081 14.1363 10.1965 14.025 10.4048 C13.9138 10.6108 13.7646 10.7765 13.5776 10.902 C13.3929 11.0251 13.1893 11.1151 12.9668 11.1719 L12.9668 11.2429 C13.2083 11.2547 13.4438 11.3329 13.6735 11.4773 C13.9055 11.6193 14.0972 11.8217 14.2488 12.0845 C14.4003 12.3473 14.476 12.6669 14.476 13.0433 C14.476 13.415 14.3884 13.7488 14.2132 14.0447 C14.0404 14.3383 13.7729 14.5715 13.4107 14.7443 C13.0485 14.9148 12.5856 15 12.0222 15 L9.23455 15 ZM10.3319 14.0589 L11.9157 14.0589 C12.4412 14.0589 12.8176 13.9571 13.0449 13.7536 C13.2722 13.55 13.3858 13.2955 13.3858 12.9901 C13.3858 12.7604 13.3278 12.5497 13.2118 12.358 C13.0958 12.1662 12.9301 12.0135 12.7147 11.8999 C12.5016 11.7862 12.2483 11.7294 11.9547 11.7294 L10.3319 11.7294 L10.3319 14.0589 ZM10.3319 10.8736 L11.802 10.8736 C12.0482 10.8736 12.2696 10.8262 12.4661 10.7315 C12.665 10.6368 12.8224 10.5043 12.9384 10.3338 C13.0568 10.161 13.1159 9.95739 13.1159 9.72301 C13.1159 9.42235 13.0106 9.17022 12.7999 8.96662 C12.5892 8.76302 12.266 8.66122 11.8304 8.66122 L10.3319 8.66122 L10.3319 10.8736 ZM15.2164 7.72727 L16.4629 7.72727 L18.3627 11.0334 L18.4409 11.0334 L20.3407 7.72727 L21.5872 7.72727 L18.9487 12.1449 L18.9487 15 L17.8549 15 L17.8549 12.1449 L15.2164 7.72727 Z" />
	<path fill="#131313" theme:fill="bg2" stroke="none" d="M23 0 L24 0 L24 22 L23 22 ZM0 22 L24 22 L24 23 L0 23 Z" />
	<path fill="#000000" theme:fill="bg1" stroke="none" d="M0 23 L24 23 L24 24 L0 24 Z" />
</svg>
