<svg width="24" height="24" viewBox="0 0 24 24" xmlns="http://www.w3.org/2000/svg" xmlns:theme="http://19wintersp.github.io/custom-euroscope/theme">
	<path fill="#4b4b4b" theme:fill="bg4" stroke="none" d="M0 0 L1 0 L1 22 L0 22 Z" />
	<path fill="#6d6d6d" theme:fill="bg5" stroke="none" d="M1 0 L23 0 L23 1 L1 1 Z" />
	<path fill="#262626" theme:fill="bg3" stroke="none" d="M1 1 L23 1 L23 2 L1 2 ZM1 2 L23 2 L23 22 L1 22 Z" />
	<path fill="#ffffff" theme:fill="fg1" fill-rule="evenodd" stroke="none" d="M3 3 L21 3 L21 20 L3 20 L3 3 ZM20 6 L4 6 L4 19 L20 19 L20 6 ZM7.70711 13 L8.85355 14.1464 L8.14645 14.8536 L5.79289 12.5 L8.14645 10.1464 L8.85355 10.8536 L7.70711 12 L16.2929 12 L15.1464 10.8536 L15.8536 10.1464 L18.2071 12.5 L15.8536 14.8536 L15.1464 14.1464 L16.2929 13 L7.70711 13 Z" />
	<path fill="#131313" theme:fill="bg2" stroke="none" d="M23 0 L24 0 L24 22 L23 22 ZM0 22 L24 22 L24 23 L0 23 Z" />
	<path fill="#000000" theme:fill="bg1" stroke="none" d="M0 23 L24 23 L24 24 L0 24 Z" />
</svg>
