<svg width="24" height="24" viewBox="0 0 24 24" xmlns="http://www.w3.org/2000/svg" xmlns:theme="http://19wintersp.github.io/custom-euroscope/theme">
	<path fill="#131313" theme:fill="bg2" stroke="none" d="M0 0 L1 0 L1 22 L0 22 ZM1 0 L23 0 L23 1 L1 1 Z" />
	<path fill="#4b4b4b" theme:fill="bg4" stroke="none" d="M1 1 L23 1 L23 2 L1 2 ZM1 2 L23 2 L23 22 L1 22 Z" />
	<path fill="#ff8040" theme:fill="fg2" stroke="none" d="M7 13.5 L7.5 13.5 L7.5 13 L7.5 12.5 C7.5 11.9872 7.51652 11.5109 7.54906 11.069 C7.69139 11.0242 7.84287 11 8 11 L9.5 11 L9.5 14 L8 14 C7.55575 14 7.15661 13.8069 6.88195 13.5 L7 13.5 Z" />
	<path fill="#ffffff" theme:fill="fg1" fill-rule="evenodd" stroke="none" d="M19 12 L19 12.5 C19 15.1321 18.0683 16.6804 16.7773 17.541 C15.5252 18.3758 14.0253 18.5 13 18.5 L11 18.5 L11 16.5 L13 16.5 L13 17.5 C13.9747 17.5 15.2248 17.3742 16.2227 16.709 C17.1817 16.0696 18 14.8679 18 12.5 L18 12 L19 12 Z" />
	<path fill="#ffffff" theme:fill="fg1" stroke="none" d="M18 12.5 C18 11.3954 17.1046 10.5 16 10.5 L14 10.5 L14 14.5 L16 14.5 C17.1046 14.5 18 13.6046 18 12.5 Z" />
	<path fill="#131313" theme:fill="bg2" stroke="none" d="M23 0 L24 0 L24 22 L23 22 ZM0 22 L24 22 L24 23 L0 23 Z" />
	<path fill="#000000" theme:fill="bg1" stroke="none" d="M0 23 L24 23 L24 24 L0 24 Z" />
</svg>
