<svg width="11" height="11" viewBox="0 0 11 11" xmlns="http://www.w3.org/2000/svg" xmlns:theme="http://19wintersp.github.io/custom-euroscope/theme">
	<path fill="#131313" theme:fill="bg2" stroke="none" d="M0 0 L1 0 L1 10 L0 10 ZM1 0 L10 0 L10 1 L1 1 Z" />
	<path fill="#262626" theme:fill="bg3" stroke="none" d="M1 1 L10 1 L10 10 L1 10 Z" />
	<path fill="#ffffff" theme:fill="fg1" stroke="none" d="M1.50001 5.79293 L1 6.29294 L1 6.70713 L4.29287 10 L4.77716 10 L10 1.64345 L10 1.2229 L9.64336 1 L9.22291 1 L4.40913 8.70205 L1.50001 5.79293 Z" />
	<path fill="#4b4b4b" theme:fill="bg4" stroke="none" d="M10 0 L11 0 L11 10 L10 10 Z" />
	<path fill="#6d6d6d" theme:fill="bg5" stroke="none" d="M0 10 L11 10 L11 11 L0 11 Z" />
</svg>
