<svg width="24" height="24" viewBox="0 0 24 24" xmlns="http://www.w3.org/2000/svg" xmlns:theme="http://19wintersp.github.io/custom-euroscope/theme">
	<path fill="#4b4b4b" theme:fill="bg4" stroke="none" d="M0 0 L1 0 L1 22 L0 22 Z" />
	<path fill="#6d6d6d" theme:fill="bg5" stroke="none" d="M1 0 L23 0 L23 1 L1 1 Z" />
	<path fill="#262626" theme:fill="bg3" stroke="none" d="M1 1 L23 1 L23 2 L1 2 ZM1 2 L23 2 L23 22 L1 22 Z" />
	<path fill="#ffffff" theme:fill="fg1" stroke="none" d="M3.07386 9.5 L3.07386 3.68182 L6.85795 3.68182 L6.85795 4.56534 L4.12784 4.56534 L4.12784 6.14489 L6.66193 6.14489 L6.66193 7.02841 L4.12784 7.02841 L4.12784 8.61648 L6.88068 8.61648 L6.88068 9.5 L3.07386 9.5 ZM7.93324 3.68182 L9.22301 3.68182 L10.9503 7.89773 L11.0185 7.89773 L12.7457 3.68182 L14.0355 3.68182 L14.0355 9.5 L13.0241 9.5 L13.0241 5.50284 L12.9702 5.50284 L11.3622 9.48295 L10.6065 9.48295 L8.99858 5.49432 L8.9446 5.49432 L8.9446 9.5 L7.93324 9.5 L7.93324 3.68182 ZM19.081 5.53977 C19.0336 5.38636 18.9683 5.24905 18.8849 5.12784 C18.8035 5.00473 18.705 4.89962 18.5895 4.8125 C18.4759 4.72538 18.3452 4.66004 18.1974 4.61648 C18.0497 4.57102 17.8887 4.5483 17.7145 4.5483 C17.402 4.5483 17.1236 4.62689 16.8793 4.78409 C16.6349 4.94129 16.4427 5.17235 16.3026 5.47727 C16.1643 5.7803 16.0952 6.14962 16.0952 6.58523 C16.0952 7.02462 16.1643 7.39678 16.3026 7.7017 C16.4408 8.00663 16.633 8.23864 16.8793 8.39773 C17.1255 8.55492 17.4115 8.63352 17.7372 8.63352 C18.0327 8.63352 18.2884 8.5767 18.5043 8.46307 C18.7221 8.34943 18.8897 8.18845 19.0071 7.98011 C19.1245 7.76989 19.1832 7.52367 19.1832 7.24148 L19.4219 7.27841 L17.8423 7.27841 L17.8423 6.45455 L20.2031 6.45455 L20.2031 7.15341 C20.2031 7.65152 20.0971 8.08239 19.8849 8.44602 C19.6728 8.80966 19.3812 9.08996 19.0099 9.28693 C18.6387 9.48201 18.2126 9.57955 17.7315 9.57955 C17.1955 9.57955 16.7249 9.45928 16.3196 9.21875 C15.9162 8.97633 15.6009 8.63258 15.3736 8.1875 C15.1482 7.74053 15.0355 7.21023 15.0355 6.59659 C15.0355 6.12689 15.1018 5.70739 15.2344 5.33807 C15.3688 4.96875 15.5563 4.6553 15.7969 4.39773 C16.0374 4.13826 16.3196 3.94129 16.6435 3.80682 C16.9673 3.67045 17.3196 3.60227 17.7003 3.60227 C18.0223 3.60227 18.3224 3.64962 18.6009 3.74432 C18.8793 3.83712 19.1264 3.9697 19.3423 4.14205 C19.5601 4.31439 19.7391 4.51894 19.8793 4.75568 C20.0194 4.99242 20.1113 5.25379 20.1548 5.53977 L19.081 5.53977 ZM2.23011 19.5 L4.70455 14.6023 L4.70455 14.5625 L1.83239 14.5625 L1.83239 13.6818 L5.79545 13.6818 L5.79545 14.5824 L3.32386 19.5 L2.23011 19.5 ZM7.08168 19.5 L9.55611 14.6023 L9.55611 14.5625 L6.68395 14.5625 L6.68395 13.6818 L10.647 13.6818 L10.647 14.5824 L8.17543 19.5 L7.08168 19.5 ZM13.5895 19.6108 C13.1217 19.6108 12.7202 19.4924 12.3849 19.2557 C12.0516 19.017 11.795 18.6733 11.6151 18.2244 C11.437 17.7737 11.348 17.2311 11.348 16.5966 C11.3499 15.9621 11.4399 15.4223 11.6179 14.9773 C11.7978 14.5303 12.0545 14.1894 12.3878 13.9545 C12.723 13.7197 13.1236 13.6023 13.5895 13.6023 C14.0554 13.6023 14.456 13.7197 14.7912 13.9545 C15.1264 14.1894 15.383 14.5303 15.5611 14.9773 C15.741 15.4242 15.831 15.964 15.831 16.5966 C15.831 17.233 15.741 17.7765 15.5611 18.2273 C15.383 18.6761 15.1264 19.0189 14.7912 19.2557 C14.4579 19.4924 14.0573 19.6108 13.5895 19.6108 ZM13.5895 18.7216 C13.9531 18.7216 14.2401 18.5426 14.4503 18.1847 C14.6624 17.8248 14.7685 17.2955 14.7685 16.5966 C14.7685 16.1345 14.7202 15.7462 14.6236 15.4318 C14.527 15.1174 14.3906 14.8807 14.2145 14.7216 C14.0384 14.5606 13.83 14.4801 13.5895 14.4801 C13.2277 14.4801 12.9418 14.66 12.7315 15.0199 C12.5213 15.3778 12.4152 15.9034 12.4134 16.5966 C12.4115 17.0606 12.4579 17.4508 12.5526 17.767 C12.6491 18.0833 12.7855 18.322 12.9616 18.483 C13.1378 18.642 13.3471 18.7216 13.5895 18.7216 ZM18.9254 19.6108 C18.4576 19.6108 18.0561 19.4924 17.7209 19.2557 C17.3875 19.017 17.1309 18.6733 16.951 18.2244 C16.773 17.7737 16.6839 17.2311 16.6839 16.5966 C16.6858 15.9621 16.7758 15.4223 16.9538 14.9773 C17.1338 14.5303 17.3904 14.1894 17.7237 13.9545 C18.0589 13.7197 18.4595 13.6023 18.9254 13.6023 C19.3913 13.6023 19.7919 13.7197 20.1271 13.9545 C20.4624 14.1894 20.719 14.5303 20.897 14.9773 C21.0769 15.4242 21.1669 15.964 21.1669 16.5966 C21.1669 17.233 21.0769 17.7765 20.897 18.2273 C20.719 18.6761 20.4624 19.0189 20.1271 19.2557 C19.7938 19.4924 19.3932 19.6108 18.9254 19.6108 ZM18.9254 18.7216 C19.2891 18.7216 19.576 18.5426 19.7862 18.1847 C19.9983 17.8248 20.1044 17.2955 20.1044 16.5966 C20.1044 16.1345 20.0561 15.7462 19.9595 15.4318 C19.8629 15.1174 19.7266 14.8807 19.5504 14.7216 C19.3743 14.5606 19.166 14.4801 18.9254 14.4801 C18.5637 14.4801 18.2777 14.66 18.0675 15.0199 C17.8572 15.3778 17.7512 15.9034 17.7493 16.5966 C17.7474 17.0606 17.7938 17.4508 17.8885 17.767 C17.9851 18.0833 18.1214 18.322 18.2976 18.483 C18.4737 18.642 18.683 18.7216 18.9254 18.7216 Z" />
	<path fill="#131313" theme:fill="bg2" stroke="none" d="M23 0 L24 0 L24 22 L23 22 ZM0 22 L24 22 L24 23 L0 23 Z" />
	<path fill="#000000" theme:fill="bg1" stroke="none" d="M0 23 L24 23 L24 24 L0 24 Z" />
</svg>
