<svg width="24" height="24" viewBox="0 0 24 24" xmlns="http://www.w3.org/2000/svg" xmlns:theme="http://19wintersp.github.io/custom-euroscope/theme">
	<path fill="#4b4b4b" theme:fill="bg4" stroke="none" d="M0 0 L1 0 L1 22 L0 22 Z" />
	<path fill="#6d6d6d" theme:fill="bg5" stroke="none" d="M1 0 L23 0 L23 1 L1 1 Z" />
	<path fill="#262626" theme:fill="bg3" stroke="none" d="M1 1 L23 1 L23 2 L1 2 ZM1 2 L23 2 L23 22 L1 22 Z" />
	<path fill="#ffffff" theme:fill="fg1" stroke="none" d="M3.57386 9.5 L3.57386 3.68182 L5.75568 3.68182 C6.20265 3.68182 6.57765 3.75947 6.88068 3.91477 C7.18561 4.07008 7.41572 4.28788 7.57102 4.56818 C7.72822 4.84659 7.80682 5.1714 7.80682 5.54261 C7.80682 5.91572 7.72727 6.23958 7.56818 6.5142 C7.41098 6.78693 7.17898 6.99811 6.87216 7.14773 C6.56534 7.29545 6.18845 7.36932 5.74148 7.36932 L4.1875 7.36932 L4.1875 6.49432 L5.59943 6.49432 C5.8608 6.49432 6.07481 6.45833 6.24148 6.38636 C6.40814 6.3125 6.53125 6.20549 6.6108 6.06534 C6.69223 5.9233 6.73295 5.74905 6.73295 5.54261 C6.73295 5.33617 6.69223 5.16004 6.6108 5.0142 C6.52936 4.86648 6.4053 4.75473 6.23864 4.67898 C6.07197 4.60133 5.85701 4.5625 5.59375 4.5625 L4.62784 4.5625 L4.62784 9.5 L3.57386 9.5 ZM6.57955 6.86364 L8.01989 9.5 L6.84375 9.5 L5.42898 6.86364 L6.57955 6.86364 ZM10.7486 9.5 L8.77699 9.5 L8.77699 3.68182 L10.7884 3.68182 C11.366 3.68182 11.8622 3.7983 12.277 4.03125 C12.6937 4.26231 13.0137 4.5947 13.2372 5.02841 C13.4607 5.46212 13.5724 5.98106 13.5724 6.58523 C13.5724 7.19129 13.4598 7.71212 13.2344 8.14773 C13.0109 8.58333 12.688 8.91761 12.2656 9.15057 C11.8452 9.38352 11.3395 9.5 10.7486 9.5 ZM9.83097 8.58807 L10.6974 8.58807 C11.1027 8.58807 11.4408 8.5142 11.7116 8.36648 C11.9825 8.21686 12.1861 7.99432 12.3224 7.69886 C12.4588 7.40152 12.527 7.0303 12.527 6.58523 C12.527 6.14015 12.4588 5.77083 12.3224 5.47727 C12.1861 5.18182 11.9844 4.96117 11.7173 4.81534 C11.4522 4.66761 11.1226 4.59375 10.7287 4.59375 L9.83097 4.59375 L9.83097 8.58807 ZM19.7727 6.59091 C19.7727 7.2178 19.6553 7.75473 19.4205 8.2017 C19.1875 8.64678 18.8693 8.98769 18.4659 9.22443 C18.0644 9.46117 17.6089 9.57955 17.0994 9.57955 C16.59 9.57955 16.1335 9.46117 15.7301 9.22443 C15.3286 8.9858 15.0104 8.64394 14.7756 8.19886 C14.5426 7.75189 14.4261 7.21591 14.4261 6.59091 C14.4261 5.96402 14.5426 5.42803 14.7756 4.98295 C15.0104 4.53598 15.3286 4.19413 15.7301 3.95739 C16.1335 3.72064 16.59 3.60227 17.0994 3.60227 C17.6089 3.60227 18.0644 3.72064 18.4659 3.95739 C18.8693 4.19413 19.1875 4.53598 19.4205 4.98295 C19.6553 5.42803 19.7727 5.96402 19.7727 6.59091 ZM18.7131 6.59091 C18.7131 6.14962 18.6439 5.77746 18.5057 5.47443 C18.3693 5.16951 18.1799 4.93939 17.9375 4.78409 C17.6951 4.62689 17.4157 4.5483 17.0994 4.5483 C16.7831 4.5483 16.5038 4.62689 16.2614 4.78409 C16.0189 4.93939 15.8286 5.16951 15.6903 5.47443 C15.554 5.77746 15.4858 6.14962 15.4858 6.59091 C15.4858 7.0322 15.554 7.4053 15.6903 7.71023 C15.8286 8.01326 16.0189 8.24337 16.2614 8.40057 C16.5038 8.55587 16.7831 8.63352 17.0994 8.63352 C17.4157 8.63352 17.6951 8.55587 17.9375 8.40057 C18.1799 8.24337 18.3693 8.01326 18.5057 7.71023 C18.6439 7.4053 18.7131 7.0322 18.7131 6.59091 ZM2.23011 19.5 L4.70455 14.6023 L4.70455 14.5625 L1.83239 14.5625 L1.83239 13.6818 L5.79545 13.6818 L5.79545 14.5824 L3.32386 19.5 L2.23011 19.5 ZM8.71804 19.5795 C8.43963 19.5777 8.16785 19.5294 7.9027 19.4347 C7.63755 19.3381 7.39891 19.1818 7.18679 18.9659 C6.97467 18.7481 6.80611 18.4593 6.68111 18.0994 C6.55611 17.7377 6.49455 17.2898 6.49645 16.7557 C6.49645 16.2576 6.54948 15.8134 6.65554 15.4233 C6.7616 15.0331 6.91406 14.7036 7.11293 14.4347 C7.31179 14.1638 7.55137 13.9574 7.83168 13.8153 C8.11387 13.6733 8.42921 13.6023 8.7777 13.6023 C9.14323 13.6023 9.46709 13.6742 9.74929 13.8182 C10.0334 13.9621 10.2625 14.1591 10.4368 14.4091 C10.611 14.6572 10.719 14.9375 10.7607 15.25 L9.72372 15.25 C9.67069 15.0265 9.56179 14.8485 9.39702 14.7159 C9.23414 14.5814 9.0277 14.5142 8.7777 14.5142 C8.37429 14.5142 8.06368 14.6894 7.84588 15.0398 C7.62997 15.3902 7.52107 15.8712 7.51918 16.483 L7.55895 16.483 C7.65175 16.3163 7.77202 16.1733 7.91974 16.054 C8.06747 15.9347 8.23414 15.8428 8.41974 15.7784 C8.60724 15.7121 8.80516 15.679 9.01349 15.679 C9.3544 15.679 9.66027 15.7604 9.93111 15.9233 C10.2038 16.0862 10.4197 16.3106 10.5788 16.5966 C10.7379 16.8807 10.8165 17.2064 10.8146 17.5739 C10.8165 17.9564 10.7294 18.3002 10.5533 18.6051 C10.3771 18.9081 10.1319 19.1468 9.81747 19.321 C9.50308 19.4953 9.1366 19.5814 8.71804 19.5795 ZM8.71236 18.7273 C8.9188 18.7273 9.10346 18.6771 9.26634 18.5767 C9.42921 18.4763 9.558 18.3409 9.6527 18.1705 C9.7474 18 9.7938 17.8087 9.7919 17.5966 C9.7938 17.3883 9.74834 17.1998 9.65554 17.0312 C9.56463 16.8627 9.43868 16.7292 9.2777 16.6307 C9.11671 16.5322 8.933 16.483 8.72656 16.483 C8.57315 16.483 8.43016 16.5123 8.29759 16.571 C8.16501 16.6297 8.04948 16.7112 7.95099 16.8153 C7.85251 16.9176 7.77486 17.0369 7.71804 17.1733 C7.66312 17.3078 7.63471 17.4517 7.63281 17.6051 C7.63471 17.8078 7.68205 17.9943 7.77486 18.1648 C7.86766 18.3352 7.9955 18.4716 8.15838 18.5739 C8.32126 18.6761 8.50592 18.7273 8.71236 18.7273 ZM13.9254 19.6108 C13.4576 19.6108 13.0561 19.4924 12.7209 19.2557 C12.3875 19.017 12.1309 18.6733 11.951 18.2244 C11.773 17.7737 11.6839 17.2311 11.6839 16.5966 C11.6858 15.9621 11.7758 15.4223 11.9538 14.9773 C12.1338 14.5303 12.3904 14.1894 12.7237 13.9545 C13.0589 13.7197 13.4595 13.6023 13.9254 13.6023 C14.3913 13.6023 14.7919 13.7197 15.1271 13.9545 C15.4624 14.1894 15.719 14.5303 15.897 14.9773 C16.0769 15.4242 16.1669 15.964 16.1669 16.5966 C16.1669 17.233 16.0769 17.7765 15.897 18.2273 C15.719 18.6761 15.4624 19.0189 15.1271 19.2557 C14.7938 19.4924 14.3932 19.6108 13.9254 19.6108 ZM13.9254 18.7216 C14.2891 18.7216 14.576 18.5426 14.7862 18.1847 C14.9983 17.8248 15.1044 17.2955 15.1044 16.5966 C15.1044 16.1345 15.0561 15.7462 14.9595 15.4318 C14.8629 15.1174 14.7266 14.8807 14.5504 14.7216 C14.3743 14.5606 14.166 14.4801 13.9254 14.4801 C13.5637 14.4801 13.2777 14.66 13.0675 15.0199 C12.8572 15.3778 12.7512 15.9034 12.7493 16.5966 C12.7474 17.0606 12.7938 17.4508 12.8885 17.767 C12.9851 18.0833 13.1214 18.322 13.2976 18.483 C13.4737 18.642 13.683 18.7216 13.9254 18.7216 ZM19.2614 19.6108 C18.7936 19.6108 18.392 19.4924 18.0568 19.2557 C17.7235 19.017 17.4669 18.6733 17.2869 18.2244 C17.1089 17.7737 17.0199 17.2311 17.0199 16.5966 C17.0218 15.9621 17.1117 15.4223 17.2898 14.9773 C17.4697 14.5303 17.7263 14.1894 18.0597 13.9545 C18.3949 13.7197 18.7955 13.6023 19.2614 13.6023 C19.7273 13.6023 20.1278 13.7197 20.4631 13.9545 C20.7983 14.1894 21.0549 14.5303 21.233 14.9773 C21.4129 15.4242 21.5028 15.964 21.5028 16.5966 C21.5028 17.233 21.4129 17.7765 21.233 18.2273 C21.0549 18.6761 20.7983 19.0189 20.4631 19.2557 C20.1297 19.4924 19.7292 19.6108 19.2614 19.6108 ZM19.2614 18.7216 C19.625 18.7216 19.9119 18.5426 20.1222 18.1847 C20.3343 17.8248 20.4403 17.2955 20.4403 16.5966 C20.4403 16.1345 20.392 15.7462 20.2955 15.4318 C20.1989 15.1174 20.0625 14.8807 19.8864 14.7216 C19.7102 14.5606 19.5019 14.4801 19.2614 14.4801 C18.8996 14.4801 18.6136 14.66 18.4034 15.0199 C18.1932 15.3778 18.0871 15.9034 18.0852 16.5966 C18.0833 17.0606 18.1297 17.4508 18.2244 17.767 C18.321 18.0833 18.4574 18.322 18.6335 18.483 C18.8097 18.642 19.0189 18.7216 19.2614 18.7216 Z" />
	<path fill="#131313" theme:fill="bg2" stroke="none" d="M23 0 L24 0 L24 22 L23 22 ZM0 22 L24 22 L24 23 L0 23 Z" />
	<path fill="#000000" theme:fill="bg1" stroke="none" d="M0 23 L24 23 L24 24 L0 24 Z" />
</svg>
