<svg width="24" height="24" viewBox="0 0 24 24" xmlns="http://www.w3.org/2000/svg" xmlns:theme="http://19wintersp.github.io/custom-euroscope/theme">
	<path fill="#4b4b4b" theme:fill="bg4" stroke="none" d="M0 0 L1 0 L1 22 L0 22 Z" />
	<path fill="#6d6d6d" theme:fill="bg5" stroke="none" d="M1 0 L23 0 L23 1 L1 1 Z" />
	<path fill="#262626" theme:fill="bg3" stroke="none" d="M1 1 L23 1 L23 2 L1 2 ZM1 2 L23 2 L23 22 L1 22 Z" />
	<path fill="#ffffff" theme:fill="fg1" stroke="none" d="M2.32102 9.5 L1.19602 9.5 L3.24432 3.68182 L4.54545 3.68182 L6.59659 9.5 L5.47159 9.5 L3.91761 4.875 L3.87216 4.875 L2.32102 9.5 ZM2.35795 7.21875 L5.42614 7.21875 L5.42614 8.06534 L2.35795 8.06534 L2.35795 7.21875 ZM10.5911 5.28125 C10.5646 5.03314 10.4529 4.83996 10.2559 4.7017 C10.0608 4.56345 9.80702 4.49432 9.49452 4.49432 C9.27482 4.49432 9.08637 4.52746 8.92918 4.59375 C8.77198 4.66004 8.65171 4.75 8.56838 4.86364 C8.48505 4.97727 8.44243 5.10701 8.44054 5.25284 C8.44054 5.37405 8.468 5.47917 8.52293 5.56818 C8.57974 5.6572 8.65645 5.73295 8.75304 5.79545 C8.84963 5.85606 8.95664 5.9072 9.07406 5.94886 C9.19149 5.99053 9.30986 6.02557 9.42918 6.05398 L9.97463 6.19034 C10.1943 6.24148 10.4055 6.31061 10.6082 6.39773 C10.8127 6.48485 10.9955 6.5947 11.1564 6.72727 C11.3193 6.85985 11.4481 7.01989 11.5428 7.20739 C11.6375 7.39489 11.6849 7.61458 11.6849 7.86648 C11.6849 8.20739 11.5977 8.50758 11.4235 8.76705 C11.2493 9.02462 10.9974 9.22633 10.6678 9.37216 C10.3402 9.5161 9.94338 9.58807 9.47747 9.58807 C9.02482 9.58807 8.63183 9.51799 8.29849 9.37784 C7.96705 9.23769 7.70759 9.03314 7.52009 8.7642 C7.33448 8.49527 7.2341 8.16761 7.21895 7.78125 L8.25588 7.78125 C8.27103 7.9839 8.33353 8.15246 8.44338 8.28693 C8.55323 8.4214 8.69622 8.52178 8.87236 8.58807 C9.05039 8.65436 9.24925 8.6875 9.46895 8.6875 C9.69812 8.6875 9.89887 8.65341 10.0712 8.58523 C10.2455 8.51515 10.3818 8.41856 10.4803 8.29545 C10.5788 8.17045 10.629 8.02462 10.6309 7.85795 C10.629 7.70644 10.5845 7.58144 10.4974 7.48295 C10.4102 7.38258 10.2881 7.29924 10.1309 7.23295 C9.97558 7.16477 9.79376 7.10417 9.58543 7.05114 L8.92349 6.88068 C8.44433 6.75758 8.06554 6.57102 7.78713 6.32102 C7.51062 6.06913 7.37236 5.73485 7.37236 5.31818 C7.37236 4.97538 7.46516 4.67519 7.65077 4.41761 C7.83827 4.16004 8.093 3.96023 8.41497 3.81818 C8.73694 3.67424 9.10152 3.60227 9.50872 3.60227 C9.9216 3.60227 10.2833 3.67424 10.5939 3.81818 C10.9064 3.96023 11.1517 4.15814 11.3297 4.41193 C11.5078 4.66383 11.5996 4.9536 11.6053 5.28125 L10.5911 5.28125 ZM15.9464 5.28125 C15.9199 5.03314 15.8082 4.83996 15.6112 4.7017 C15.4161 4.56345 15.1623 4.49432 14.8498 4.49432 C14.6301 4.49432 14.4417 4.52746 14.2845 4.59375 C14.1273 4.66004 14.007 4.75 13.9237 4.86364 C13.8404 4.97727 13.7977 5.10701 13.7959 5.25284 C13.7959 5.37405 13.8233 5.47917 13.8782 5.56818 C13.9351 5.6572 14.0118 5.73295 14.1084 5.79545 C14.2049 5.85606 14.312 5.9072 14.4294 5.94886 C14.5468 5.99053 14.6652 6.02557 14.7845 6.05398 L15.3299 6.19034 C15.5496 6.24148 15.7608 6.31061 15.9635 6.39773 C16.168 6.48485 16.3508 6.5947 16.5118 6.72727 C16.6746 6.85985 16.8034 7.01989 16.8981 7.20739 C16.9928 7.39489 17.0402 7.61458 17.0402 7.86648 C17.0402 8.20739 16.953 8.50758 16.7788 8.76705 C16.6046 9.02462 16.3527 9.22633 16.0231 9.37216 C15.6955 9.5161 15.2987 9.58807 14.8328 9.58807 C14.3801 9.58807 13.9871 9.51799 13.6538 9.37784 C13.3224 9.23769 13.0629 9.03314 12.8754 8.7642 C12.6898 8.49527 12.5894 8.16761 12.5743 7.78125 L13.6112 7.78125 C13.6263 7.9839 13.6888 8.15246 13.7987 8.28693 C13.9085 8.4214 14.0515 8.52178 14.2277 8.58807 C14.4057 8.65436 14.6046 8.6875 14.8243 8.6875 C15.0534 8.6875 15.2542 8.65341 15.4265 8.58523 C15.6008 8.51515 15.7371 8.41856 15.8356 8.29545 C15.9341 8.17045 15.9843 8.02462 15.9862 7.85795 C15.9843 7.70644 15.9398 7.58144 15.8527 7.48295 C15.7655 7.38258 15.6434 7.29924 15.4862 7.23295 C15.3309 7.16477 15.1491 7.10417 14.9407 7.05114 L14.2788 6.88068 C13.7996 6.75758 13.4209 6.57102 13.1424 6.32102 C12.8659 6.06913 12.7277 5.73485 12.7277 5.31818 C12.7277 4.97538 12.8205 4.67519 13.0061 4.41761 C13.1936 4.16004 13.4483 3.96023 13.7703 3.81818 C14.0923 3.67424 14.4568 3.60227 14.864 3.60227 C15.2769 3.60227 15.6387 3.67424 15.9493 3.81818 C16.2618 3.96023 16.507 4.15814 16.6851 4.41193 C16.8631 4.66383 16.9549 4.9536 16.9606 5.28125 L15.9464 5.28125 ZM18.1398 9.5 L18.1398 3.68182 L20.3216 3.68182 C20.7686 3.68182 21.1436 3.75947 21.4466 3.91477 C21.7515 4.07008 21.9817 4.28788 22.137 4.56818 C22.2942 4.84659 22.3728 5.1714 22.3728 5.54261 C22.3728 5.91572 22.2932 6.23958 22.1341 6.5142 C21.9769 6.78693 21.7449 6.99811 21.4381 7.14773 C21.1313 7.29545 20.7544 7.36932 20.3074 7.36932 L18.7534 7.36932 L18.7534 6.49432 L20.1654 6.49432 C20.4267 6.49432 20.6407 6.45833 20.8074 6.38636 C20.9741 6.3125 21.0972 6.20549 21.1767 6.06534 C21.2582 5.9233 21.2989 5.74905 21.2989 5.54261 C21.2989 5.33617 21.2582 5.16004 21.1767 5.0142 C21.0953 4.86648 20.9712 4.75473 20.8046 4.67898 C20.6379 4.60133 20.4229 4.5625 20.1597 4.5625 L19.1938 4.5625 L19.1938 9.5 L18.1398 9.5 ZM21.1455 6.86364 L22.5858 9.5 L21.4097 9.5 L19.9949 6.86364 L21.1455 6.86364 Z" />
	<path fill="#ffffff" theme:fill="fg1" fill-rule="evenodd" stroke="none" d="M18.4596 12.697 L15.4596 19.697 L14.6096 19.8124 L12.6096 17.3124 L13.3904 16.6877 L14.8691 18.5361 L17.5404 12.3031 L18.4596 12.697 ZM7 14.0001 L11 14.0001 L11 18.0001 L7 18.0001 L7 14.0001 ZM8 15.0001 L8 17.0001 L10 17.0001 L10 15.0001 L8 15.0001 Z" />
	<path fill="#131313" theme:fill="bg2" stroke="none" d="M23 0 L24 0 L24 22 L23 22 ZM0 22 L24 22 L24 23 L0 23 Z" />
	<path fill="#000000" theme:fill="bg1" stroke="none" d="M0 23 L24 23 L24 24 L0 24 Z" />
</svg>
