<svg width="24" height="24" viewBox="0 0 24 24" xmlns="http://www.w3.org/2000/svg" xmlns:theme="http://19wintersp.github.io/custom-euroscope/theme">
	<path fill="#4b4b4b" theme:fill="bg4" stroke="none" d="M0 0 L1 0 L1 22 L0 22 Z" />
	<path fill="#6d6d6d" theme:fill="bg5" stroke="none" d="M1 0 L23 0 L23 1 L1 1 Z" />
	<path fill="#262626" theme:fill="bg3" stroke="none" d="M1 1 L23 1 L23 2 L1 2 ZM1 2 L23 2 L23 22 L1 22 Z" />
	<path fill="#ffffff" theme:fill="fg1" fill-rule="evenodd" stroke="none" d="M12 5 C7.58172 5 4 8.58172 4 13 L4 15 L3 15 L3 13 C3 8.02944 7.02944 4 12 4 L12 5 Z" />
	<path fill="#ffffff" theme:fill="fg1" opacity="0.5" fill-rule="evenodd" stroke="none" d="M20 13 C20 8.58172 16.4183 5 12 5 L12 4 C16.9706 4 21 8.02944 21 13 L21 15 L20 15 L20 13 Z" />
	<path fill="#262626" theme:fill="bg3" fill-rule="evenodd" stroke="none" d="M11 13 L11 3 L14 3 L14 13 L11 13 Z" />
	<path fill="#ff8040" theme:fill="fg2" fill-rule="evenodd" stroke="none" d="M12 13 L12 3 L13 3 L13 13 L12 13 Z" />
	<path fill="#ffffff" theme:fill="fg1" fill-rule="evenodd" stroke="none" d="M11.5 17.8094 L14.75 15.933 L14.25 15.067 L9.5 17.8094 L14.25 20.5518 L14.75 19.6858 L11.5 17.8094 Z" />
	<path fill="#131313" theme:fill="bg2" stroke="none" d="M23 0 L24 0 L24 22 L23 22 ZM0 22 L24 22 L24 23 L0 23 Z" />
	<path fill="#000000" theme:fill="bg1" stroke="none" d="M0 23 L24 23 L24 24 L0 24 Z" />
</svg>
