<svg width="48" height="24" viewBox="0 0 48 24" xmlns="http://www.w3.org/2000/svg" xmlns:theme="http://19wintersp.github.io/custom-euroscope/theme">
	<path fill="#ff8040" theme:fill="fg2" stroke="none" d="M0 0 L1 0 L1 22 L0 22 ZM1 0 L47 0 L47 1 L1 1 Z" />
	<path fill="#4b4b4b" theme:fill="bg4" stroke="none" d="M1 1 L47 1 L47 2 L1 2 ZM1 2 L47 2 L47 22 L1 22 Z" />
	<path fill="#ffffff" theme:fill="fg1" stroke="none" d="M6.78662 10.674 C6.75253 10.3714 6.61191 10.1371 6.36475 9.97088 C6.11759 9.80256 5.80651 9.71839 5.43151 9.71839 C5.16304 9.71839 4.9308 9.76101 4.73477 9.84624 C4.53875 9.92933 4.38641 10.0444 4.27774 10.1914 C4.17121 10.3363 4.11794 10.5014 4.11794 10.6868 C4.11794 10.8423 4.15416 10.9766 4.22661 11.0895 C4.30118 11.2024 4.39813 11.2972 4.51745 11.3739 C4.63889 11.4485 4.76887 11.5114 4.90736 11.5625 C5.04585 11.6115 5.17902 11.652 5.30686 11.6839 L5.94607 11.8501 C6.15487 11.9013 6.36901 11.9705 6.58847 12.0579 C6.80793 12.1452 7.01141 12.2603 7.19891 12.4031 C7.38641 12.5458 7.53769 12.7227 7.65274 12.9336 C7.76993 13.1445 7.82852 13.397 7.82852 13.6911 C7.82852 14.0618 7.73264 14.391 7.54088 14.6786 C7.35125 14.9663 7.07533 15.1932 6.71311 15.3594 C6.35303 15.5256 5.9173 15.6087 5.40594 15.6087 C4.91588 15.6087 4.49188 15.5309 4.13392 15.3754 C3.77597 15.2198 3.49578 14.9993 3.29337 14.7138 C3.09095 14.4261 2.97909 14.0852 2.95779 13.6911 L3.94855 13.6911 C3.96773 13.9276 4.04443 14.1246 4.17867 14.2823 C4.31503 14.4379 4.48868 14.554 4.69962 14.6307 C4.91269 14.7053 5.146 14.7425 5.39955 14.7425 C5.67867 14.7425 5.92689 14.6989 6.14422 14.6115 C6.36368 14.522 6.53627 14.3984 6.66198 14.2408 C6.78769 14.081 6.85054 13.8945 6.85054 13.6815 C6.85054 13.4876 6.79514 13.3288 6.68435 13.2053 C6.57568 13.0817 6.4276 12.9794 6.2401 12.8984 C6.05473 12.8175 5.84486 12.7461 5.61048 12.6843 L4.83705 12.4734 C4.3129 12.3306 3.89742 12.1207 3.5906 11.8438 C3.28591 11.5668 3.13357 11.2003 3.13357 10.7443 C3.13357 10.3672 3.23584 10.038 3.44039 9.75675 C3.64493 9.4755 3.92192 9.2571 4.27135 9.10156 C4.62078 8.94389 5.01496 8.86506 5.45388 8.86506 C5.89706 8.86506 6.28804 8.94283 6.62682 9.09837 C6.96773 9.25391 7.2362 9.46804 7.43222 9.74077 C7.62824 10.0114 7.73051 10.3224 7.73904 10.674 L6.78662 10.674 ZM9.99623 15.5 L8.55162 10.5909 L9.5392 10.5909 L10.5012 14.196 L10.5491 14.196 L11.5143 10.5909 L12.5019 10.5909 L13.4607 14.18 L13.5087 14.18 L14.4643 10.5909 L15.4518 10.5909 L14.0104 15.5 L13.0356 15.5 L12.0385 11.9556 L11.965 11.9556 L10.9678 15.5 L9.99623 15.5 ZM18.3251 15.5991 C17.8414 15.5991 17.4248 15.4957 17.0754 15.2891 C16.7281 15.0803 16.4597 14.7873 16.27 14.4102 C16.0825 14.0309 15.9888 13.5866 15.9888 13.0774 C15.9888 12.5746 16.0825 12.1314 16.27 11.7479 C16.4597 11.3643 16.7239 11.065 17.0626 10.8498 C17.4035 10.6346 17.802 10.527 18.2579 10.527 C18.5349 10.527 18.8034 10.5728 19.0633 10.6644 C19.3233 10.756 19.5566 10.8999 19.7633 11.0959 C19.9699 11.2919 20.1329 11.5465 20.2523 11.8597 C20.3716 12.1708 20.4312 12.549 20.4312 12.9943 L20.4312 13.3331 L16.5289 13.3331 L16.5289 12.6172 L19.4948 12.6172 C19.4948 12.3658 19.4437 12.1431 19.3414 11.9492 C19.2391 11.7532 19.0953 11.5987 18.9099 11.4858 C18.7267 11.3729 18.5115 11.3164 18.2643 11.3164 C17.9959 11.3164 17.7615 11.3825 17.5612 11.5146 C17.3631 11.6445 17.2097 11.815 17.101 12.0259 C16.9945 12.2347 16.9412 12.4616 16.9412 12.7067 L16.9412 13.266 C16.9412 13.5941 16.9987 13.8732 17.1138 14.1033 C17.231 14.3335 17.394 14.5092 17.6028 14.6307 C17.8116 14.75 18.0555 14.8097 18.3347 14.8097 C18.5158 14.8097 18.6809 14.7841 18.83 14.733 C18.9792 14.6797 19.1081 14.6009 19.2168 14.4964 C19.3254 14.392 19.4085 14.2631 19.466 14.1097 L20.3705 14.2727 C20.2981 14.5391 20.1681 14.7724 19.9806 14.9727 C19.7952 15.1708 19.5619 15.3253 19.2807 15.4361 C19.0016 15.5447 18.683 15.5991 18.3251 15.5991 ZM22.9201 15.6087 C22.6091 15.6087 22.3278 15.5511 22.0764 15.4361 C21.825 15.3189 21.6258 15.1495 21.4787 14.9279 C21.3339 14.7063 21.2614 14.4347 21.2614 14.1129 C21.2614 13.8359 21.3147 13.608 21.4212 13.429 C21.5277 13.25 21.6716 13.1083 21.8527 13.0039 C22.0338 12.8995 22.2362 12.8207 22.4599 12.7674 C22.6836 12.7141 22.9116 12.6737 23.1439 12.646 C23.4379 12.6119 23.6765 12.5842 23.8598 12.5629 C24.043 12.5394 24.1762 12.5021 24.2593 12.451 C24.3424 12.3999 24.3839 12.3168 24.3839 12.2017 L24.3839 12.1793 C24.3839 11.9002 24.3051 11.6839 24.1474 11.5305 C23.9919 11.3771 23.7596 11.3004 23.4507 11.3004 C23.129 11.3004 22.8754 11.3718 22.69 11.5146 C22.5068 11.6552 22.38 11.8118 22.3097 11.9844 L21.4116 11.7798 C21.5182 11.4815 21.6737 11.2408 21.8782 11.0575 C22.0849 10.8722 22.3225 10.7379 22.591 10.6548 C22.8594 10.5696 23.1417 10.527 23.4379 10.527 C23.6339 10.527 23.8417 10.5504 24.0611 10.5973 C24.2827 10.642 24.4894 10.7251 24.6812 10.8466 C24.875 10.968 25.0338 11.1417 25.1574 11.3675 C25.2809 11.5913 25.3427 11.8821 25.3427 12.2401 L25.3427 15.5 L24.4095 15.5 L24.4095 14.8288 L24.3711 14.8288 C24.3093 14.9524 24.2167 15.0739 24.0931 15.1932 C23.9695 15.3125 23.8108 15.4116 23.6169 15.4904 C23.423 15.5692 23.1907 15.6087 22.9201 15.6087 ZM23.1279 14.8416 C23.3921 14.8416 23.6179 14.7894 23.8054 14.685 C23.9951 14.5806 24.1389 14.4442 24.2369 14.2759 C24.337 14.1055 24.3871 13.9233 24.3871 13.7294 L24.3871 13.0966 C24.353 13.1307 24.287 13.1626 24.189 13.1925 C24.0931 13.2202 23.9834 13.2447 23.8598 13.266 C23.7362 13.2852 23.6158 13.3033 23.4986 13.3203 C23.3814 13.3352 23.2834 13.348 23.2046 13.3587 C23.0192 13.3821 22.8498 13.4215 22.6964 13.4769 C22.5451 13.5323 22.4237 13.6122 22.3321 13.7166 C22.2426 13.8189 22.1978 13.9553 22.1978 14.1257 C22.1978 14.3622 22.2852 14.5412 22.4599 14.6626 C22.6346 14.782 22.8573 14.8416 23.1279 14.8416 ZM28.9071 10.5909 L28.9071 11.358 L26.2256 11.358 L26.2256 10.5909 L28.9071 10.5909 ZM26.9447 9.41477 L27.9003 9.41477 L27.9003 14.0586 C27.9003 14.244 27.928 14.3835 27.9834 14.4773 C28.0388 14.5689 28.1102 14.6317 28.1976 14.6658 C28.2871 14.6978 28.384 14.7138 28.4884 14.7138 C28.5651 14.7138 28.6322 14.7085 28.6898 14.6978 C28.7473 14.6871 28.792 14.6786 28.824 14.6722 L28.9966 15.4616 C28.9412 15.483 28.8623 15.5043 28.7601 15.5256 C28.6578 15.549 28.53 15.5618 28.3766 15.5639 C28.1251 15.5682 27.8908 15.5234 27.6734 15.4297 C27.4561 15.3359 27.2803 15.1911 27.1461 14.995 C27.0119 14.799 26.9447 14.5529 26.9447 14.2567 L26.9447 9.41477 ZM30.1464 15.5 L30.1464 8.95455 L32.5434 8.95455 C33.0079 8.95455 33.3924 9.03125 33.6971 9.18466 C34.0018 9.33594 34.2298 9.54155 34.3811 9.80149 C34.5324 10.0593 34.608 10.3501 34.608 10.674 C34.608 10.9467 34.5579 11.1768 34.4578 11.3643 C34.3576 11.5497 34.2234 11.6989 34.0551 11.8118 C33.8889 11.9226 33.7057 12.0036 33.5054 12.0547 L33.5054 12.1186 C33.7227 12.1293 33.9347 12.1996 34.1414 12.3295 C34.3502 12.4574 34.5228 12.6396 34.6591 12.8761 C34.7955 13.1126 34.8637 13.4002 34.8637 13.739 C34.8637 14.0735 34.7848 14.3739 34.6272 14.6403 C34.4716 14.9045 34.2309 15.1143 33.9049 15.2699 C33.5789 15.4233 33.1623 15.5 32.6552 15.5 L30.1464 15.5 ZM31.1339 14.6531 L32.5593 14.6531 C33.0324 14.6531 33.3711 14.5614 33.5757 14.3782 C33.7802 14.195 33.8825 13.9659 33.8825 13.6911 C33.8825 13.4844 33.8303 13.2947 33.7259 13.1222 C33.6215 12.9496 33.4723 12.8121 33.2785 12.7099 C33.0867 12.6076 32.8587 12.5565 32.5945 12.5565 L31.1339 12.5565 L31.1339 14.6531 ZM31.1339 11.7862 L32.4571 11.7862 C32.6787 11.7862 32.8779 11.7436 33.0547 11.6584 C33.2337 11.5732 33.3754 11.4538 33.4798 11.3004 C33.5863 11.1449 33.6396 10.9616 33.6396 10.7507 C33.6396 10.4801 33.5448 10.2532 33.3552 10.07 C33.1655 9.88672 32.8747 9.7951 32.4826 9.7951 L31.1339 9.7951 L31.1339 11.7862 ZM38.0261 15.5991 C37.5659 15.5991 37.1643 15.4936 36.8212 15.2827 C36.4782 15.0717 36.2119 14.7766 36.0222 14.3974 C35.8326 14.0181 35.7378 13.5749 35.7378 13.0678 C35.7378 12.5586 35.8326 12.1133 36.0222 11.7319 C36.2119 11.3505 36.4782 11.0543 36.8212 10.8434 C37.1643 10.6325 37.5659 10.527 38.0261 10.527 C38.4864 10.527 38.888 10.6325 39.231 10.8434 C39.5741 11.0543 39.8404 11.3505 40.0301 11.7319 C40.2197 12.1133 40.3145 12.5586 40.3145 13.0678 C40.3145 13.5749 40.2197 14.0181 40.0301 14.3974 C39.8404 14.7766 39.5741 15.0717 39.231 15.2827 C38.888 15.4936 38.4864 15.5991 38.0261 15.5991 ZM38.0293 14.7969 C38.3276 14.7969 38.5748 14.718 38.7708 14.5604 C38.9668 14.4027 39.1117 14.1928 39.2055 13.9308 C39.3014 13.6687 39.3493 13.38 39.3493 13.0646 C39.3493 12.7514 39.3014 12.4638 39.2055 12.2017 C39.1117 11.9375 38.9668 11.7255 38.7708 11.5657 C38.5748 11.4059 38.3276 11.326 38.0293 11.326 C37.7289 11.326 37.4796 11.4059 37.2815 11.5657 C37.0854 11.7255 36.9395 11.9375 36.8436 12.2017 C36.7499 12.4638 36.703 12.7514 36.703 13.0646 C36.703 13.38 36.7499 13.6687 36.8436 13.9308 C36.9395 14.1928 37.0854 14.4027 37.2815 14.5604 C37.4796 14.718 37.7289 14.7969 38.0293 14.7969 ZM41.9421 10.5909 L43.0255 12.5021 L44.1186 10.5909 L45.1637 10.5909 L43.6328 13.0455 L45.1764 15.5 L44.1313 15.5 L43.0255 13.6655 L41.9229 15.5 L40.8746 15.5 L42.4023 13.0455 L40.8938 10.5909 L41.9421 10.5909 Z" />
	<path fill="#ff8040" theme:fill="fg2" stroke="none" d="M47 0 L48 0 L48 22 L47 22 ZM0 22 L48 22 L48 23 L0 23 Z" />
	<path fill="#000000" theme:fill="bg1" stroke="none" d="M0 23 L48 23 L48 24 L0 24 Z" />
</svg>
