<svg width="24" height="24" viewBox="0 0 24 24" xmlns="http://www.w3.org/2000/svg" xmlns:theme="http://19wintersp.github.io/custom-euroscope/theme">
	<path fill="#131313" theme:fill="bg2" stroke="none" d="M0 0 L1 0 L1 22 L0 22 ZM1 0 L23 0 L23 1 L1 1 Z" />
	<path fill="#4b4b4b" theme:fill="bg4" stroke="none" d="M1 1 L23 1 L23 2 L1 2 ZM1 2 L23 2 L23 22 L1 22 Z" />
	<path fill="#ffffff" theme:fill="fg1" fill-rule="evenodd" stroke="none" d="M3.06589 3.74809 L3.93413 3.25195 L7.82827 10.0667 L15.7999 12.0596 L20.9069 19.2094 L20.0931 19.7906 L15.2001 12.9404 L7.17175 10.9333 L3.06589 3.74809 Z" />
	<path fill="#4b4b4b" theme:fill="bg4" fill-rule="evenodd" stroke="none" d="M10 10.5 C10 11.8807 8.88071 13 7.5 13 C6.11929 13 5 11.8807 5 10.5 C5 9.11929 6.11929 8 7.5 8 C8.88071 8 10 9.11929 10 10.5 ZM23 19.5 C23 20.8807 21.8807 22 20.5 22 C19.1193 22 18 20.8807 18 19.5 C18 18.1193 19.1193 17 20.5 17 C21.8807 17 23 18.1193 23 19.5 ZM6 3.5 C6 4.88071 4.88071 6 3.5 6 C2.11929 6 1 4.88071 1 3.5 C1 2.11929 2.11929 1 3.5 1 C4.88071 1 6 2.11929 6 3.5 Z" />
	<path fill="#4b4b4b" theme:fill="bg4" stroke="none" d="M15.5 15 C16.8807 15 18 13.8807 18 12.5 C18 11.1193 16.8807 10 15.5 10 C14.1193 10 13 11.1193 13 12.5 C13 13.8807 14.1193 15 15.5 15 Z" />
	<path fill="#ff8040" theme:fill="fg2" stroke="none" d="M9 10.5 C9 11.3284 8.32843 12 7.5 12 C6.67157 12 6 11.3284 6 10.5 C6 9.67157 6.67157 9 7.5 9 C8.32843 9 9 9.67157 9 10.5 Z" />
	<path fill="#ffffff" theme:fill="fg1" stroke="none" d="M17 12.5 C17 13.3284 16.3284 14 15.5 14 C14.6716 14 14 13.3284 14 12.5 C14 11.6716 14.6716 11 15.5 11 C16.3284 11 17 11.6716 17 12.5 ZM22 19.5 C22 20.3284 21.3284 21 20.5 21 C19.6716 21 19 20.3284 19 19.5 C19 18.6716 19.6716 18 20.5 18 C21.3284 18 22 18.6716 22 19.5 Z" />
	<path fill="#4b4b4b" theme:fill="bg4" stroke="none" d="M5 3.5 C5 4.32843 4.32843 5 3.5 5 C2.67157 5 2 4.32843 2 3.5 C2 2.67157 2.67157 2 3.5 2 C4.32843 2 5 2.67157 5 3.5 Z" />
	<path fill="#ffffff" theme:fill="fg1" opacity="0.5" stroke="none" d="M5 3.5 C5 4.32843 4.32843 5 3.5 5 C2.67157 5 2 4.32843 2 3.5 C2 2.67157 2.67157 2 3.5 2 C4.32843 2 5 2.67157 5 3.5 Z" />
	<path fill="#131313" theme:fill="bg2" stroke="none" d="M23 0 L24 0 L24 22 L23 22 ZM0 22 L24 22 L24 23 L0 23 Z" />
	<path fill="#000000" theme:fill="bg1" stroke="none" d="M0 23 L24 23 L24 24 L0 24 Z" />
</svg>
