<svg width="24" height="24" viewBox="0 0 24 24" xmlns="http://www.w3.org/2000/svg" xmlns:theme="http://19wintersp.github.io/custom-euroscope/theme">
	<path fill="#4b4b4b" theme:fill="bg4" stroke="none" d="M0 0 L1 0 L1 22 L0 22 Z" />
	<path fill="#6d6d6d" theme:fill="bg5" stroke="none" d="M1 0 L23 0 L23 1 L1 1 Z" />
	<path fill="#262626" theme:fill="bg3" stroke="none" d="M1 1 L23 1 L23 2 L1 2 ZM1 2 L23 2 L23 22 L1 22 Z" />
	<path fill="#ffffff" theme:fill="fg1" stroke="none" d="M1.29901 15 L1.29901 7.72727 L5.85866 7.72727 L5.85866 8.67188 L2.39631 8.67188 L2.39631 10.8878 L5.62074 10.8878 L5.62074 11.8288 L2.39631 11.8288 L2.39631 14.0554 L5.90128 14.0554 L5.90128 15 L1.29901 15 ZM7.3244 7.72727 L8.65607 7.72727 L10.9714 13.3807 L11.0566 13.3807 L13.372 7.72727 L14.7037 7.72727 L14.7037 15 L13.6596 15 L13.6596 9.73722 L13.5922 9.73722 L11.4473 14.9893 L10.5808 14.9893 L8.4359 9.73366 L8.36843 9.73366 L8.36843 15 L7.3244 15 L7.3244 7.72727 ZM21.2209 10.0249 C21.1522 9.80942 21.0599 9.61648 20.9439 9.44602 C20.8303 9.2732 20.6941 9.12642 20.5355 9.00568 C20.3769 8.88258 20.1958 8.78906 19.9922 8.72514 C19.791 8.66122 19.5696 8.62926 19.3281 8.62926 C18.9186 8.62926 18.5492 8.73461 18.2202 8.94531 C17.8911 9.15601 17.6307 9.46496 17.4389 9.87216 C17.2495 10.277 17.1548 10.773 17.1548 11.3601 C17.1548 11.9496 17.2507 12.4479 17.4425 12.8551 C17.6342 13.2623 17.897 13.5713 18.2308 13.782 C18.5646 13.9927 18.9446 14.098 19.3707 14.098 C19.7661 14.098 20.1106 14.0175 20.4041 13.8565 C20.7 13.6955 20.9285 13.4683 21.0895 13.1747 C21.2528 12.8788 21.3345 12.5308 21.3345 12.1307 L21.6186 12.1839 L19.5376 12.1839 L19.5376 11.2784 L22.3963 11.2784 L22.3963 12.1058 C22.3963 12.7166 22.2661 13.2469 22.0057 13.6967 C21.7476 14.1442 21.3902 14.4898 20.9332 14.7337 C20.4787 14.9775 19.9579 15.0994 19.3707 15.0994 C18.7126 15.0994 18.1349 14.9479 17.6378 14.6449 C17.143 14.3419 16.7571 13.9122 16.4801 13.3558 C16.2031 12.7971 16.0646 12.1342 16.0646 11.3672 C16.0646 10.7872 16.1451 10.2663 16.3061 9.80469 C16.4671 9.34304 16.6932 8.95123 16.9844 8.62926 C17.2779 8.30492 17.6224 8.05753 18.0178 7.88707 C18.4155 7.71425 18.8499 7.62784 19.321 7.62784 C19.714 7.62784 20.0798 7.68584 20.4183 7.80185 C20.7592 7.91785 21.0623 8.08239 21.3274 8.29545 C21.5949 8.50852 21.8163 8.76184 21.9915 9.0554 C22.1667 9.34659 22.285 9.66974 22.3466 10.0249 L21.2209 10.0249 Z" />
	<path fill="#131313" theme:fill="bg2" stroke="none" d="M23 0 L24 0 L24 22 L23 22 ZM0 22 L24 22 L24 23 L0 23 Z" />
	<path fill="#000000" theme:fill="bg1" stroke="none" d="M0 23 L24 23 L24 24 L0 24 Z" />
</svg>
