<svg width="24" height="24" viewBox="0 0 24 24" xmlns="http://www.w3.org/2000/svg" xmlns:theme="http://19wintersp.github.io/custom-euroscope/theme">
	<path fill="#4b4b4b" theme:fill="bg4" stroke="none" d="M0 0 L1 0 L1 22 L0 22 Z" />
	<path fill="#6d6d6d" theme:fill="bg5" stroke="none" d="M1 0 L23 0 L23 1 L1 1 Z" />
	<path fill="#262626" theme:fill="bg3" stroke="none" d="M1 1 L23 1 L23 2 L1 2 ZM1 2 L23 2 L23 22 L1 22 Z" />
	<path fill="#ffffff" theme:fill="fg1" fill-rule="evenodd" stroke="none" d="M9 1 L9 22 L8 22 L8 1 L9 1 ZM16 22 L16 1 L17 1 L17 22 L16 22 Z" />
	<path fill="#262626" theme:fill="bg3" fill-rule="evenodd" stroke="none" d="M6.91421 4.08582 L9.91421 7.08582 C11.3435 8.51509 12.4687 10.2082 13.2418 11.8246 C13.9966 13.4028 14.5 15.0856 14.5 16.5 L14.5 22 L10.5 22 L10.5 16.5 C10.5 15.9144 10.2534 14.8472 9.63323 13.5504 C9.03129 12.2918 8.15651 10.985 7.08578 9.91424 L4.08578 6.91424 L6.91421 4.08582 Z" />
	<path fill="#ff8040" theme:fill="fg2" fill-rule="evenodd" stroke="none" d="M2 2 L7 2 L7 3 L3.70711 3 L8.85355 8.14645 C10.1484 9.44127 11.1797 10.9895 11.8886 12.4718 C12.5929 13.9444 13 15.3964 13 16.5 L13 22 L12 22 L12 16.5 C12 15.6036 11.6571 14.3056 10.9864 12.9032 C10.3203 11.5105 9.35163 10.0587 8.14645 8.85355 L3 3.70711 L3 7 L2 7 L2 2 Z" />
	<path fill="#ffffff" theme:fill="fg1" opacity="0.5" fill-rule="evenodd" stroke="none" d="M12 5 L12 2 L13 2 L13 5 L12 5 ZM12 10 L12 7 L13 7 L13 10 L12 10 Z" />
	<path fill="#131313" theme:fill="bg2" stroke="none" d="M23 0 L24 0 L24 22 L23 22 ZM0 22 L24 22 L24 23 L0 23 Z" />
	<path fill="#000000" theme:fill="bg1" stroke="none" d="M0 23 L24 23 L24 24 L0 24 Z" />
</svg>
