<svg width="24" height="24" viewBox="0 0 24 24" xmlns="http://www.w3.org/2000/svg" xmlns:theme="http://19wintersp.github.io/custom-euroscope/theme">
	<path fill="#4b4b4b" theme:fill="bg4" stroke="none" d="M0 0 L1 0 L1 22 L0 22 Z" />
	<path fill="#6d6d6d" theme:fill="bg5" stroke="none" d="M1 0 L23 0 L23 1 L1 1 Z" />
	<path fill="#262626" theme:fill="bg3" stroke="none" d="M1 1 L23 1 L23 2 L1 2 ZM1 2 L23 2 L23 22 L1 22 Z" />
	<path fill="#ff8040" theme:fill="fg2" fill-rule="evenodd" stroke="none" d="M17 2 L22 2 L22 7 L21 7 L21 3.70711 L17.1967 7.51041 C15.6026 9.10447 13.4406 10 11.1863 10 L10.8137 10 C8.55937 10 6.39736 9.10447 4.8033 7.51041 L2.14645 4.85355 L2.85355 4.14645 L5.51041 6.8033 C6.91693 8.20982 8.82458 9 10.8137 9 L11.1863 9 C13.1754 9 15.0831 8.20982 16.4896 6.8033 L20.2929 3 L17 3 L17 2 Z" />
	<path fill="#ffffff" theme:fill="fg1" stroke="none" d="M3.17809 20.5 L3.17809 19.7045 L5.63903 17.1548 C5.90181 16.8778 6.11843 16.6352 6.28888 16.4268 C6.46171 16.2161 6.59073 16.0161 6.67596 15.8267 C6.76119 15.6373 6.8038 15.4361 6.8038 15.223 C6.8038 14.9815 6.74698 14.7732 6.63335 14.598 C6.51971 14.4205 6.36464 14.2843 6.16815 14.1896 C5.97165 14.0926 5.7503 14.044 5.50408 14.044 C5.24367 14.044 5.01639 14.0973 4.82227 14.2038 C4.62814 14.3104 4.47899 14.4607 4.37482 14.6548 C4.27066 14.849 4.21857 15.0762 4.21857 15.3366 L3.17099 15.3366 C3.17099 14.8939 3.27279 14.5069 3.47638 14.1754 C3.67998 13.844 3.95934 13.5871 4.31445 13.4048 C4.66957 13.2202 5.07321 13.1278 5.52539 13.1278 C5.9823 13.1278 6.38477 13.219 6.73278 13.4013 C7.08316 13.5812 7.35659 13.8274 7.55309 14.1399 C7.74959 14.45 7.84783 14.8004 7.84783 15.1911 C7.84783 15.4609 7.79693 15.7249 7.69513 15.983 C7.5957 16.241 7.4217 16.5286 7.17312 16.8459 C6.92454 17.1607 6.57889 17.5431 6.13619 17.9929 L4.69087 19.5057 L4.69087 19.5589 L7.96502 19.5589 L7.96502 20.5 L3.17809 20.5 ZM11.8429 20.6207 C11.2818 20.6184 10.8024 20.4704 10.4047 20.1768 C10.0069 19.8833 9.70271 19.456 9.49201 18.8949 C9.28131 18.3338 9.17596 17.6579 9.17596 16.8672 C9.17596 16.0788 9.28131 15.4053 9.49201 14.8466 C9.70508 14.2879 10.0105 13.8617 10.4082 13.5682 C10.8083 13.2746 11.2865 13.1278 11.8429 13.1278 C12.3992 13.1278 12.8762 13.2758 13.274 13.5717 C13.6717 13.8653 13.9759 14.2914 14.1866 14.8501 C14.3997 15.4065 14.5062 16.0788 14.5062 16.8672 C14.5062 17.6603 14.4009 18.3374 14.1902 18.8984 C13.9795 19.4571 13.6752 19.8845 13.2775 20.1804 C12.8798 20.474 12.4016 20.6207 11.8429 20.6207 ZM11.8429 19.6726 C12.3353 19.6726 12.72 19.4323 12.997 18.9517 C13.2763 18.4711 13.416 17.7763 13.416 16.8672 C13.416 16.2635 13.3521 15.7533 13.2243 15.3366 C13.0988 14.9176 12.9177 14.6004 12.6809 14.3849 C12.4466 14.1671 12.1672 14.0582 11.8429 14.0582 C11.3528 14.0582 10.9681 14.2997 10.6887 14.7827 C10.4094 15.2656 10.2685 15.9605 10.2662 16.8672 C10.2662 17.4732 10.3289 17.9858 10.4544 18.4048 C10.5822 18.8215 10.7633 19.1375 10.9977 19.353 C11.2321 19.5661 11.5138 19.6726 11.8429 19.6726 ZM18.2979 20.6207 C17.7369 20.6184 17.2575 20.4704 16.8597 20.1768 C16.462 19.8833 16.1578 19.456 15.9471 18.8949 C15.7364 18.3338 15.631 17.6579 15.631 16.8672 C15.631 16.0788 15.7364 15.4053 15.9471 14.8466 C16.1602 14.2879 16.4656 13.8617 16.8633 13.5682 C17.2634 13.2746 17.7416 13.1278 18.2979 13.1278 C18.8543 13.1278 19.3313 13.2758 19.729 13.5717 C20.1268 13.8653 20.431 14.2914 20.6417 14.8501 C20.8548 15.4065 20.9613 16.0788 20.9613 16.8672 C20.9613 17.6603 20.8559 18.3374 20.6452 18.8984 C20.4345 19.4571 20.1303 19.8845 19.7326 20.1804 C19.3349 20.474 18.8567 20.6207 18.2979 20.6207 ZM18.2979 19.6726 C18.7904 19.6726 19.1751 19.4323 19.4521 18.9517 C19.7314 18.4711 19.8711 17.7763 19.8711 16.8672 C19.8711 16.2635 19.8072 15.7533 19.6793 15.3366 C19.5539 14.9176 19.3728 14.6004 19.136 14.3849 C18.9016 14.1671 18.6223 14.0582 18.2979 14.0582 C17.8079 14.0582 17.4232 14.2997 17.1438 14.7827 C16.8645 15.2656 16.7236 15.9605 16.7212 16.8672 C16.7212 17.4732 16.784 17.9858 16.9094 18.4048 C17.0373 18.8215 17.2184 19.1375 17.4528 19.353 C17.6871 19.5661 17.9689 19.6726 18.2979 19.6726 Z" />
	<path fill="#131313" theme:fill="bg2" stroke="none" d="M23 0 L24 0 L24 22 L23 22 ZM0 22 L24 22 L24 23 L0 23 Z" />
	<path fill="#000000" theme:fill="bg1" stroke="none" d="M0 23 L24 23 L24 24 L0 24 Z" />
</svg>
