<svg width="24" height="24" viewBox="0 0 24 24" xmlns="http://www.w3.org/2000/svg" xmlns:theme="http://19wintersp.github.io/custom-euroscope/theme">
	<path fill="#131313" theme:fill="bg2" stroke="none" d="M0 0 L1 0 L1 22 L0 22 ZM1 0 L23 0 L23 1 L1 1 Z" />
	<path fill="#4b4b4b" theme:fill="bg4" stroke="none" d="M1 1 L23 1 L23 2 L1 2 ZM1 2 L23 2 L23 22 L1 22 Z" />
	<path fill="#ff8040" theme:fill="fg2" fill-rule="evenodd" stroke="none" d="M17 2 L22 2 L22 7 L21 7 L21 3.70711 L17.1967 7.51041 C15.6026 9.10447 13.4406 10 11.1863 10 L10.8137 10 C8.55935 10 6.39734 9.10447 4.80328 7.51041 L2.14642 4.85355 L2.85353 4.14645 L5.51038 6.8033 C6.91691 8.20982 8.82456 9 10.8137 9 L11.1863 9 C13.1754 9 15.083 8.20982 16.4896 6.8033 L20.2929 3 L17 3 L17 2 Z" />
	<path fill="#ffffff" theme:fill="fg1" stroke="none" d="M6.64045 13.2273 L6.64045 20.5 L5.5396 20.5 L5.5396 14.3281 L5.49698 14.3281 L3.75692 15.4645 L3.75692 14.4134 L5.57156 13.2273 L6.64045 13.2273 ZM11.1397 20.6207 C10.5787 20.6184 10.0993 20.4704 9.70153 20.1768 C9.3038 19.8833 8.99959 19.456 8.78888 18.8949 C8.57818 18.3338 8.47283 17.6579 8.47283 16.8672 C8.47283 16.0788 8.57818 15.4053 8.78888 14.8466 C9.00195 14.2879 9.30735 13.8617 9.70508 13.5682 C10.1052 13.2746 10.5834 13.1278 11.1397 13.1278 C11.6961 13.1278 12.1731 13.2758 12.5708 13.5717 C12.9686 13.8653 13.2728 14.2914 13.4835 14.8501 C13.6966 15.4065 13.8031 16.0788 13.8031 16.8672 C13.8031 17.6603 13.6977 18.3374 13.487 18.8984 C13.2763 19.4571 12.9721 19.8845 12.5744 20.1804 C12.1767 20.474 11.6984 20.6207 11.1397 20.6207 ZM11.1397 19.6726 C11.6322 19.6726 12.0169 19.4323 12.2939 18.9517 C12.5732 18.4711 12.7129 17.7763 12.7129 16.8672 C12.7129 16.2635 12.649 15.7533 12.5211 15.3366 C12.3957 14.9176 12.2145 14.6004 11.9778 14.3849 C11.7434 14.1671 11.4641 14.0582 11.1397 14.0582 C10.6497 14.0582 10.265 14.2997 9.98562 14.7827 C9.70626 15.2656 9.5654 15.9605 9.56303 16.8672 C9.56303 17.4732 9.62577 17.9858 9.75124 18.4048 C9.87908 18.8215 10.0602 19.1375 10.2946 19.353 C10.5289 19.5661 10.8107 19.6726 11.1397 19.6726 ZM17.5948 20.6207 C17.0337 20.6184 16.5543 20.4704 16.1566 20.1768 C15.7589 19.8833 15.4547 19.456 15.244 18.8949 C15.0333 18.3338 14.9279 17.6579 14.9279 16.8672 C14.9279 16.0788 15.0333 15.4053 15.244 14.8466 C15.457 14.2879 15.7624 13.8617 16.1602 13.5682 C16.5603 13.2746 17.0385 13.1278 17.5948 13.1278 C18.1512 13.1278 18.6282 13.2758 19.0259 13.5717 C19.4237 13.8653 19.7279 14.2914 19.9386 14.8501 C20.1516 15.4065 20.2582 16.0788 20.2582 16.8672 C20.2582 17.6603 20.1528 18.3374 19.9421 18.8984 C19.7314 19.4571 19.4272 19.8845 19.0295 20.1804 C18.6317 20.474 18.1535 20.6207 17.5948 20.6207 ZM17.5948 19.6726 C18.0872 19.6726 18.4719 19.4323 18.7489 18.9517 C19.0283 18.4711 19.168 17.7763 19.168 16.8672 C19.168 16.2635 19.104 15.7533 18.9762 15.3366 C18.8507 14.9176 18.6696 14.6004 18.4329 14.3849 C18.1985 14.1671 17.9192 14.0582 17.5948 14.0582 C17.1048 14.0582 16.7201 14.2997 16.4407 14.7827 C16.1613 15.2656 16.0205 15.9605 16.0181 16.8672 C16.0181 17.4732 16.0808 17.9858 16.2063 18.4048 C16.3342 18.8215 16.5153 19.1375 16.7496 19.353 C16.984 19.5661 17.2657 19.6726 17.5948 19.6726 Z" />
	<path fill="#131313" theme:fill="bg2" stroke="none" d="M23 0 L24 0 L24 22 L23 22 ZM0 22 L24 22 L24 23 L0 23 Z" />
	<path fill="#000000" theme:fill="bg1" stroke="none" d="M0 23 L24 23 L24 24 L0 24 Z" />
</svg>
