<svg width="24" height="24" viewBox="0 0 24 24" xmlns="http://www.w3.org/2000/svg" xmlns:theme="http://19wintersp.github.io/custom-euroscope/theme">
	<path fill="#131313" theme:fill="bg2" stroke="none" d="M0 0 L1 0 L1 22 L0 22 ZM1 0 L23 0 L23 1 L1 1 Z" />
	<path fill="#4b4b4b" theme:fill="bg4" stroke="none" d="M1 1 L23 1 L23 2 L1 2 ZM1 2 L23 2 L23 22 L1 22 Z" />
	<path fill="#ff8040" theme:fill="fg2" fill-rule="evenodd" stroke="none" d="M17 2 L22 2 L22 7 L21 7 L21 3.70711 L17.1967 7.51041 C15.6026 9.10447 13.4406 10 11.1863 10 L10.8137 10 C8.55935 10 6.39734 9.10447 4.80328 7.51041 L2.14642 4.85355 L2.85353 4.14645 L5.51038 6.8033 C6.91691 8.20982 8.82456 9 10.8137 9 L11.1863 9 C13.1754 9 15.083 8.20982 16.4896 6.8033 L20.2929 3 L17 3 L17 2 Z" />
	<path fill="#ffffff" theme:fill="fg1" stroke="none" d="M6.7674 13.2273 L6.7674 20.5 L5.66655 20.5 L5.66655 14.3281 L5.62393 14.3281 L3.88388 15.4645 L3.88388 14.4134 L5.69851 13.2273 L6.7674 13.2273 ZM11.1353 20.5994 C10.6902 20.5994 10.2901 20.5142 9.93501 20.3438 C9.58227 20.1709 9.30054 19.9342 9.08984 19.6335 C8.87914 19.3329 8.76669 18.9896 8.75249 18.6037 L9.81783 18.6037 C9.84387 18.9162 9.98236 19.1731 10.2333 19.3743 C10.4843 19.5755 10.7849 19.6761 11.1353 19.6761 C11.4147 19.6761 11.6621 19.6122 11.8775 19.4844 C12.0953 19.3542 12.2657 19.1754 12.3888 18.9482 C12.5143 18.7209 12.5771 18.4616 12.5771 18.1705 C12.5771 17.8745 12.5131 17.6106 12.3853 17.3786 C12.2575 17.1465 12.0811 16.9643 11.8562 16.8317 C11.6336 16.6991 11.378 16.6316 11.0891 16.6293 C10.869 16.6293 10.6476 16.6671 10.4251 16.7429 C10.2025 16.8187 10.0226 16.9181 9.8853 17.0412 L8.88033 16.892 L9.28871 13.2273 L13.2873 13.2273 L13.2873 14.1683 L10.2013 14.1683 L9.97053 16.2031 L10.0131 16.2031 C10.1552 16.0658 10.3434 15.951 10.5778 15.8587 C10.8145 15.7663 11.0678 15.7202 11.3377 15.7202 C11.7804 15.7202 12.1746 15.8255 12.5202 16.0362 C12.8683 16.2469 13.1417 16.5346 13.3406 16.8991 C13.5418 17.2614 13.6412 17.678 13.6388 18.1491 C13.6412 18.6203 13.5347 19.0405 13.3192 19.4098 C13.1062 19.7791 12.8103 20.0703 12.4315 20.2834 C12.055 20.4941 11.623 20.5994 11.1353 20.5994 ZM17.4679 20.6207 C16.9068 20.6184 16.4274 20.4704 16.0297 20.1768 C15.6319 19.8833 15.3277 19.456 15.117 18.8949 C14.9063 18.3338 14.801 17.6579 14.801 16.8672 C14.801 16.0788 14.9063 15.4053 15.117 14.8466 C15.3301 14.2879 15.6355 13.8617 16.0332 13.5682 C16.4333 13.2746 16.9115 13.1278 17.4679 13.1278 C18.0242 13.1278 18.5012 13.2758 18.899 13.5717 C19.2967 13.8653 19.6009 14.2914 19.8116 14.8501 C20.0247 15.4065 20.1312 16.0788 20.1312 16.8672 C20.1312 17.6603 20.0259 18.3374 19.8152 18.8984 C19.6045 19.4571 19.3002 19.8845 18.9025 20.1804 C18.5048 20.474 18.0266 20.6207 17.4679 20.6207 ZM17.4679 19.6726 C17.9603 19.6726 18.345 19.4323 18.622 18.9517 C18.9013 18.4711 19.041 17.7763 19.041 16.8672 C19.041 16.2635 18.9771 15.7533 18.8493 15.3366 C18.7238 14.9176 18.5427 14.6004 18.3059 14.3849 C18.0716 14.1671 17.7922 14.0582 17.4679 14.0582 C16.9778 14.0582 16.5931 14.2997 16.3137 14.7827 C16.0344 15.2656 15.8935 15.9605 15.8912 16.8672 C15.8912 17.4732 15.9539 17.9858 16.0794 18.4048 C16.2072 18.8215 16.3883 19.1375 16.6227 19.353 C16.8571 19.5661 17.1388 19.6726 17.4679 19.6726 Z" />
	<path fill="#131313" theme:fill="bg2" stroke="none" d="M23 0 L24 0 L24 22 L23 22 ZM0 22 L24 22 L24 23 L0 23 Z" />
	<path fill="#000000" theme:fill="bg1" stroke="none" d="M0 23 L24 23 L24 24 L0 24 Z" />
</svg>
