<svg width="24" height="24" viewBox="0 0 24 24" xmlns="http://www.w3.org/2000/svg" xmlns:theme="http://19wintersp.github.io/custom-euroscope/theme">
	<path fill="#131313" theme:fill="bg2" stroke="none" d="M0 0 L1 0 L1 22 L0 22 ZM1 0 L23 0 L23 1 L1 1 Z" />
	<path fill="#4b4b4b" theme:fill="bg4" stroke="none" d="M1 1 L23 1 L23 2 L1 2 ZM1 2 L23 2 L23 22 L1 22 Z" />
	<path fill="#ffffff" theme:fill="fg1" stroke="none" d="M2.45455 3.68182 L3.7358 5.8125 L3.78125 5.8125 L5.06818 3.68182 L6.26989 3.68182 L4.47727 6.59091 L6.2983 9.5 L5.0767 9.5 L3.78125 7.38352 L3.7358 7.38352 L2.44034 9.5 L1.22443 9.5 L3.0625 6.59091 L1.24716 3.68182 L2.45455 3.68182 ZM7.0973 9.5 L7.0973 3.68182 L9.27912 3.68182 C9.72609 3.68182 10.1011 3.76515 10.4041 3.93182 C10.709 4.09848 10.9392 4.32765 11.0945 4.61932 C11.2517 4.90909 11.3303 5.23864 11.3303 5.60795 C11.3303 5.98106 11.2517 6.3125 11.0945 6.60227 C10.9373 6.89205 10.7053 7.12027 10.3984 7.28693 C10.0916 7.4517 9.71378 7.53409 9.26491 7.53409 L7.81889 7.53409 L7.81889 6.66761 L9.12287 6.66761 C9.38423 6.66761 9.59825 6.62216 9.76491 6.53125 C9.93158 6.44034 10.0547 6.31534 10.1342 6.15625 C10.2157 5.99716 10.2564 5.81439 10.2564 5.60795 C10.2564 5.40152 10.2157 5.2197 10.1342 5.0625 C10.0547 4.9053 9.93063 4.78314 9.76207 4.69602 C9.59541 4.60701 9.38045 4.5625 9.11719 4.5625 L8.15128 4.5625 L8.15128 9.5 L7.0973 9.5 ZM14.2173 9.5 L12.2457 9.5 L12.2457 3.68182 L14.2571 3.68182 C14.8348 3.68182 15.331 3.7983 15.7457 4.03125 C16.1624 4.26231 16.4825 4.5947 16.706 5.02841 C16.9295 5.46212 17.0412 5.98106 17.0412 6.58523 C17.0412 7.19129 16.9285 7.71212 16.7031 8.14773 C16.4796 8.58333 16.1567 8.91761 15.7344 9.15057 C15.3139 9.38352 14.8082 9.5 14.2173 9.5 ZM13.2997 8.58807 L14.1662 8.58807 C14.5715 8.58807 14.9096 8.5142 15.1804 8.36648 C15.4512 8.21686 15.6548 7.99432 15.7912 7.69886 C15.9276 7.40152 15.9957 7.0303 15.9957 6.58523 C15.9957 6.14015 15.9276 5.77083 15.7912 5.47727 C15.6548 5.18182 15.4531 4.96117 15.1861 4.81534 C14.9209 4.66761 14.5914 4.59375 14.1974 4.59375 L13.2997 4.59375 L13.2997 8.58807 ZM18.0426 9.5 L18.0426 3.68182 L20.2244 3.68182 C20.6714 3.68182 21.0464 3.75947 21.3494 3.91477 C21.6544 4.07008 21.8845 4.28788 22.0398 4.56818 C22.197 4.84659 22.2756 5.1714 22.2756 5.54261 C22.2756 5.91572 22.196 6.23958 22.0369 6.5142 C21.8797 6.78693 21.6477 6.99811 21.3409 7.14773 C21.0341 7.29545 20.6572 7.36932 20.2102 7.36932 L18.6562 7.36932 L18.6562 6.49432 L20.0682 6.49432 C20.3295 6.49432 20.5436 6.45833 20.7102 6.38636 C20.8769 6.3125 21 6.20549 21.0795 6.06534 C21.161 5.9233 21.2017 5.74905 21.2017 5.54261 C21.2017 5.33617 21.161 5.16004 21.0795 5.0142 C20.9981 4.86648 20.8741 4.75473 20.7074 4.67898 C20.5407 4.60133 20.3258 4.5625 20.0625 4.5625 L19.0966 4.5625 L19.0966 9.5 L18.0426 9.5 ZM21.0483 6.86364 L22.4886 9.5 L21.3125 9.5 L19.8977 6.86364 L21.0483 6.86364 Z" />
	<path fill="#ffffff" theme:fill="fg1" fill-rule="evenodd" stroke="none" d="M13 15 L11 15 L11 17 L13 17 L13 15 ZM10 14 L10 18 L14 18 L14 14 L10 14 Z" />
	<path fill="#131313" theme:fill="bg2" stroke="none" d="M23 0 L24 0 L24 22 L23 22 ZM0 22 L24 22 L24 23 L0 23 Z" />
	<path fill="#000000" theme:fill="bg1" stroke="none" d="M0 23 L24 23 L24 24 L0 24 Z" />
</svg>
